{"glyphs":{"0":{"ha":682,"x_min":0,"x_max":0,"o":"m 601 644 b 528 857 593 718 574 797 b 524 863 525 857 522 858 b 478 910 511 881 494 896 b 461 908 474 908 468 908 b 372 907 432 908 401 908 l 372 913 b 403 922 383 906 390 914 b 429 914 413 929 419 933 b 460 913 439 913 450 911 l 472 913 b 375 956 444 932 411 947 b 231 942 325 967 276 963 b 172 908 210 933 190 922 b 214 904 192 907 206 906 l 167 903 b 36 697 103 851 63 772 b -12 354 -1 590 -17 476 b 33 160 -10 288 3 219 b 301 1 88 50 193 -8 b 547 224 418 14 504 118 b 601 644 589 328 622 467 z m 246 913 l 268 913 b 308 918 283 910 293 908 b 356 913 319 907 332 910 l 357 907 b 293 910 335 907 313 907 b 226 906 271 911 250 910 b 246 913 232 910 239 913 z m 314 874 l 301 876 l 313 878 z m 414 863 b 428 868 421 864 425 864 b 425 858 429 865 429 863 l 403 856 b 414 863 403 860 407 861 z m 240 828 l 240 825 l 229 825 l 229 828 z m 200 818 b 207 811 203 818 207 815 l 197 810 z m 178 814 l 185 814 l 185 811 l 178 811 z m 417 800 b 413 806 414 800 411 803 l 421 804 l 418 801 b 417 800 418 801 417 801 z m 190 794 b 175 793 186 790 182 790 l 175 794 b 174 796 174 794 174 794 b 175 800 174 797 174 799 l 179 803 l 190 801 z m 208 779 l 204 782 l 207 786 l 213 785 z m 126 769 b 128 765 128 768 128 767 l 128 763 b 119 764 124 763 121 763 b 126 769 119 765 125 769 z m 171 767 l 171 765 b 172 764 171 765 171 764 l 172 763 l 161 763 z m 447 764 b 457 751 454 760 457 757 b 447 749 454 750 451 749 z m 126 763 b 138 757 132 763 135 760 l 135 757 b 126 756 133 756 131 756 z m 150 763 b 150 753 153 760 153 757 b 146 757 147 754 146 756 l 142 763 z m 139 746 l 142 738 l 149 738 b 151 739 150 738 150 738 l 154 739 b 156 738 154 739 154 738 l 156 732 l 138 738 l 128 738 b 139 746 132 742 135 744 z m 407 738 l 404 738 b 401 736 403 738 401 738 b 396 738 400 738 399 738 l 399 746 b 407 743 401 746 406 744 z m 463 739 b 464 733 464 736 464 735 b 460 728 464 732 463 729 l 449 731 b 451 732 450 731 451 732 b 454 735 451 733 453 733 z m 158 736 l 164 732 b 165 726 165 729 165 728 l 163 725 l 158 725 b 158 736 156 726 156 731 z m 135 713 l 135 725 b 136 726 135 726 135 726 b 138 728 136 726 136 728 l 139 728 l 139 729 b 142 731 140 729 140 729 b 143 726 143 728 143 726 b 146 725 143 726 144 725 l 146 719 b 140 711 146 718 144 715 b 135 713 139 713 136 713 z m 471 726 l 475 726 b 479 718 476 725 478 722 l 474 721 b 471 724 472 722 472 724 z m 368 460 b 338 329 363 403 354 375 b 268 247 322 283 299 247 b 247 253 260 247 253 249 b 214 364 217 268 214 333 b 260 639 214 433 231 531 b 314 722 267 660 285 722 b 349 706 329 722 340 717 b 371 567 369 675 371 601 b 368 460 371 531 369 496 z m 183 715 l 172 714 l 172 717 l 183 719 z m 150 707 b 158 711 150 710 153 711 l 160 711 l 160 708 b 158 703 160 707 160 704 l 156 703 b 150 707 153 703 150 704 z m 433 704 b 435 699 435 703 435 701 l 425 699 l 425 706 l 431 706 b 433 704 431 706 432 704 z m 165 694 l 158 694 b 164 700 158 697 160 699 b 165 694 167 700 168 697 z m 149 692 b 146 694 147 692 143 693 b 153 693 149 697 153 696 b 149 692 151 693 150 693 z m 432 685 l 422 686 b 425 689 422 688 424 689 b 432 693 426 690 428 692 l 433 693 b 436 692 435 692 435 692 b 432 685 436 689 435 686 z m 447 693 l 457 693 b 447 688 457 689 453 688 z m 442 678 b 449 679 444 679 446 679 b 451 676 450 679 450 678 b 458 672 451 675 454 674 b 447 674 453 672 450 672 b 439 676 446 674 442 675 z m 449 663 l 443 667 l 446 669 l 453 665 z m 454 660 l 454 656 l 450 656 l 450 660 z m 439 647 b 436 646 439 646 438 646 l 436 650 b 439 647 438 649 439 649 z m 443 640 b 446 643 444 642 446 642 b 450 646 447 644 449 646 l 465 646 l 465 640 b 443 640 460 642 451 642 z m 453 614 l 451 615 l 449 615 b 453 619 451 615 453 617 l 453 617 b 453 614 454 617 453 615 z m 482 610 b 474 607 479 608 476 607 l 468 603 l 468 606 b 467 608 468 607 467 608 b 479 617 472 607 479 607 b 482 614 479 615 479 614 z m 418 614 l 421 614 l 421 610 l 418 610 z m 453 604 l 453 606 b 450 608 453 607 451 608 l 456 608 b 453 604 454 608 453 607 z m 464 588 l 458 588 b 464 592 461 590 463 590 b 468 596 465 592 467 593 b 464 588 468 592 467 589 z m 443 576 b 439 585 443 579 442 582 b 435 583 438 585 435 585 l 431 583 l 440 588 b 447 582 444 586 447 582 b 449 579 447 581 447 579 b 453 578 450 578 450 578 l 451 576 z m 421 557 b 421 564 419 557 419 560 l 428 564 b 421 557 428 561 425 558 z "},"1":{"ha":354,"x_min":0,"x_max":0,"o":"m 319 881 l 310 879 b 313 888 318 882 315 885 b 310 899 311 890 307 896 l 313 899 l 307 911 l 296 911 b 235 906 276 913 256 910 b 219 911 232 910 228 913 b 203 914 213 910 207 911 b 281 915 229 918 254 918 b 293 914 285 915 289 914 b 306 913 297 914 301 914 b 181 958 279 956 232 964 l 179 958 l 31 935 b 10 913 18 932 11 925 l 7 879 b 35 885 21 879 29 879 b 31 892 35 886 33 889 b 24 904 25 897 22 900 b 35 908 25 906 28 907 b 51 906 42 908 46 910 l 56 908 l 63 906 b 49 906 57 904 53 904 b 39 903 44 906 40 904 b 42 894 42 899 43 896 b 40 882 40 886 39 885 b 51 876 42 879 44 878 b 83 881 63 879 74 881 l 111 881 b 140 879 124 879 133 879 b 175 882 150 878 163 879 b 188 879 179 879 183 879 b 200 881 188 879 192 879 b 211 882 203 882 207 882 b 224 879 215 882 218 881 l 242 890 b 269 881 249 883 257 881 b 300 879 281 881 290 879 l 299 879 b 239 878 276 879 257 879 b 175 874 217 876 196 874 l 171 876 b 131 874 157 875 143 874 b 100 872 119 874 108 872 l 35 868 b 38 853 43 864 40 857 b 39 839 33 847 31 843 b 13 847 26 836 17 840 b 21 860 11 850 17 856 b 24 865 24 861 25 864 b 14 871 24 867 19 868 l 6 871 l -14 661 b -4 640 -14 651 -11 644 b 18 635 1 633 10 632 l 72 651 l 6 28 b 33 0 4 13 17 0 l 238 24 b 260 47 250 25 258 33 b 303 571 269 221 282 397 b 322 771 310 636 318 704 b 319 881 322 799 326 850 z m 175 897 l 154 911 l 149 908 b 132 908 143 910 136 910 b 124 907 129 908 126 908 l 118 907 b 82 906 111 904 103 904 l 82 908 b 111 910 93 908 103 910 b 135 913 121 911 129 913 b 186 911 150 914 164 914 b 175 897 175 904 171 903 z m 103 839 b 92 842 99 839 94 840 b 113 853 88 849 96 863 b 103 839 104 850 100 844 z m 267 838 b 251 844 254 836 250 839 l 275 849 z m 39 726 l 47 726 l 47 722 l 39 722 z m 51 700 b 40 699 49 700 44 699 l 44 701 b 49 704 46 703 47 704 l 69 701 b 51 700 69 701 58 701 z m 21 665 l 13 665 l 13 668 l 21 668 z m 126 624 l 128 619 l 117 621 z m 232 525 l 239 525 l 239 521 l 232 521 z m 217 514 l 225 514 l 225 511 l 226 510 l 226 507 l 217 507 z m 122 490 l 122 499 l 128 499 l 129 490 z m 233 488 b 243 482 238 488 240 485 l 239 478 l 233 478 b 229 479 233 478 231 479 b 233 488 229 481 231 485 z m 257 465 l 257 468 b 257 474 256 471 256 472 b 269 467 261 474 265 471 z m 240 467 l 240 463 b 242 460 240 461 242 461 b 231 458 240 458 236 458 l 231 451 l 221 451 b 222 456 221 453 221 454 l 222 461 l 226 461 l 229 463 z m 203 464 b 214 457 210 464 214 461 l 203 456 b 204 460 203 456 203 457 b 206 461 206 460 206 460 b 203 464 204 461 203 461 z m 208 450 l 208 449 l 210 447 b 211 446 210 446 210 446 l 207 446 b 206 449 207 447 206 447 l 207 449 l 207 447 z m 256 432 b 238 433 246 433 240 433 l 238 440 b 246 440 240 442 242 442 l 254 440 b 256 432 256 435 257 433 z m 207 436 l 207 432 l 203 435 l 200 440 z m 247 419 b 250 418 249 419 249 419 b 228 422 242 418 235 419 b 235 426 229 422 232 424 b 240 432 236 428 238 431 l 246 432 b 247 426 246 431 246 428 b 243 421 247 424 246 422 b 247 419 244 421 246 419 z m 215 418 b 207 415 213 415 210 415 l 203 419 b 210 424 206 422 208 424 b 215 418 214 424 215 422 z m 203 406 l 203 411 l 225 408 z m 174 381 b 163 383 169 381 165 382 l 165 389 l 176 389 z m 89 385 b 76 381 85 382 81 381 l 69 385 b 89 385 69 389 79 390 z m 199 382 b 204 388 199 383 200 386 l 206 388 b 214 385 208 388 211 386 b 210 378 214 382 213 379 l 200 378 b 199 382 200 378 199 379 z m 225 379 l 228 383 b 236 382 232 383 235 382 l 236 375 b 224 374 236 375 229 371 b 225 379 222 375 224 378 z m 85 346 l 85 350 l 89 354 b 99 346 89 351 93 349 z m 254 332 b 253 335 254 333 254 333 l 260 340 l 269 338 b 260 332 269 333 265 332 z m 226 335 l 226 339 l 235 339 l 235 335 z m 58 336 b 71 335 65 336 69 336 b 67 328 68 333 67 331 b 54 333 60 331 56 332 b 46 336 51 335 47 335 z m 236 322 l 236 331 l 247 331 l 247 324 z m 50 322 b 46 325 47 322 46 324 b 42 329 44 328 43 329 l 53 329 b 61 328 54 329 57 328 b 50 322 61 326 56 322 z m 224 321 l 226 314 l 217 314 b 210 315 214 314 211 314 b 224 321 211 317 217 318 z m 78 315 l 89 315 l 89 311 l 78 311 z m 268 307 b 267 308 267 307 267 308 b 265 310 267 308 267 310 b 267 314 265 311 267 313 b 274 310 269 314 272 313 b 268 307 274 308 272 308 z m 247 299 l 249 300 b 249 294 250 299 250 296 b 247 297 247 296 247 297 b 246 299 246 297 246 297 z m 239 282 b 236 286 238 283 236 285 b 240 293 236 289 238 290 l 244 290 l 247 290 l 247 292 b 249 293 247 292 247 293 b 257 290 251 292 254 290 l 257 281 l 256 281 b 249 278 254 279 251 278 b 239 282 243 278 240 279 z m 235 281 l 240 278 l 238 274 l 233 275 z m 85 271 b 72 267 82 269 76 268 b 69 268 71 267 69 268 l 68 269 b 64 272 67 269 67 271 l 78 279 l 89 279 l 97 275 b 85 271 94 275 90 274 z m 228 276 b 208 265 224 269 215 265 l 208 271 b 228 276 208 271 217 278 z m 260 261 l 260 265 b 258 271 260 265 258 268 l 269 271 b 271 267 271 268 271 267 b 272 263 272 265 272 264 b 260 261 271 260 267 260 z m 231 239 l 228 236 l 226 236 b 224 235 226 236 225 235 b 214 244 219 238 217 240 b 203 254 211 247 208 251 b 214 260 204 257 210 261 l 215 260 l 215 265 b 226 261 219 265 222 264 l 225 250 b 235 247 226 249 229 247 z m 233 249 l 236 256 b 246 254 240 254 243 254 l 256 254 b 249 247 256 250 253 247 l 243 247 b 233 249 240 249 238 249 z m 68 250 l 68 251 l 75 253 l 78 251 z m 200 247 l 190 247 l 190 251 l 200 251 z m 250 239 l 251 239 l 265 239 b 256 229 263 235 260 232 b 257 226 257 229 257 228 l 254 225 b 251 226 254 225 253 225 l 240 228 b 250 239 242 233 249 238 z m 76 233 l 72 233 b 78 236 72 233 74 235 b 76 233 81 235 79 233 z m 97 217 l 89 217 l 89 221 l 97 221 z m 247 214 l 246 219 l 250 219 b 256 217 253 219 254 218 b 253 215 254 217 254 215 b 247 214 250 214 249 214 z m 261 210 b 256 208 260 208 258 208 l 257 215 l 264 215 b 265 213 264 214 264 214 l 265 211 b 267 210 267 211 267 211 z m 190 204 b 197 207 193 206 196 207 z "},"2":{"ha":661,"x_min":0,"x_max":0,"o":"m 519 565 l 519 567 b 572 681 539 599 556 636 b 449 954 607 772 599 918 b 238 954 379 971 306 967 b 40 903 171 943 103 922 b 24 879 29 899 24 892 l 15 618 b 54 596 15 599 36 586 b 193 674 97 622 144 651 b 279 703 217 683 253 699 b 299 700 290 704 296 703 b 300 699 299 699 299 699 b 293 663 301 690 294 668 b 274 615 286 644 281 629 b 278 613 276 614 278 614 l 278 610 l 272 607 l 271 607 b 260 589 265 599 263 592 b 142 421 218 526 179 471 l 142 419 l 43 269 b -4 172 19 235 6 203 b 3 49 -15 132 -19 88 b 97 1 24 17 60 4 b 268 7 153 -1 213 1 b 525 42 354 15 439 28 b 546 65 539 43 546 51 l 558 282 b 549 303 558 290 556 297 b 526 307 542 308 535 310 b 456 288 503 301 479 294 b 333 265 407 275 356 268 l 464 478 z m 346 897 b 356 900 349 897 351 899 b 356 885 360 896 360 892 b 338 893 351 892 346 894 z m 389 890 l 389 885 b 385 881 386 883 386 881 b 376 890 382 882 376 888 z m 326 869 b 333 874 329 869 332 872 b 356 871 343 872 350 872 l 379 867 b 375 861 379 865 378 864 b 368 856 372 860 371 858 b 374 842 365 853 365 846 b 342 846 363 839 350 842 b 344 851 342 847 342 849 l 354 858 b 342 868 354 867 350 869 b 322 867 333 867 326 867 b 326 869 322 868 324 869 z m 386 836 l 386 833 l 381 833 l 381 836 z m 368 808 b 369 813 368 808 368 811 b 376 815 371 814 372 815 b 383 814 379 815 381 815 b 390 810 385 813 389 811 l 393 799 l 383 799 b 381 797 382 797 381 797 b 368 808 372 797 368 804 z m 313 799 b 317 794 317 797 318 796 l 313 796 z m 247 789 b 244 786 246 789 246 788 l 240 786 l 240 792 l 250 792 z m 356 778 b 353 779 354 778 353 778 b 354 782 353 782 354 782 b 356 783 356 782 356 783 b 357 779 357 782 357 781 b 356 778 357 778 357 778 z m 258 781 b 267 782 260 781 263 782 b 265 779 267 782 265 781 b 269 774 265 776 267 775 b 265 772 268 772 267 772 l 253 772 l 251 774 b 258 781 253 779 256 781 z m 336 767 l 336 764 l 333 761 b 331 764 332 763 331 763 b 326 765 329 764 328 765 l 326 769 b 331 771 326 768 328 769 b 336 767 335 771 336 769 z m 333 760 b 338 758 335 758 336 758 b 340 756 339 758 340 757 l 340 753 b 336 750 339 751 338 750 b 329 747 333 750 331 749 b 325 744 329 746 326 744 b 318 753 321 744 318 751 b 333 760 325 753 331 754 z m 256 749 b 251 751 254 749 253 750 b 257 754 251 754 253 754 b 265 753 260 754 263 754 l 261 747 b 256 749 258 747 257 749 z m 189 736 l 188 742 l 190 742 b 194 743 192 742 193 743 b 197 738 196 742 197 740 b 189 736 196 738 193 736 z m 369 728 b 368 726 369 728 368 728 b 361 731 365 728 363 729 l 368 733 l 371 731 b 369 728 369 729 369 729 z m 333 721 b 338 725 333 722 335 724 b 343 719 342 724 343 722 b 338 718 342 719 339 719 b 336 719 338 718 338 719 b 333 721 335 719 333 719 z m 317 721 b 321 724 317 722 318 724 b 326 721 322 724 324 722 l 321 721 b 317 721 319 719 318 719 z m 274 715 l 267 715 b 265 718 267 717 265 717 b 268 722 265 719 267 721 l 272 722 b 276 719 275 722 276 722 b 274 715 276 718 275 717 z m 475 651 l 476 650 l 475 646 l 474 647 z m 499 636 b 504 639 500 638 503 639 b 511 643 510 642 511 643 b 519 642 515 642 518 642 b 528 640 522 642 524 640 b 526 636 526 638 526 636 b 524 631 526 639 526 636 b 506 626 518 625 511 624 b 499 636 501 626 496 629 z m 428 615 l 428 613 b 422 614 426 610 422 611 l 421 615 b 428 615 422 617 425 615 z m 496 603 l 500 604 b 504 600 503 604 504 603 b 500 599 503 600 501 599 l 496 596 z m 435 585 l 428 588 l 428 590 b 435 593 428 593 431 594 l 440 592 l 442 589 b 435 585 438 586 435 586 z m 381 590 b 389 590 383 593 386 593 l 385 589 z m 461 578 b 449 574 458 574 450 574 b 443 588 451 579 450 583 b 446 589 443 588 444 589 b 453 592 447 590 449 592 l 458 590 l 458 589 b 457 588 457 589 457 588 b 458 585 457 586 457 585 b 461 581 458 583 458 582 b 461 578 463 579 463 578 z m 503 579 l 503 574 b 497 572 501 574 500 574 b 494 578 494 572 494 574 b 503 579 497 579 500 579 z m 492 567 b 494 568 493 567 493 568 b 493 564 494 567 493 565 b 490 558 492 560 490 558 b 488 560 489 558 489 558 b 492 567 486 561 488 564 z m 397 544 l 392 535 l 389 533 b 383 542 383 538 382 540 b 385 550 383 543 385 546 b 389 547 385 549 386 547 b 396 547 390 546 393 546 b 397 544 397 546 397 544 z m 367 531 b 358 533 367 532 364 532 l 363 540 l 367 538 b 369 533 367 536 368 535 z m 428 528 b 426 526 428 528 426 528 b 421 524 425 526 422 525 b 425 533 413 526 417 532 b 428 532 425 533 426 532 b 429 529 429 532 429 531 z m 468 526 b 478 526 468 531 475 528 l 479 525 l 476 519 b 468 524 474 518 468 521 z m 389 490 l 386 492 b 382 492 385 490 383 492 b 376 508 375 494 375 504 b 379 510 378 510 379 510 b 382 513 381 511 381 513 b 378 519 382 514 381 515 l 381 519 b 383 519 381 521 382 521 b 390 510 388 518 390 515 l 390 503 b 389 500 389 501 389 500 b 393 493 390 499 392 496 b 389 490 393 492 392 490 z m 368 497 b 354 492 365 490 357 490 b 350 501 351 492 349 500 b 360 507 351 504 354 506 b 368 497 367 503 371 499 z m 415 474 b 413 471 414 472 413 472 l 407 472 l 407 478 b 417 478 410 479 413 479 b 415 474 417 476 417 475 z m 401 469 l 396 472 l 396 474 l 403 471 z m 372 457 b 375 463 372 458 372 460 l 379 465 b 383 461 379 464 381 463 b 382 458 382 460 382 458 b 376 453 382 457 381 453 l 372 456 z m 361 447 b 360 444 361 446 360 444 b 353 446 357 443 353 444 l 353 447 b 354 449 354 447 354 447 l 356 449 b 358 447 357 449 357 449 z m 379 439 b 376 446 379 442 378 444 l 383 446 b 379 439 385 443 383 442 z m 342 429 l 346 428 b 347 419 346 424 346 421 l 344 417 b 332 421 342 417 332 419 b 342 429 335 424 336 425 z m 331 421 l 331 419 l 329 419 b 328 418 329 418 329 418 b 322 419 328 419 325 419 b 324 425 322 422 322 425 l 329 425 b 331 421 331 424 331 422 z m 396 413 b 396 414 394 413 394 413 b 399 411 397 414 399 415 b 396 413 399 411 397 411 z m 338 378 b 335 374 338 376 336 375 b 328 368 332 372 331 371 l 324 368 b 322 378 321 372 321 375 b 326 385 324 381 325 383 b 333 394 329 389 329 392 b 338 401 336 396 338 399 l 338 407 b 343 407 340 407 342 408 l 347 407 l 347 406 l 342 394 b 338 382 340 390 339 385 l 338 381 b 338 378 339 381 339 379 z m 368 390 b 363 388 367 389 365 388 b 357 389 360 388 357 389 b 354 390 356 389 354 390 l 353 392 l 358 399 b 363 400 360 400 361 400 b 368 394 365 399 367 396 b 368 390 369 393 369 392 z m 297 382 l 303 388 b 307 381 306 383 307 382 l 306 379 b 304 378 304 379 303 378 b 308 376 306 376 307 376 b 307 371 307 375 307 374 l 297 375 b 296 378 297 376 297 378 b 297 382 296 379 296 381 z m 272 375 l 276 375 l 281 371 b 272 369 278 369 275 369 l 271 371 z m 324 358 l 321 358 l 325 364 z m 286 347 b 276 344 283 349 279 347 b 272 353 272 346 271 349 l 274 354 b 279 360 275 356 276 358 b 283 354 281 360 282 357 b 286 347 285 350 285 349 z m 225 340 b 231 339 226 340 228 340 l 228 338 b 224 336 228 338 226 336 z m 238 338 l 240 339 b 239 333 240 336 240 335 b 238 338 236 335 236 336 z m 356 328 b 353 322 356 325 354 324 b 347 328 349 322 347 324 l 347 329 l 349 331 l 354 331 l 356 329 z m 265 317 b 271 319 267 318 268 319 l 279 317 b 281 314 281 317 281 315 l 281 310 l 279 307 b 265 317 272 306 260 308 z m 261 304 l 265 301 l 265 300 l 261 301 z m 451 217 b 453 211 453 215 453 214 l 449 213 b 451 217 449 215 450 217 z m 453 201 l 453 196 l 450 196 b 449 201 450 196 449 197 z m 221 193 b 219 190 219 193 219 192 b 208 196 215 192 211 193 b 215 199 210 199 214 199 l 218 199 b 221 196 219 199 221 197 z m 401 178 b 406 181 403 179 404 181 l 407 179 l 408 179 l 404 174 l 397 174 b 401 178 400 178 401 179 z m 115 168 l 107 168 b 110 172 107 169 108 171 l 117 172 b 118 171 117 171 117 171 z m 317 169 b 314 168 315 169 314 168 l 307 169 l 308 172 l 313 172 l 317 171 z m 300 167 b 293 161 299 165 297 164 l 293 156 b 296 154 294 154 294 154 b 300 151 297 154 299 154 l 297 151 b 290 156 292 151 290 153 b 286 163 290 157 289 160 l 286 167 b 292 168 288 167 289 168 b 300 167 293 168 296 167 z m 508 164 l 510 161 l 510 160 l 506 157 b 503 161 504 158 503 160 b 508 164 503 163 504 164 z m 471 158 l 472 158 l 471 156 l 468 157 z m 140 147 b 133 146 138 144 135 144 b 128 144 131 146 129 146 l 121 146 l 121 150 b 126 151 122 150 124 150 b 132 153 129 153 131 153 b 140 150 135 153 138 151 z m 367 150 l 367 151 l 376 151 b 386 147 378 153 383 150 b 385 144 386 146 385 146 l 379 144 b 375 143 378 143 376 143 b 365 149 368 143 365 146 b 367 150 365 149 365 150 z m 504 149 b 507 150 504 149 506 150 l 508 151 b 511 150 510 151 511 151 b 515 149 513 150 514 149 l 515 146 b 510 144 513 144 510 144 b 501 147 507 144 504 144 b 504 149 503 147 503 149 z m 46 146 b 40 144 44 146 42 146 b 39 147 40 144 39 146 b 40 150 39 149 39 150 l 49 150 b 46 146 49 147 47 147 z m 486 149 l 488 149 l 488 150 b 489 144 490 150 490 149 b 488 144 489 143 489 143 b 486 147 486 146 486 146 z m 18 143 b 15 142 17 142 15 142 l 15 144 l 19 144 z m 224 117 b 231 122 225 118 228 121 b 238 124 235 124 236 124 b 243 122 239 124 242 124 b 251 121 247 121 249 121 l 267 121 b 276 122 269 122 272 122 l 283 122 b 301 117 288 122 300 119 z m 415 124 l 421 124 b 428 122 422 124 425 124 b 444 119 433 121 439 119 l 451 119 b 461 121 453 119 456 121 b 469 122 467 121 468 122 b 510 117 479 122 508 119 l 413 117 b 415 124 414 121 414 124 z "},"3":{"ha":647,"x_min":0,"x_max":0,"o":"m 572 356 b 571 358 572 356 572 357 b 458 525 557 428 514 483 b 569 728 515 588 558 647 l 564 728 b 561 733 563 731 561 732 b 569 739 561 738 564 739 l 571 739 b 572 751 571 744 572 749 b 521 906 574 808 564 865 b 519 907 519 906 519 906 b 247 936 451 963 328 949 l 63 904 b 42 881 50 901 43 894 l 22 650 b 32 626 21 640 25 633 b 36 625 33 625 35 625 l 36 713 b 40 707 38 711 39 710 b 42 700 42 703 42 701 l 42 681 b 40 676 40 679 40 676 l 40 667 b 42 658 40 664 40 661 l 42 622 b 57 624 46 621 51 621 b 142 654 81 633 110 643 b 228 674 168 663 200 674 b 246 650 238 674 244 665 l 247 649 b 225 576 253 625 244 601 l 224 576 b 201 554 219 571 211 564 b 154 518 190 546 175 533 b 158 475 139 507 142 483 b 182 463 160 475 168 471 b 183 467 182 464 182 465 b 186 472 185 471 186 472 b 193 457 194 469 194 460 b 236 429 207 449 221 440 l 257 413 b 260 414 258 413 260 414 b 261 407 264 411 264 410 b 268 396 264 403 267 400 b 275 321 281 371 283 346 b 250 294 269 307 261 297 l 249 294 b 181 283 225 288 201 283 b 90 290 151 283 122 286 b 89 289 90 290 90 289 l 85 289 b 85 292 83 290 83 290 b 17 303 67 293 44 297 b -12 274 -1 306 -15 292 l 31 33 b 53 13 32 21 40 14 l 175 1 b 538 164 310 -10 469 38 b 572 356 569 219 581 285 z m 274 928 b 271 924 276 926 275 925 b 264 924 268 922 265 922 b 274 928 269 926 272 928 z m 363 915 l 372 910 b 368 904 369 907 368 906 b 360 901 367 901 364 901 b 350 904 356 901 353 901 b 342 911 349 907 344 910 z m 179 890 b 214 889 194 890 206 889 b 254 889 225 888 239 888 l 258 885 l 264 889 l 268 885 b 286 888 274 890 278 889 b 304 885 293 885 297 883 l 304 879 l 222 879 b 196 883 214 882 204 883 b 168 882 186 883 176 883 b 154 879 164 881 158 881 l 140 878 b 110 879 131 876 121 878 b 179 890 135 888 156 890 z m 319 885 l 319 879 l 315 885 z m 411 885 b 453 883 421 885 435 885 b 492 874 465 882 479 878 l 344 883 l 368 883 b 390 885 375 883 382 883 z m 238 847 b 186 846 219 846 203 846 b 90 840 151 846 121 844 b 101 850 93 846 96 849 b 117 850 106 851 111 851 l 133 850 b 147 858 139 850 143 853 b 183 850 157 846 171 846 b 222 847 201 853 210 854 b 271 853 238 851 253 853 b 319 853 288 851 304 851 b 350 856 329 860 336 858 b 381 858 360 851 369 849 l 385 853 l 492 858 l 493 858 b 289 847 431 847 358 847 z m 569 729 l 569 728 z m 522 724 l 526 724 l 526 719 l 521 719 b 522 724 521 721 522 724 z m 460 496 l 440 496 l 440 500 l 460 500 z m 201 464 b 196 481 199 464 196 478 l 196 492 b 194 497 193 494 193 497 b 199 494 196 497 197 496 b 204 482 200 492 203 483 b 206 478 204 479 206 479 b 210 472 207 474 208 474 b 208 469 210 471 210 471 l 204 465 b 201 464 204 465 203 464 z m 290 479 b 275 486 286 479 278 483 b 279 489 276 488 278 489 b 283 490 279 490 281 490 l 297 490 b 310 490 304 492 308 492 b 296 489 304 489 299 489 b 290 479 292 488 290 485 z m 356 485 l 356 489 l 367 489 l 367 485 z m 329 482 l 331 488 b 342 485 335 486 338 485 b 351 483 346 485 350 485 l 346 479 l 350 476 b 354 472 351 474 353 474 b 347 467 351 472 350 471 b 339 471 340 467 338 468 l 339 479 b 329 482 338 482 333 482 z m 268 485 l 276 482 l 274 479 l 268 483 z m 297 472 b 303 481 297 475 299 478 l 310 478 b 317 474 313 475 315 474 b 297 472 311 471 304 471 z m 353 458 l 353 460 b 357 463 353 461 354 463 b 361 461 360 463 361 463 l 363 461 b 367 468 365 464 367 467 b 374 474 367 469 369 471 l 374 453 b 351 457 367 451 357 454 z m 281 458 l 269 458 l 269 465 b 278 471 269 468 274 471 b 286 460 278 467 276 460 b 281 458 285 460 283 460 z m 319 460 b 324 471 322 463 324 467 b 329 469 325 471 326 471 b 333 468 329 469 331 468 b 326 460 333 465 332 463 z m 217 463 l 208 463 l 208 464 b 207 467 208 464 208 465 l 208 467 b 211 468 210 467 211 467 b 217 469 213 468 214 468 z m 239 468 l 244 467 l 242 464 l 236 464 z m 339 458 l 339 461 l 344 463 l 346 461 z m 275 446 l 264 446 l 264 447 b 260 451 263 449 261 449 b 254 457 257 454 254 456 b 261 454 256 457 258 457 b 271 457 264 453 267 454 b 269 451 271 454 271 453 b 268 449 269 450 268 449 l 275 449 z m 319 439 l 311 439 b 310 453 311 439 306 446 l 317 453 b 319 449 318 451 319 450 b 318 443 318 447 318 446 b 319 439 319 443 319 442 z m 335 447 b 329 446 333 446 332 446 l 329 447 b 328 450 329 447 329 449 b 332 451 328 450 329 450 b 335 453 333 453 335 453 b 339 447 338 451 339 449 z m 232 436 b 226 439 231 436 229 438 b 219 443 225 440 222 442 l 228 449 b 232 447 229 449 231 447 l 236 447 b 232 436 235 442 233 439 z m 253 435 b 250 436 251 435 251 436 b 244 439 247 438 246 439 b 253 442 249 442 250 442 b 253 435 257 440 257 439 z m 321 429 b 317 438 318 431 317 435 b 324 439 318 439 321 439 b 333 438 325 439 329 438 z m 243 429 l 238 429 l 238 435 l 243 435 z m 310 410 b 313 403 314 408 314 406 b 306 404 310 403 308 404 b 299 410 301 406 300 407 z m 329 396 l 326 396 b 325 407 326 396 325 400 l 326 410 l 329 410 l 329 408 b 331 404 331 406 331 404 b 332 400 331 404 332 403 b 329 396 332 397 331 396 z m 297 388 l 293 388 l 293 397 l 294 396 l 296 396 l 299 393 b 301 389 300 392 301 390 b 297 388 300 389 299 388 z m 360 374 l 356 374 b 363 382 356 378 358 379 l 367 379 b 368 378 367 379 367 378 l 368 375 l 363 375 b 360 374 363 375 361 375 z m 347 360 l 358 357 l 358 354 l 347 356 z m 400 328 l 403 335 l 411 335 b 414 333 413 333 413 333 l 414 332 l 415 332 b 417 329 417 332 417 331 b 410 322 417 325 414 322 b 400 328 403 322 400 325 z m 363 332 l 360 328 l 354 329 l 358 333 z m 368 297 l 378 297 b 382 293 378 297 379 294 b 381 292 382 293 382 292 l 381 290 b 379 288 379 290 379 289 l 371 288 b 369 289 369 288 369 288 l 368 289 b 367 290 367 289 367 290 z m 426 286 b 421 285 425 286 424 285 b 419 290 421 286 421 288 b 422 294 419 292 421 293 b 426 293 424 294 426 293 b 433 292 426 293 429 293 z m 400 276 b 399 275 400 275 399 275 l 397 274 l 396 274 l 393 271 b 390 269 392 269 392 269 b 381 279 388 271 379 274 b 392 281 383 281 388 281 l 394 282 l 396 282 b 400 283 397 283 397 283 z m 393 236 l 393 232 l 386 232 b 385 231 386 231 386 231 b 378 233 383 231 381 232 l 375 233 l 375 235 b 367 236 369 235 367 236 b 358 238 363 236 361 236 b 356 239 357 238 356 238 l 356 240 l 354 242 l 354 246 b 358 247 354 247 356 247 b 368 246 360 247 364 247 b 374 244 371 244 372 244 l 375 243 b 379 246 376 243 378 244 l 382 247 l 382 249 b 385 250 383 249 383 249 b 394 239 392 244 394 242 b 393 236 394 238 394 236 z m 422 242 l 422 239 l 411 239 b 415 246 414 240 415 242 l 424 246 b 422 242 424 243 424 242 z m 414 236 l 414 228 l 408 228 l 408 236 z m 351 213 l 351 217 b 358 222 351 218 354 221 l 363 225 b 368 226 365 225 367 226 l 381 226 l 381 222 b 375 217 381 221 379 219 b 367 213 371 214 368 213 z m 414 201 l 410 200 b 404 210 406 204 404 207 b 411 218 404 214 406 217 b 421 208 415 215 421 210 b 414 201 421 206 418 203 z m 382 210 l 382 204 b 368 204 378 203 372 203 l 368 208 l 374 213 l 378 213 b 382 210 381 213 382 211 z m 354 186 l 354 185 b 349 183 353 183 351 183 l 349 189 b 351 193 349 190 350 192 b 354 192 353 192 354 192 l 354 190 b 356 186 354 189 356 188 z m 310 169 l 311 169 b 313 171 311 169 311 171 b 317 163 314 171 317 168 b 306 165 313 163 310 164 z m 368 169 l 382 171 l 382 169 b 383 165 382 168 383 167 z m 324 149 l 318 149 l 321 157 b 332 153 325 157 329 156 b 324 149 332 150 328 149 z m 300 149 l 294 149 l 294 154 l 300 154 z m 31 133 b 28 139 33 133 31 138 b 47 138 33 146 38 143 b 39 135 46 136 43 135 b 31 133 35 133 33 133 z m 61 142 l 64 140 b 65 139 65 140 65 139 l 65 138 b 63 136 65 138 64 136 b 58 140 58 135 58 136 z m 317 121 b 315 126 315 124 315 125 b 317 128 315 128 315 128 l 326 128 z m 72 124 b 78 118 74 124 76 121 b 67 119 69 117 67 118 l 64 117 l 61 117 l 60 118 l 64 124 b 68 125 65 124 67 124 b 72 124 69 125 71 125 z m 47 106 l 40 107 l 40 110 l 49 107 z m 100 89 l 99 89 b 92 90 96 89 94 90 l 85 93 l 69 97 b 68 96 68 97 68 97 b 60 99 67 94 64 96 b 53 104 58 100 57 101 l 53 107 b 65 107 57 107 61 108 b 74 104 72 106 75 103 b 82 101 78 103 81 101 b 85 99 83 100 85 100 b 94 94 85 96 89 94 b 101 94 96 96 99 94 l 101 90 b 100 89 100 90 100 89 z m 151 103 b 150 101 151 103 150 103 b 150 107 144 101 149 107 l 151 107 b 153 106 151 106 151 106 b 151 103 153 104 153 103 z m 115 100 b 117 103 115 100 115 101 l 117 106 l 119 106 b 125 104 121 104 121 104 l 122 99 l 121 97 l 115 99 z m 125 89 l 113 89 l 114 94 b 122 94 117 100 119 97 b 126 90 122 93 125 93 z m 68 90 l 68 92 b 67 93 67 92 67 92 l 69 94 b 68 90 69 93 69 92 z m 147 86 b 139 90 143 86 140 88 l 150 90 b 147 86 149 90 147 89 z m 90 78 b 85 75 89 76 86 75 b 76 81 78 75 76 75 b 79 85 76 82 78 85 l 81 85 l 90 82 b 92 81 90 82 90 81 b 90 78 92 81 92 79 z m 104 53 l 101 53 l 103 54 l 103 56 b 104 57 103 56 103 57 l 107 54 b 104 53 106 54 104 53 z "},"4":{"ha":694,"x_min":0,"x_max":0,"o":"m 610 433 l 531 433 l 557 846 b 451 968 563 919 531 972 l 294 960 b 272 946 283 960 276 954 l 122 639 b 51 481 100 590 76 539 b 13 382 38 447 24 414 b -10 315 4 360 -4 336 l -10 310 b -11 306 -11 308 -11 308 b -4 304 -8 304 -7 304 l -4 300 l -6 299 l -12 299 b -10 232 -15 276 -14 254 b 97 169 3 179 47 164 l 300 188 l 297 26 b 324 0 297 11 308 0 l 492 0 b 517 25 508 0 517 8 l 524 203 l 604 208 b 628 233 618 210 626 218 l 635 407 b 610 433 636 419 624 433 z m 415 831 l 419 831 b 418 828 419 829 419 828 l 418 824 l 410 824 l 407 832 b 415 831 411 832 415 831 z m 399 826 b 406 825 403 826 404 826 b 411 821 407 822 408 822 b 397 818 404 819 400 818 z m 240 818 b 250 821 243 818 246 819 b 247 817 249 819 247 818 b 253 813 247 815 249 814 b 249 810 251 811 250 810 l 236 810 l 233 813 b 240 818 235 817 238 818 z m 333 793 l 344 793 l 344 789 l 333 789 z m 394 792 l 400 792 b 408 785 406 792 408 790 l 397 785 b 388 783 393 785 390 785 l 386 790 b 394 792 389 790 392 792 z m 421 768 l 411 768 l 411 775 l 413 776 l 413 778 b 426 778 417 779 421 779 b 421 768 426 774 424 771 z m 389 765 l 393 761 l 388 758 l 385 764 z m 400 736 l 399 739 b 396 740 397 739 397 739 b 399 742 396 742 397 742 b 400 746 400 743 400 744 b 400 736 404 742 404 739 z m 208 729 b 197 735 203 732 199 733 l 201 739 b 204 736 203 738 204 738 b 208 735 206 736 207 736 z m 372 738 l 379 738 l 379 733 l 372 733 z m 415 724 b 417 731 415 726 415 729 l 418 732 b 422 731 421 732 422 732 b 426 729 424 731 425 731 b 415 724 425 726 421 724 z m 314 726 l 325 726 l 325 722 l 314 722 z m 363 724 b 369 725 364 725 367 725 l 378 725 l 375 718 b 363 724 368 721 364 722 z m 354 711 l 344 710 l 340 714 l 354 717 z m 399 715 l 399 708 l 389 708 l 389 715 z m 411 699 l 403 704 b 406 706 404 706 404 706 l 406 707 l 411 707 b 421 701 417 707 421 706 z m 363 696 l 363 704 l 374 704 l 374 701 b 375 697 374 700 375 699 z m 379 700 l 379 704 l 388 704 l 388 700 z m 360 689 l 365 689 l 365 683 l 360 683 z m 176 679 b 175 681 176 681 175 681 l 175 685 b 179 686 178 686 178 686 l 183 686 b 186 685 185 685 185 685 b 189 683 186 685 188 683 l 189 681 b 178 678 186 679 182 678 z m 417 674 l 406 674 l 403 679 b 414 683 406 682 410 683 z m 400 626 l 400 632 l 422 629 z m 399 619 l 404 624 b 408 622 406 624 407 624 l 413 619 b 407 615 413 617 411 615 l 404 615 b 399 619 403 617 401 618 z m 408 606 l 415 603 l 414 600 l 408 601 z m 390 592 l 400 592 b 388 588 397 588 392 588 b 390 592 390 590 390 590 z m 411 574 b 401 572 408 572 406 572 l 399 578 b 403 579 400 579 403 579 b 406 581 404 579 406 581 b 407 582 406 581 406 582 l 410 578 l 414 582 l 422 582 b 414 575 422 575 419 574 b 410 576 414 575 413 576 z m 515 561 b 507 565 511 561 508 564 l 507 567 b 510 568 508 567 508 567 l 518 568 l 521 567 b 515 561 521 565 518 561 z m 410 551 l 392 550 b 394 560 392 554 393 558 l 403 560 b 408 557 404 560 406 558 l 410 557 z m 276 431 b 322 547 293 474 307 513 l 324 547 b 326 558 324 550 325 554 l 318 432 z m 467 550 b 465 549 465 550 465 550 l 461 549 b 465 551 463 550 464 551 b 469 553 465 553 467 553 b 467 550 468 551 467 551 z m 489 550 l 494 547 l 494 546 l 488 549 z m 446 546 b 444 546 446 544 444 544 b 443 549 443 547 443 547 b 446 546 443 549 449 547 z m 415 543 l 415 547 l 426 546 b 422 540 425 543 424 542 b 415 543 418 536 415 540 z m 392 525 b 388 533 389 528 388 531 b 392 535 389 533 390 533 l 397 535 l 401 531 b 392 525 399 528 396 525 z m 490 518 b 483 526 483 518 483 524 b 488 529 483 528 485 529 b 500 529 490 531 496 533 l 503 526 b 490 518 503 521 494 518 z m 350 499 l 350 506 l 361 506 l 361 501 b 360 499 360 500 360 499 z m 496 499 l 488 500 b 490 503 488 501 489 503 l 496 503 l 496 501 b 497 500 496 501 497 501 z m 129 493 l 128 489 l 124 489 l 119 494 z m 374 486 l 365 486 l 365 490 l 374 490 z m 336 467 b 331 465 333 467 332 465 l 329 475 l 336 481 b 347 474 338 479 347 475 b 340 468 347 471 344 469 b 336 467 340 468 339 468 z m 425 476 b 419 475 422 476 421 476 b 418 478 419 475 419 476 b 419 481 418 478 418 479 b 422 479 419 479 421 479 l 428 479 b 425 476 428 478 426 476 z m 132 469 b 125 474 129 471 126 472 l 132 478 l 140 467 b 132 469 138 467 135 468 z m 396 472 l 394 472 l 394 475 b 399 474 397 475 399 475 b 396 472 397 474 397 474 z m 126 460 b 119 454 122 460 118 456 l 119 453 l 111 457 b 114 468 110 461 111 464 b 117 469 114 468 115 468 l 121 469 b 125 468 122 469 124 469 l 129 465 l 132 461 b 126 460 131 460 129 460 z m 346 438 l 346 449 b 350 446 349 446 350 444 b 354 440 353 444 354 443 b 347 436 354 435 351 436 b 346 438 346 436 346 436 z m 357 433 l 357 438 b 365 443 357 442 361 443 b 369 436 368 442 369 439 l 365 433 z m 329 421 b 318 428 322 421 318 424 l 329 428 z m 357 422 l 363 422 l 363 415 l 357 415 z m 217 414 b 219 415 218 415 219 415 b 222 414 221 415 222 414 l 224 414 b 218 411 221 413 219 411 l 218 414 z m 40 401 b 36 403 39 403 38 403 b 33 407 35 403 33 404 l 43 407 b 44 406 43 406 43 406 b 40 401 44 404 43 403 z m 199 385 b 192 386 196 385 194 385 l 192 389 l 196 393 b 206 388 201 392 206 389 b 199 385 204 385 201 385 z m 358 379 b 360 383 358 381 358 382 b 363 388 360 385 361 386 b 371 385 365 388 368 386 b 358 379 368 382 364 379 z m 122 347 l 125 350 l 125 349 l 126 347 z m 388 342 b 383 343 386 342 385 342 l 382 344 l 379 344 b 382 346 381 346 381 346 b 385 347 382 346 383 347 b 388 349 385 347 386 349 b 389 344 389 347 389 346 b 388 342 388 344 388 343 z m 253 344 l 250 342 b 247 346 246 342 246 343 z m 72 328 l 61 328 b 60 331 60 328 60 329 b 65 336 60 333 63 335 b 71 335 67 335 69 335 b 75 331 74 333 75 332 b 72 328 75 331 75 329 z m 194 328 l 192 331 l 194 333 b 201 331 196 333 199 332 b 194 328 200 329 197 328 z m 214 321 b 213 325 213 321 213 322 b 218 324 214 324 217 324 b 225 322 221 324 224 324 b 219 321 222 321 221 321 z m 254 286 l 251 286 b 242 293 246 286 242 292 b 243 299 242 296 242 297 b 260 292 249 294 254 292 b 254 286 257 288 256 286 z m 236 276 b 235 275 235 276 235 276 l 231 275 b 225 278 228 275 226 276 b 225 283 224 278 221 282 b 229 285 226 283 228 285 b 233 283 232 285 233 285 l 236 283 l 236 279 b 236 276 238 278 236 278 z m 189 274 b 190 275 189 274 189 275 b 192 278 190 278 192 278 b 194 275 192 276 193 276 b 200 274 196 275 197 275 b 189 274 197 272 193 272 z m 96 268 b 94 265 96 267 94 265 b 92 267 94 265 93 267 b 88 268 90 267 89 268 l 88 272 l 96 272 z m 382 239 l 379 239 b 378 240 379 240 378 240 l 378 246 b 385 244 382 250 383 249 b 388 242 385 244 386 244 b 382 239 388 239 386 239 z m 367 217 b 363 208 367 211 365 208 b 350 217 354 208 350 211 b 361 222 350 219 358 222 b 367 217 368 222 367 218 z m 304 203 b 301 199 304 201 303 200 b 294 203 296 199 294 200 b 296 206 294 204 294 206 l 296 207 l 303 207 b 304 206 303 207 303 206 z "},"5":{"ha":672,"x_min":0,"x_max":0,"o":"m 571 521 b 597 336 597 465 606 404 l 597 335 b 382 49 581 218 525 101 b 121 4 301 19 206 8 l 50 0 b 22 21 35 0 25 7 l -12 219 b 13 250 -15 235 -4 250 b 163 257 78 250 131 251 b 292 314 208 265 258 279 b 301 447 331 353 336 417 b 214 457 281 464 239 460 b 97 433 178 451 139 443 b 13 476 42 419 17 449 b 11 517 10 490 10 504 l 60 876 b 65 875 61 876 63 876 b 74 882 69 874 72 876 b 139 878 96 879 118 878 b 206 879 161 878 183 878 b 272 882 228 879 250 881 b 336 878 292 882 313 881 l 353 867 l 351 872 b 367 876 356 872 361 874 b 399 885 379 881 388 883 b 414 879 404 885 410 883 l 414 886 b 296 889 375 889 336 890 b 108 882 213 883 163 883 l 61 882 l 67 926 b 90 947 68 939 76 947 l 518 972 b 539 964 525 972 532 969 b 546 944 544 957 546 951 l 533 758 b 510 733 533 743 525 735 l 278 715 l 272 658 b 414 657 318 664 369 667 l 415 657 b 571 521 486 639 539 593 z m 478 883 b 472 892 478 890 475 893 b 469 882 458 888 463 881 b 478 883 472 883 474 883 z m 333 583 l 349 583 b 346 593 347 586 346 589 l 335 593 l 335 589 l 333 586 z m 379 579 b 368 585 375 579 372 582 b 363 579 368 582 367 579 b 379 579 368 575 374 575 z m 351 574 b 343 579 351 576 349 579 l 343 578 l 340 575 l 340 572 l 346 572 b 351 574 347 572 350 572 z m 275 571 b 269 574 274 572 272 572 b 264 578 267 576 264 576 l 254 572 l 254 567 b 257 565 256 567 256 565 l 261 565 b 268 568 263 565 265 567 b 275 571 269 568 272 569 z m 340 553 b 333 561 339 556 336 558 b 326 569 331 563 328 567 l 318 551 b 326 549 322 550 325 549 b 333 546 328 549 331 549 b 340 553 333 549 336 551 z m 400 564 l 400 569 l 389 567 l 389 563 z m 401 554 l 401 556 l 400 556 l 400 557 b 399 558 399 557 399 557 l 397 558 b 396 560 397 560 397 560 b 396 550 392 557 392 554 l 397 551 l 400 551 b 401 554 400 551 401 553 z m 267 529 b 264 535 267 531 265 532 b 257 544 263 538 261 540 b 258 540 257 543 257 542 b 260 538 258 540 260 539 b 258 532 261 536 261 533 b 257 524 257 528 257 525 b 261 522 257 524 258 524 l 264 522 b 265 525 264 522 264 524 l 267 526 z m 335 532 l 335 540 l 329 540 l 329 532 z m 340 522 l 353 522 b 350 532 351 524 350 528 b 340 522 343 529 340 526 z m 228 521 l 228 526 l 225 526 l 225 521 z m 346 488 b 343 489 346 490 344 490 l 340 489 l 342 490 b 344 494 342 492 342 493 l 344 499 b 343 500 344 499 344 500 l 343 501 l 342 503 b 336 504 340 503 339 503 l 333 501 l 331 500 b 329 496 331 499 329 497 b 328 493 328 494 328 494 b 335 483 328 490 331 486 b 333 478 335 482 335 481 l 328 472 b 331 468 329 471 331 469 l 338 468 b 342 471 340 468 342 469 b 344 476 342 471 342 472 b 339 485 340 482 339 483 l 344 485 l 344 486 b 346 488 344 486 344 488 z m 164 496 l 161 501 l 158 501 l 161 496 z m 514 446 b 510 451 514 449 513 450 l 510 440 b 514 446 513 443 514 444 z m 331 440 l 346 440 b 343 444 346 442 344 443 l 338 450 l 333 444 b 331 440 332 443 331 442 z m 353 436 b 343 438 350 438 347 438 l 340 436 l 338 436 b 336 435 338 436 338 435 l 336 432 b 335 431 335 432 335 432 b 339 429 336 429 338 429 l 343 426 b 353 436 346 428 349 431 z m 514 429 l 514 433 b 508 426 508 432 507 429 b 504 418 510 424 508 421 l 504 415 b 510 413 506 415 507 415 b 510 418 511 414 511 415 b 511 425 508 421 510 424 b 513 428 511 426 511 426 b 514 429 514 428 514 428 z m 411 413 b 400 419 411 415 407 417 b 394 417 397 417 394 417 l 394 407 b 400 408 396 407 397 408 l 403 410 b 411 413 406 410 408 411 z m 426 406 l 424 413 b 419 411 422 413 421 411 l 415 411 l 415 403 l 421 403 b 426 406 422 403 425 404 z m 353 396 l 358 400 b 357 404 358 401 358 403 l 351 408 l 351 401 b 353 396 351 400 351 399 z m 514 400 b 513 404 514 401 513 403 b 510 408 511 404 511 406 l 504 408 b 504 393 504 401 503 396 l 504 378 b 510 376 506 378 507 378 l 513 378 l 507 383 b 514 400 510 385 514 396 z m 561 407 b 560 403 560 406 558 404 l 560 397 b 561 404 563 399 561 401 z m 510 353 l 510 358 l 504 358 b 507 356 504 357 506 357 b 510 353 508 356 508 354 z m 513 304 b 504 317 513 311 513 311 b 511 319 506 318 507 319 l 510 343 b 508 338 508 342 508 339 l 508 332 b 504 329 507 329 506 329 b 501 328 503 329 503 329 b 500 326 501 328 500 328 l 500 313 b 501 299 500 314 501 310 b 508 296 504 299 507 297 b 503 294 506 294 504 294 l 501 294 b 500 289 501 293 500 292 b 499 285 499 288 499 285 b 507 276 499 282 506 278 l 508 276 b 510 278 508 278 508 278 b 503 283 508 279 507 281 b 510 286 506 285 508 286 b 513 304 510 293 513 304 z m 504 265 l 510 265 l 510 272 b 503 274 507 272 506 274 l 501 274 l 500 272 l 500 268 l 501 267 b 504 265 503 267 504 265 z m 501 207 l 501 211 l 493 211 l 493 207 b 501 207 496 206 499 206 z m 490 172 l 490 169 l 494 169 l 494 172 z "},"6":{"ha":694,"x_min":0,"x_max":0,"o":"m 610 454 b 568 575 604 500 590 540 b 349 667 524 646 442 685 l 436 861 b 425 894 443 875 439 888 l 274 969 b 239 958 258 978 247 974 l 157 801 l 140 768 l 89 657 b 57 586 76 632 67 608 l 56 547 b 50 553 56 549 54 550 b 53 560 51 554 53 557 b 51 569 51 563 51 565 l 51 571 b -10 360 24 503 0 429 b 76 65 -24 250 -7 142 l 72 81 b 111 79 90 79 104 79 b 138 81 121 79 129 81 b 163 82 146 82 154 82 b 200 76 174 82 186 81 b 232 83 211 81 222 83 b 261 79 240 83 250 82 b 386 81 332 79 346 79 l 469 81 b 546 176 497 107 522 139 b 610 454 599 263 619 356 z m 203 835 l 210 846 b 217 858 213 850 215 854 b 238 914 224 868 233 889 b 246 939 238 921 240 931 l 254 953 l 260 933 l 219 851 l 194 783 l 172 704 l 160 706 l 172 735 l 171 735 l 171 738 l 174 738 b 172 756 175 743 174 749 b 167 763 171 760 168 763 l 188 807 b 203 835 193 818 199 828 z m 246 783 l 261 757 l 254 765 l 246 775 l 246 782 z m 261 757 l 268 744 b 261 749 265 746 264 746 z m 211 746 b 218 740 215 744 217 742 l 221 736 l 214 736 b 211 746 213 736 213 740 z m 167 744 b 163 736 167 740 165 739 b 160 740 161 739 160 739 b 157 744 158 743 158 744 z m 183 732 l 182 735 l 204 735 l 201 732 b 193 729 199 729 196 729 b 183 732 190 729 188 729 z m 221 725 b 219 731 221 728 221 729 b 222 733 219 731 219 732 b 231 729 224 733 228 732 b 221 725 228 728 225 728 z m 189 722 b 178 724 185 719 181 719 b 189 722 182 725 185 725 z m 157 658 l 168 658 l 168 651 l 157 651 z m 214 647 l 225 647 l 225 640 l 214 640 z m 229 603 b 222 613 225 606 222 608 b 229 603 232 610 235 607 z m 207 608 l 214 608 l 214 600 l 207 600 z m 183 594 l 196 594 b 183 594 194 590 190 588 z m 235 592 l 254 592 b 235 592 250 588 243 588 z m 221 575 l 210 575 l 210 582 l 221 582 z m 153 575 b 167 578 156 576 158 578 l 167 575 b 168 568 167 574 168 571 l 153 568 z m 156 549 l 156 557 b 161 547 164 553 167 550 z m 178 551 l 178 544 l 168 544 l 168 551 z m 50 542 b 56 544 50 543 51 543 l 56 546 l 56 536 b 53 540 56 538 54 539 b 50 542 51 542 50 542 z m 271 533 b 274 532 272 533 274 533 b 276 531 274 531 275 531 b 278 525 278 529 278 528 l 269 525 l 269 528 b 271 533 268 529 269 531 z m 163 528 b 168 519 167 525 168 522 l 156 519 b 163 528 157 524 160 526 z m 57 518 l 63 518 l 63 507 l 57 507 z m 203 507 l 194 507 l 194 517 l 203 517 z m 144 515 l 144 507 l 136 507 l 136 515 z m 57 499 l 63 499 l 63 483 l 57 483 z m 335 293 b 317 267 331 285 325 276 b 254 282 303 247 271 238 b 263 401 243 314 256 369 b 310 476 269 424 283 468 b 329 478 314 478 321 479 l 331 478 b 354 461 342 476 350 471 b 364 408 361 446 364 428 b 335 293 364 367 354 329 z m 117 460 b 128 471 119 465 122 468 l 132 464 b 117 460 126 461 124 461 z m 146 463 l 154 465 l 157 460 l 146 457 z m 278 464 l 274 458 b 278 464 275 461 276 463 z m 136 443 l 133 456 b 144 453 139 456 143 454 b 150 450 147 451 150 451 l 161 446 l 156 446 b 153 444 154 444 154 444 l 151 444 b 136 443 147 444 142 443 z m 168 428 l 168 422 l 156 422 l 156 428 z m 63 422 l 63 418 l 57 414 z m 172 401 l 164 401 l 164 410 l 172 410 z m 156 382 b 154 371 157 379 156 375 l 146 376 b 156 382 146 379 150 382 z m 218 354 l 210 354 l 210 361 l 218 361 z m 531 347 l 528 347 l 528 353 l 531 353 z m 522 317 l 526 317 b 524 315 526 315 525 315 b 522 314 522 315 522 314 z m 531 294 b 524 292 528 293 526 292 b 515 294 521 292 518 293 b 526 301 518 301 521 301 b 531 300 528 301 529 300 z m 157 289 l 149 289 l 149 297 l 157 297 z m 160 275 l 160 285 b 172 281 165 285 168 283 b 160 275 171 279 171 279 z m 500 263 l 493 263 l 494 267 l 501 267 b 500 263 501 267 500 264 z m 186 250 l 175 250 l 175 257 l 186 257 z m 74 213 l 63 211 b 68 238 67 221 68 231 l 68 244 b 71 239 68 242 69 240 b 74 213 75 231 76 222 z m 65 139 l 71 140 l 72 131 z m 68 101 l 72 117 l 74 101 z m 397 65 b 393 67 396 67 394 67 b 388 68 390 67 389 68 b 382 67 383 69 382 68 l 371 68 b 349 72 361 72 354 74 b 322 71 343 72 333 71 b 292 69 311 68 301 68 b 249 72 271 71 256 72 b 217 69 233 72 231 72 b 175 64 210 68 196 67 l 167 71 b 164 68 165 71 165 69 b 161 65 163 67 163 65 b 153 72 160 65 157 68 b 131 69 144 71 138 69 l 108 69 b 78 63 90 68 83 67 b 82 60 79 63 81 61 b 322 6 149 0 238 -8 b 451 67 368 14 411 35 l 444 67 b 397 65 436 68 417 69 z "},"7":{"ha":651,"x_min":0,"x_max":0,"o":"m 471 346 b 411 36 450 242 431 139 b 389 15 408 24 401 17 l 201 0 b 175 31 183 0 171 14 b 253 426 199 161 224 294 b 314 686 275 513 294 599 l 18 603 b -14 629 0 599 -14 611 l -1 872 b 18 894 -1 885 6 893 l 257 938 b 396 958 303 946 350 954 b 557 919 449 963 517 960 b 588 796 590 886 596 840 b 549 643 578 743 564 693 b 471 346 517 546 490 444 z m 164 867 l 169 865 l 171 867 l 164 869 z m 410 858 l 400 858 b 390 857 394 860 392 858 b 397 854 392 856 393 854 b 404 850 400 853 403 851 b 406 853 406 851 406 853 b 410 858 407 853 410 856 z m 458 846 l 458 840 l 474 840 l 474 846 z m 264 833 l 264 839 l 256 839 l 256 833 z m 450 824 l 444 838 b 429 832 440 838 433 833 l 429 821 b 439 822 432 821 435 822 b 450 824 444 824 447 824 z m 231 818 l 231 825 l 222 832 l 214 832 b 213 815 211 825 210 821 b 225 814 218 815 222 815 z m 260 822 l 256 825 l 254 826 b 235 813 244 824 239 817 b 243 808 236 813 238 810 l 250 808 b 260 822 247 815 254 819 z m 208 819 l 208 824 l 197 824 l 197 819 z m 233 810 l 215 814 l 215 807 z m 335 813 l 335 808 l 344 808 l 344 813 z m 372 811 l 354 811 b 360 807 354 810 356 808 b 368 803 363 806 365 806 b 369 808 368 804 368 806 z m 253 801 l 249 804 l 242 807 b 238 804 240 806 239 804 l 235 801 b 238 796 235 799 236 796 l 239 793 l 249 793 l 249 794 b 251 797 250 797 251 799 b 253 801 251 799 253 800 z m 268 793 l 268 803 l 264 803 l 261 804 l 258 804 b 263 789 253 797 250 793 z m 228 786 l 228 790 l 221 790 l 221 786 z m 231 772 l 229 774 b 224 775 226 775 225 775 l 222 775 l 222 774 l 221 772 l 222 769 b 226 768 224 768 225 768 b 228 769 226 769 228 769 z m 414 767 l 419 763 l 424 765 l 417 769 z m 396 746 b 396 757 401 750 401 754 b 390 754 392 756 389 754 b 386 753 388 754 386 753 b 390 750 386 751 388 750 b 396 746 393 747 396 746 z m 392 740 l 392 736 l 403 740 l 401 744 z m 413 664 l 396 667 l 396 663 l 410 658 z m 347 589 l 347 583 l 357 583 l 357 589 z m 376 557 l 378 551 l 392 553 l 392 557 z m 426 488 l 429 482 l 442 490 l 439 494 z m 364 485 l 346 483 l 347 467 b 361 476 353 468 357 472 b 364 485 363 479 365 482 z m 415 479 l 417 468 l 424 469 l 424 481 z m 408 465 l 410 457 l 415 457 l 415 465 z m 451 419 l 453 428 b 449 424 450 426 449 425 b 451 419 446 422 447 421 z m 447 397 l 449 400 b 446 407 444 403 444 406 b 444 414 447 410 447 413 l 443 413 l 442 413 l 442 411 b 443 408 442 410 442 408 b 444 406 444 408 444 407 l 444 401 b 443 396 442 400 442 399 b 447 397 444 397 446 397 z m 396 400 b 393 396 396 399 394 397 l 393 392 l 394 392 l 397 396 b 396 400 399 397 399 399 z m 446 392 l 439 392 b 438 390 439 390 439 390 b 436 386 436 389 436 388 b 435 379 435 386 435 383 b 436 371 435 375 435 372 b 432 369 433 369 432 369 b 429 368 431 369 431 369 l 432 365 b 438 367 433 367 435 367 b 442 379 439 369 440 375 b 446 392 442 383 444 388 z m 431 351 l 426 353 l 426 347 b 429 350 426 349 428 349 b 431 351 431 350 431 350 z m 379 340 l 356 340 b 375 332 358 338 369 332 b 379 340 375 336 376 338 z m 426 324 b 421 329 425 325 425 326 l 424 339 l 415 321 b 419 317 418 321 419 319 l 411 313 b 410 308 411 313 411 311 b 408 301 408 307 408 304 b 407 293 408 300 408 297 b 413 290 408 293 410 292 b 407 288 410 289 408 288 b 406 285 406 286 406 285 b 407 283 406 283 407 283 b 413 288 408 285 411 285 b 417 290 415 288 417 289 l 417 294 b 417 299 415 294 417 296 l 415 299 b 411 300 414 299 413 299 b 417 301 413 301 414 301 b 426 324 419 307 424 315 z m 293 315 l 271 315 b 264 306 268 311 267 308 b 261 296 263 303 261 300 b 268 288 261 292 263 289 b 276 288 272 286 275 286 l 272 294 b 272 300 271 297 271 299 b 274 299 274 300 275 300 b 279 297 274 299 275 297 b 290 304 283 297 288 300 b 293 315 293 310 293 314 z m 347 278 b 346 294 349 282 346 290 l 319 217 l 339 213 l 339 214 b 340 217 339 214 340 215 l 339 231 b 340 235 339 232 339 233 b 342 239 342 236 342 238 b 340 242 342 240 342 242 b 344 257 344 247 346 251 b 347 278 343 263 344 269 z m 413 281 l 411 281 b 404 282 407 282 406 282 l 401 275 l 408 275 b 411 276 408 275 410 276 z m 406 260 l 403 261 l 401 257 l 404 257 z m 401 249 l 399 249 l 397 247 l 400 246 z m 401 229 l 393 231 l 393 228 b 400 225 393 226 396 225 z m 351 201 b 351 208 353 204 353 207 b 349 217 350 208 349 211 b 346 211 347 215 347 213 b 344 206 344 210 344 208 b 346 196 342 204 343 199 l 347 196 b 351 201 350 196 351 197 z "},"8":{"ha":671,"x_min":0,"x_max":0,"o":"m 224 914 b 243 913 229 914 236 914 b 265 915 253 910 260 911 b 396 917 311 915 356 917 l 442 917 b 489 915 457 915 472 915 l 482 919 b 293 954 425 953 357 958 b 156 913 244 950 197 938 l 171 913 b 224 914 183 913 200 914 z m 586 396 b 500 510 569 443 538 479 b 496 511 497 510 496 510 l 496 513 b 494 514 494 513 494 514 b 493 515 493 514 493 514 b 519 546 499 521 508 532 b 565 626 540 568 556 596 b 583 721 578 654 583 686 b 519 890 583 793 563 850 b 469 888 508 890 492 889 b 353 888 432 885 393 885 b 463 893 388 893 411 893 b 519 892 488 893 506 893 b 503 906 515 896 510 900 l 485 906 b 428 903 472 906 453 904 l 422 907 b 350 906 393 906 368 906 b 304 903 332 903 315 903 b 236 901 278 901 268 901 l 190 901 b 142 903 176 901 161 901 b 31 674 68 846 31 769 b 64 550 31 631 42 589 b 106 488 75 531 89 510 b 14 368 64 450 33 411 b 7 225 14 321 11 274 b 8 354 8 274 8 315 b 88 49 -35 249 -17 118 b 397 24 157 3 269 -26 b 529 122 450 46 493 79 b 442 118 504 122 475 119 b 303 111 396 113 350 110 b 306 118 303 114 303 117 b 307 126 308 119 310 122 b 369 126 325 128 346 129 b 432 124 392 125 413 124 l 463 128 b 492 126 475 128 485 128 l 506 126 b 521 125 511 125 517 125 l 532 125 b 551 153 538 133 544 142 l 553 153 l 553 154 b 594 271 575 190 589 229 b 586 396 603 317 600 358 z m 328 888 b 332 883 329 888 331 886 l 317 885 b 322 886 319 885 322 886 b 328 888 324 888 326 888 z m 450 853 l 457 851 l 457 850 l 450 851 z m 254 819 b 264 815 257 819 261 817 b 267 814 265 815 265 814 b 276 813 268 814 272 813 l 276 807 l 272 803 b 261 808 265 807 261 808 l 249 815 b 254 819 249 818 250 819 z m 350 818 b 353 815 351 815 353 815 l 349 815 z m 364 815 l 364 814 l 360 810 l 360 813 b 357 815 358 813 357 814 z m 296 811 b 301 807 297 811 300 810 b 304 801 301 806 303 804 l 303 800 b 293 806 299 801 296 803 b 296 811 292 806 293 810 z m 357 796 l 357 800 b 365 803 358 801 363 803 b 368 801 367 803 368 803 b 372 800 368 801 369 801 l 372 796 b 364 793 367 794 365 793 z m 415 781 b 425 774 419 781 424 779 b 428 765 426 769 426 767 b 431 764 428 764 429 764 l 433 761 b 431 757 433 758 433 757 l 425 757 b 414 771 417 757 414 767 l 415 772 b 417 775 417 772 417 774 l 413 779 b 415 781 414 781 414 781 z m 394 769 b 404 763 401 768 404 765 b 394 756 404 757 397 756 b 389 758 392 756 390 756 b 388 763 388 761 388 763 b 394 769 388 765 389 768 z m 339 636 b 338 635 338 636 338 635 l 338 685 l 336 685 b 292 644 329 658 314 644 b 265 654 279 644 269 647 b 261 692 260 663 258 675 b 285 735 265 704 272 725 b 336 725 300 743 324 739 l 339 721 l 339 726 b 344 715 340 724 344 717 l 342 692 l 342 667 b 343 658 342 664 342 661 l 343 646 b 342 636 343 644 343 642 b 339 636 342 635 340 635 z m 413 722 l 415 725 b 421 722 418 725 419 724 l 421 717 b 418 715 421 715 419 715 l 413 715 z m 422 708 l 425 708 l 425 710 l 426 710 b 425 703 428 707 428 704 l 425 706 b 422 708 422 706 422 707 z m 399 704 b 400 706 399 706 399 706 b 403 707 400 706 401 706 b 404 706 403 707 404 707 l 407 706 b 400 704 407 701 403 701 z m 438 688 l 436 683 b 435 685 436 683 435 683 l 429 685 b 425 686 426 685 425 685 l 425 688 b 426 689 425 688 425 689 b 429 694 426 692 428 693 l 433 694 b 435 690 433 693 435 692 b 438 688 435 689 436 688 z m 481 693 b 482 694 481 693 482 693 b 483 690 483 694 486 692 b 482 692 483 690 483 692 l 481 692 z m 414 688 l 421 689 b 422 686 422 688 422 686 l 422 682 l 415 682 l 415 685 b 414 688 414 685 414 686 z m 440 675 l 443 675 b 443 665 442 671 442 668 l 443 653 b 444 651 443 651 444 651 b 444 650 446 651 446 651 b 443 646 444 649 444 647 b 440 640 442 643 440 642 b 436 639 439 640 438 639 b 433 642 436 640 435 642 b 432 646 432 643 432 644 l 432 654 b 433 660 433 656 433 657 b 435 663 433 661 433 663 b 436 669 438 665 438 667 b 433 675 435 671 435 672 b 436 676 435 675 435 675 l 439 676 b 440 675 440 676 440 676 z m 465 667 b 463 664 465 665 465 664 b 457 663 458 664 457 663 b 453 665 456 663 453 664 l 453 672 b 457 674 456 674 457 674 b 465 667 464 674 465 669 z m 451 656 b 450 654 450 656 450 654 l 449 653 l 446 654 b 451 656 447 654 449 656 z m 410 644 b 413 650 410 646 411 649 b 417 646 415 649 417 647 l 417 644 l 415 643 b 421 642 417 643 418 642 l 421 638 l 413 639 b 410 644 410 642 408 643 z m 400 632 b 392 629 397 632 396 631 l 390 631 l 390 635 l 394 635 b 397 633 396 633 397 633 b 400 632 397 633 399 632 z m 440 635 l 440 629 l 438 629 l 439 635 z m 408 613 l 404 610 b 399 614 403 608 399 613 b 400 619 399 617 399 618 b 403 624 403 624 403 625 b 407 618 404 622 406 621 b 413 614 410 617 411 614 b 408 613 411 614 410 613 z m 336 593 l 336 596 b 339 596 339 597 339 597 l 339 594 b 336 593 338 593 338 593 z m 350 596 b 346 594 351 592 347 593 z m 160 585 l 153 586 l 153 588 l 160 586 z m 382 586 l 390 586 b 394 581 392 585 394 583 l 394 578 l 390 578 b 386 576 389 576 389 576 b 378 583 381 576 378 579 b 382 586 379 586 381 586 z m 265 579 b 257 581 260 579 257 579 b 258 583 257 582 257 582 l 267 583 l 269 582 b 265 579 269 579 268 579 z m 215 565 l 213 565 b 215 568 214 567 215 567 b 219 568 215 568 217 569 b 217 567 219 567 218 567 b 215 565 217 567 215 567 z m 194 561 l 194 563 b 193 565 193 563 193 564 b 196 564 194 565 194 564 b 194 561 197 564 197 563 z m 401 547 l 399 547 b 394 547 397 546 396 546 l 396 547 l 396 550 l 403 550 z m 235 539 b 233 543 233 542 233 543 b 244 549 233 544 239 547 b 251 543 250 549 251 543 b 240 536 251 538 242 536 b 235 539 238 536 235 538 z m 332 531 b 319 524 332 525 321 522 b 308 529 317 524 308 524 b 318 539 308 532 314 536 l 325 539 b 332 540 326 540 329 540 z m 457 536 l 457 539 b 461 536 460 539 461 538 z m 283 535 l 283 538 l 286 538 l 285 533 z m 238 518 b 239 519 239 518 239 519 l 246 519 l 247 518 l 246 515 l 236 517 z m 426 515 b 425 513 425 515 425 514 b 421 511 424 513 422 511 b 419 513 421 511 421 513 l 419 517 l 422 518 z m 357 511 b 354 510 357 510 356 510 b 350 511 353 510 351 511 b 357 511 351 513 353 513 z m 269 497 l 269 494 b 261 494 267 493 264 493 b 257 493 260 494 258 494 l 251 494 l 251 496 b 261 501 256 500 258 501 b 269 497 264 501 267 500 z m 389 482 b 379 493 389 486 386 490 b 382 496 381 494 382 494 l 386 499 l 392 499 l 392 496 b 394 493 392 494 393 493 b 397 490 394 492 394 490 b 400 488 399 489 400 489 b 389 482 397 483 390 482 z m 176 494 l 171 493 l 171 494 b 169 496 169 494 169 494 b 171 497 169 496 169 497 b 174 496 172 497 174 496 l 179 496 b 176 494 179 494 178 494 z m 433 497 b 435 496 433 497 435 497 l 435 494 b 433 492 435 494 435 493 l 432 490 b 433 497 425 490 425 497 z m 367 489 b 365 492 367 490 367 492 b 371 496 365 494 367 497 l 375 496 l 378 493 b 372 489 376 493 374 492 z m 146 493 b 151 490 147 493 149 492 l 147 490 b 146 489 147 489 147 489 z m 326 482 b 329 485 326 483 328 483 b 331 483 331 485 331 485 l 329 482 z m 431 478 b 426 481 429 478 425 479 b 432 485 426 483 428 485 b 431 482 432 485 431 483 b 431 478 432 479 431 478 z m 357 446 l 356 438 l 353 436 b 346 442 349 438 346 439 l 343 449 b 354 450 344 446 351 444 b 357 446 357 447 358 446 z m 429 440 b 425 443 426 442 425 442 b 422 446 425 443 425 444 b 428 449 422 447 425 449 b 433 447 431 449 432 449 l 433 442 l 432 442 b 429 440 432 440 431 440 z m 383 433 b 379 438 381 433 379 435 b 383 443 381 440 382 443 b 388 442 385 443 386 442 b 390 440 389 442 389 442 b 389 438 389 439 389 438 b 383 433 388 436 386 435 z m 338 432 l 336 429 l 328 429 l 329 436 b 333 435 329 436 331 436 b 338 432 333 435 335 435 z m 461 418 l 465 417 b 464 415 464 417 464 415 l 463 414 l 456 414 l 456 418 z m 438 401 b 433 408 439 404 438 406 l 433 411 b 440 414 435 413 438 414 b 447 411 442 414 444 413 l 442 406 l 442 401 b 443 400 442 400 443 400 b 447 399 444 400 446 400 l 447 397 l 444 397 b 438 401 440 397 438 399 z m 397 390 l 397 388 l 392 386 l 392 389 b 390 392 392 390 390 390 b 399 393 392 393 394 393 b 397 390 399 393 399 392 z m 328 278 b 326 276 328 276 328 276 b 288 253 314 263 301 254 b 243 296 265 250 239 256 b 296 356 246 329 264 349 b 340 321 321 360 335 347 b 328 278 343 304 339 289 z m 525 322 l 518 322 b 519 326 518 324 518 325 l 525 326 b 528 324 525 325 526 324 z m 549 301 b 543 300 547 300 544 300 b 536 299 540 300 539 300 l 531 300 l 531 303 b 542 307 533 304 538 307 b 549 304 543 307 546 306 z m 443 244 b 442 246 443 244 442 244 l 439 246 l 439 251 b 446 251 442 254 444 253 b 447 249 446 250 447 249 b 443 244 449 247 447 244 z m 425 218 b 415 225 419 218 415 221 b 425 229 415 228 422 229 b 431 225 428 229 431 228 b 425 218 431 221 429 218 z m 124 210 b 121 214 121 211 121 213 l 121 217 l 128 217 l 128 215 b 129 214 129 215 129 215 b 124 210 129 211 128 210 z m 379 214 b 375 210 379 213 378 213 b 371 214 372 210 371 211 l 371 215 b 372 217 372 215 372 217 l 378 217 b 379 215 378 217 378 215 z m 143 174 l 143 178 b 146 182 143 181 143 182 b 154 179 149 182 151 181 b 143 174 150 176 146 175 z m 57 153 l 50 151 l 49 153 l 49 154 l 51 156 l 57 156 z m 439 149 b 458 153 442 150 451 153 l 489 153 b 496 154 490 153 493 153 b 504 156 499 156 501 156 b 517 149 508 156 515 153 z m 78 147 b 75 138 75 143 74 140 b 68 133 75 135 72 133 b 65 135 67 133 65 135 l 65 136 b 68 138 67 138 68 138 b 72 139 69 138 71 139 l 72 144 b 65 149 68 146 67 147 b 72 151 68 150 71 151 b 78 149 75 151 76 150 z m 249 131 b 243 129 247 131 244 131 l 243 133 l 251 133 b 249 131 251 132 250 131 z m 222 126 l 218 126 l 218 129 b 224 128 221 129 222 128 b 222 126 224 126 222 126 z "},"9":{"ha":651,"x_min":0,"x_max":0,"o":"m 332 0 b 349 13 340 3 344 7 b 426 153 378 60 403 107 b 536 393 488 260 513 331 b 592 631 560 456 585 531 b 571 819 596 692 594 763 b 432 950 544 882 499 926 b 71 829 319 989 169 968 b -11 585 19 757 -6 671 b 93 340 -19 486 4 392 l 94 340 b 150 319 111 331 131 324 b 161 317 153 319 156 318 b 181 314 169 315 176 314 b 247 315 201 313 224 313 b 235 292 243 307 239 299 b 224 269 232 285 228 276 l 221 265 b 219 261 221 264 219 263 b 226 260 221 261 224 261 l 233 258 b 238 260 235 258 236 258 b 242 264 239 261 239 263 b 249 256 246 260 249 257 l 249 253 b 247 250 247 253 247 251 l 242 250 b 236 251 240 250 239 250 l 232 251 l 218 256 b 217 257 217 256 217 256 b 147 139 194 217 171 176 b 154 104 139 125 140 113 l 314 4 b 332 0 318 0 325 0 z m 242 932 b 235 935 239 932 236 933 b 236 938 233 935 233 936 l 238 939 b 242 932 240 938 242 936 z m 172 919 l 169 922 b 172 924 169 922 169 924 l 178 924 z m 204 908 l 201 910 l 206 913 l 207 911 z m 172 894 b 176 899 174 894 175 896 b 182 897 181 903 186 903 b 178 896 181 896 179 896 b 172 894 176 896 175 894 z m 189 890 b 186 892 189 890 188 890 b 188 896 185 893 185 894 l 192 899 l 196 896 l 196 893 b 189 890 196 890 190 890 z m 133 872 l 132 881 l 143 886 b 149 881 144 883 146 882 b 149 874 150 876 150 875 b 142 872 146 872 143 872 z m 154 849 l 149 851 l 151 854 l 157 851 z m 133 843 l 125 847 l 129 853 l 136 849 l 136 846 z m 326 832 l 326 835 l 333 835 l 333 832 z m 282 799 l 271 807 l 272 807 b 275 808 274 807 275 807 b 279 806 276 808 278 807 b 285 801 281 804 282 803 b 282 800 283 801 282 801 z m 233 796 l 232 799 l 232 803 l 233 804 b 238 806 235 804 236 804 l 244 804 l 242 800 b 239 799 242 799 240 799 l 236 799 z m 332 794 b 325 800 328 794 325 797 l 333 799 b 332 794 333 796 332 794 z m 226 779 b 219 782 225 779 222 781 l 219 792 l 226 792 b 232 785 231 790 232 788 l 232 781 b 226 779 231 779 228 779 z m 319 785 b 313 792 317 785 314 788 l 317 792 b 318 790 317 790 317 790 b 319 785 319 790 324 788 z m 288 538 b 243 557 267 533 253 540 b 232 639 229 581 225 607 b 336 751 243 707 293 761 b 365 722 350 749 360 739 b 361 643 371 700 369 674 b 288 538 350 608 329 544 z m 342 750 b 343 753 342 751 342 753 b 347 756 346 754 346 756 z m 438 739 b 435 740 436 739 435 740 b 432 742 433 740 432 740 b 438 750 432 743 433 746 b 438 744 438 749 439 746 z m 432 726 l 432 731 l 435 731 l 435 726 z m 408 585 l 408 646 b 410 649 410 647 410 647 l 411 649 l 411 650 b 408 651 411 650 410 651 l 408 722 b 410 715 408 719 410 717 b 414 707 410 714 411 711 l 417 703 b 419 699 418 703 419 700 b 422 689 421 696 422 692 b 421 682 421 686 421 683 l 421 658 b 422 646 421 654 422 651 b 424 635 424 640 424 636 b 422 631 424 633 424 632 b 421 628 422 631 421 629 b 408 585 419 615 418 599 z m 429 590 l 429 619 l 432 619 l 432 590 z m 468 551 b 464 556 465 553 464 554 b 468 560 464 557 465 558 z m 468 529 b 467 533 467 529 467 531 b 465 540 468 536 467 539 b 463 542 464 540 463 540 l 463 544 l 464 544 b 468 540 468 543 469 542 b 472 533 467 538 468 535 l 472 531 b 468 529 471 531 469 529 z m 119 522 l 119 525 l 126 525 l 126 522 z m 468 497 l 465 499 b 467 500 465 499 465 500 l 471 503 b 464 518 467 504 464 515 b 468 525 464 519 465 521 l 472 525 l 472 499 b 468 497 472 499 471 499 z m 422 515 b 421 524 422 515 421 518 b 425 519 424 522 425 521 b 424 515 424 519 424 518 z m 468 478 l 468 483 l 472 483 b 471 481 472 482 471 482 b 468 478 469 481 468 479 z m 469 414 l 468 415 b 472 421 468 415 469 418 b 468 422 471 422 469 422 b 467 431 468 425 467 428 b 465 438 465 435 465 436 l 465 443 b 472 449 465 443 467 446 b 467 450 472 450 471 450 l 468 469 b 469 460 469 468 469 465 l 476 457 l 476 444 b 474 432 475 439 475 435 b 469 431 472 433 471 433 b 475 429 472 429 474 429 b 476 425 475 428 476 426 b 478 421 478 424 478 422 b 472 415 478 419 474 417 l 471 414 z m 408 333 l 408 413 b 414 399 411 407 414 401 b 419 378 415 390 417 383 b 419 361 422 372 422 367 l 421 361 b 422 360 421 360 422 360 b 421 356 422 358 422 357 l 421 351 b 429 336 424 349 429 339 b 428 335 429 335 428 335 l 428 333 z m 468 404 l 468 411 b 471 413 469 411 471 411 l 475 413 l 476 411 l 476 407 l 475 406 l 474 406 l 472 404 z m 474 357 l 474 360 l 482 360 l 482 357 b 474 357 479 356 476 356 z m 442 318 b 440 319 440 318 440 318 b 435 328 436 321 435 326 l 436 333 b 438 340 436 336 438 338 b 442 331 439 335 440 331 b 444 325 443 331 444 329 b 443 318 444 321 444 319 z m 274 299 l 274 300 b 276 304 274 303 275 303 b 282 303 278 304 281 304 b 274 299 279 300 276 299 z m 243 285 b 239 290 242 286 238 289 b 249 292 240 292 243 292 b 254 294 250 293 251 294 l 256 290 b 250 288 253 289 251 288 b 249 285 250 286 249 286 z m 268 256 b 269 260 269 257 269 258 l 276 260 b 274 258 276 258 275 258 l 274 256 z m 219 231 b 211 232 217 231 214 232 l 211 235 b 218 240 211 236 214 239 l 228 244 l 236 244 l 236 240 b 232 236 236 239 235 238 b 224 232 228 235 225 233 b 219 231 224 232 221 231 z m 264 221 b 261 229 263 224 261 226 b 264 236 261 233 263 235 b 272 228 267 235 272 231 b 269 225 272 226 271 225 z m 228 225 l 228 228 l 232 231 l 236 231 l 238 229 l 238 225 b 228 225 235 224 231 224 z m 210 206 b 211 214 210 208 210 211 b 213 211 213 213 213 213 b 214 208 213 211 214 210 b 210 206 213 207 211 206 z "},"A":{"ha":836,"x_min":0,"x_max":0,"o":"m 768 33 l 664 615 b 631 768 651 682 633 757 b 601 864 622 799 613 833 b 494 960 581 911 549 956 b 414 958 465 963 438 963 b 321 942 382 954 351 947 b 300 925 311 939 304 933 b 169 610 256 821 211 715 b 85 372 139 532 110 453 b -11 44 51 264 18 153 b 15 8 -14 25 -3 8 l 221 4 b 249 25 235 4 244 11 l 279 153 l 489 194 l 503 25 b 531 0 504 8 514 0 l 740 0 b 768 33 758 0 771 15 z m 328 908 l 333 908 l 333 900 l 328 900 z m 497 875 l 501 875 l 501 864 l 497 864 z m 486 853 b 493 851 486 851 489 851 b 490 840 493 846 492 843 l 486 844 z m 336 844 b 329 828 332 838 329 832 l 329 846 b 332 844 329 846 331 844 z m 513 842 b 508 836 510 839 508 838 l 503 836 b 501 840 503 839 503 839 l 501 846 l 517 844 b 513 842 515 844 514 843 z m 499 844 l 501 839 l 501 836 l 499 840 z m 528 829 b 540 832 532 829 536 831 l 538 828 b 544 819 538 824 540 822 b 539 817 542 818 540 817 l 521 817 l 518 819 b 528 829 521 826 524 829 z m 524 792 b 536 788 528 792 532 790 b 535 785 535 786 535 786 b 532 781 535 783 533 782 b 525 783 529 782 528 783 b 518 786 522 783 519 785 b 524 792 518 790 521 792 z m 411 783 l 413 783 l 411 779 l 408 781 z m 431 772 b 436 774 431 772 432 774 b 439 765 438 772 439 769 b 433 765 436 765 435 764 l 426 765 l 425 772 z m 547 747 b 554 740 551 747 554 744 b 549 735 554 739 551 736 l 540 735 b 538 739 539 736 538 738 b 540 743 538 742 539 743 b 547 747 543 744 546 744 z m 242 693 b 242 671 243 686 243 678 b 233 686 239 671 233 683 b 242 693 233 689 243 696 z m 338 675 b 339 678 338 676 338 678 l 346 675 b 340 674 344 672 343 672 b 338 672 338 674 338 672 z m 246 653 l 246 636 l 240 636 l 240 651 z m 406 646 b 408 642 407 644 408 643 b 410 639 408 642 410 640 l 406 628 b 386 636 394 622 390 624 b 406 646 392 644 399 647 z m 563 644 l 563 642 l 553 642 l 553 644 z m 568 619 l 560 619 l 558 622 b 560 626 558 622 558 624 b 568 619 565 626 568 624 z m 351 397 l 419 621 b 438 533 426 592 432 563 b 447 467 442 511 444 489 l 456 400 z m 394 611 l 390 600 l 388 601 l 392 613 z m 522 606 l 525 603 l 522 601 l 518 604 z m 349 504 b 326 444 340 485 326 442 l 321 429 b 313 417 315 424 313 419 b 303 394 308 411 304 403 b 294 371 301 388 299 379 b 290 367 293 369 290 368 b 283 367 288 365 286 365 b 281 376 282 367 281 371 b 288 393 282 382 285 388 b 296 413 292 400 294 406 b 299 425 296 418 297 422 b 311 450 301 435 301 439 b 324 472 319 460 321 464 b 329 492 324 472 325 479 b 339 522 335 510 340 525 b 343 532 340 528 342 531 b 347 538 346 533 347 536 b 353 547 349 538 350 542 b 360 572 356 554 357 563 b 367 578 361 572 364 575 b 374 583 369 581 371 582 l 381 581 b 367 551 372 564 368 556 b 364 540 367 549 365 544 b 349 521 363 536 356 525 z m 532 550 l 532 556 l 542 554 b 540 553 540 554 540 553 l 540 550 z m 560 540 l 560 543 l 568 540 l 568 538 z m 501 533 l 508 533 b 501 533 508 531 503 529 z m 581 490 b 574 485 581 486 579 485 z m 476 486 b 482 485 476 486 479 485 b 485 481 483 483 485 482 l 476 481 z m 535 467 l 533 467 l 533 463 l 521 463 b 522 472 517 467 518 469 l 514 472 b 518 481 514 476 515 479 b 535 467 528 479 533 475 z m 571 478 b 574 481 571 479 572 481 l 576 481 b 579 478 576 481 578 478 b 571 475 579 475 575 475 z m 551 478 b 560 476 557 478 560 478 l 557 472 b 553 475 554 472 554 474 b 551 478 551 476 551 476 z m 571 467 l 582 467 b 593 461 586 467 590 464 b 571 460 585 457 578 456 z m 533 443 b 540 451 533 447 536 450 b 544 450 542 451 543 451 b 549 449 546 450 547 449 l 549 442 l 540 442 b 533 443 539 443 536 443 z m 489 444 l 478 444 l 478 447 l 489 447 z m 600 442 b 592 433 596 439 593 436 b 581 428 590 431 586 429 b 594 419 586 422 590 419 b 604 413 599 419 601 417 b 599 411 601 413 600 411 l 579 411 b 567 435 571 425 567 431 b 582 447 567 439 565 436 l 596 447 b 600 442 597 447 599 446 z m 267 433 b 263 422 267 431 265 426 b 258 431 260 424 258 426 b 261 443 258 433 260 439 l 267 443 z m 538 431 l 535 431 b 532 429 533 429 533 429 l 532 428 l 525 433 l 525 439 l 535 439 l 536 436 b 538 431 536 435 538 433 z m 553 429 b 557 428 554 429 556 428 b 551 414 557 428 556 419 l 549 431 l 551 431 b 553 429 551 429 553 429 z m 519 422 l 540 422 b 531 415 540 419 535 415 b 521 417 526 415 522 417 b 513 415 518 417 515 417 l 508 422 b 519 422 511 422 515 424 z m 507 401 l 504 403 l 506 407 l 508 407 z m 525 388 b 524 385 524 388 524 386 l 514 388 b 515 390 515 389 515 389 l 518 393 b 526 392 522 393 525 392 b 525 388 526 389 526 389 z m 503 388 l 506 390 b 503 388 507 389 506 388 z m 579 372 b 571 375 578 372 572 375 b 572 376 571 376 571 376 b 576 378 575 376 576 378 b 581 372 579 375 581 374 z m 554 353 l 554 361 b 544 374 551 368 549 372 b 540 376 543 374 540 375 b 563 369 547 378 554 375 b 565 361 563 367 564 364 b 568 353 565 357 567 354 z m 499 361 l 494 361 l 494 367 l 499 367 z m 617 353 l 625 351 l 625 350 l 617 350 z m 531 350 l 531 343 l 525 343 l 525 350 z m 490 340 l 494 340 l 494 338 l 490 338 z m 449 331 l 442 331 l 442 333 l 449 333 z m 478 311 l 475 314 l 469 314 b 479 318 474 317 476 318 b 478 311 479 315 479 313 z m 524 308 l 532 317 b 536 314 532 315 533 314 b 540 308 539 311 540 310 b 531 297 540 306 536 301 b 517 301 526 297 519 300 b 524 308 521 304 522 307 z m 560 272 l 560 269 l 553 269 l 553 272 z m 543 269 l 543 258 b 535 269 538 261 535 264 z m 600 264 b 607 269 604 264 606 265 b 608 257 607 263 607 258 l 614 253 b 618 250 615 253 617 253 b 610 249 613 249 610 247 b 601 247 608 247 606 247 b 589 260 593 247 589 257 z m 293 251 l 278 251 l 278 258 l 293 258 z m 249 224 b 244 222 247 222 246 222 b 226 236 233 222 226 232 b 240 247 226 239 229 247 b 257 240 243 247 254 242 b 260 232 257 238 258 235 b 263 224 260 232 260 229 z m 499 242 l 494 242 l 494 247 l 499 247 z m 646 246 l 651 246 l 651 243 l 646 243 z m 510 242 l 529 242 l 529 238 l 515 238 b 510 242 515 239 514 240 z m 439 236 l 438 239 l 442 240 l 443 238 z m 674 50 b 660 65 669 50 660 61 l 660 68 b 661 72 661 69 661 71 b 651 83 656 75 653 79 b 650 96 651 89 650 93 b 646 100 649 97 647 97 b 643 103 644 100 643 101 b 639 107 640 104 640 106 l 635 111 l 636 111 l 636 113 l 638 113 l 638 132 l 629 132 b 622 131 626 131 625 131 b 606 132 615 131 610 131 b 590 150 621 139 596 147 l 590 163 b 593 168 590 164 592 167 b 594 172 594 169 594 171 b 596 174 594 174 594 174 b 599 176 597 174 599 175 b 590 181 600 179 594 182 b 593 190 592 182 592 185 b 606 197 593 194 597 197 b 615 200 608 197 611 197 b 613 203 615 200 615 201 b 607 207 611 204 610 206 b 607 217 604 211 604 214 b 601 221 601 221 599 222 b 599 225 600 222 599 224 b 625 240 599 233 617 240 b 646 233 626 240 642 236 l 646 222 l 640 226 b 628 219 632 226 628 225 l 628 206 l 632 203 b 642 210 635 204 638 207 l 651 218 b 654 200 657 208 657 201 b 650 194 651 200 650 197 b 654 185 650 192 651 189 b 657 156 661 174 661 164 b 668 143 656 151 660 147 b 661 133 663 139 661 136 b 664 126 661 132 663 131 b 669 119 667 122 668 121 b 675 86 672 106 674 94 b 681 53 676 78 678 67 b 674 50 678 50 676 50 z m 150 217 l 146 219 l 146 222 b 150 217 151 221 153 219 z m 210 194 b 208 193 210 193 210 193 b 206 194 207 193 206 193 b 208 201 206 197 207 200 b 210 194 211 199 213 197 z m 579 181 b 576 176 578 178 576 178 b 572 181 575 178 574 178 b 571 185 571 181 571 183 l 581 185 b 579 181 581 183 581 181 z m 167 179 b 168 181 167 181 168 181 b 171 182 169 181 169 181 b 179 178 176 182 179 181 l 179 171 l 176 169 l 167 174 z m 524 175 l 514 175 l 514 181 l 524 181 z m 540 169 b 549 164 546 168 549 168 l 540 164 z m 171 147 b 167 144 169 146 168 144 b 154 156 160 144 154 154 b 176 168 165 156 172 160 b 182 164 178 167 179 165 b 186 161 183 164 185 163 l 186 156 l 176 153 b 171 147 174 150 171 150 z m 526 147 l 525 157 b 532 154 526 156 528 156 l 540 150 z m 226 119 b 221 121 224 121 221 121 b 215 125 219 122 218 122 b 221 126 217 125 218 125 l 224 126 b 226 128 224 128 225 128 l 229 125 b 226 119 229 122 229 121 z m 160 111 b 151 111 156 110 153 110 b 158 117 151 114 154 117 b 168 111 161 117 167 111 z m 185 106 l 176 111 b 185 117 176 113 179 114 b 190 110 189 115 190 113 b 185 106 189 110 188 108 z m 544 110 b 551 114 547 111 550 113 b 557 106 554 111 557 108 l 542 106 z m 571 40 b 569 38 571 39 571 39 b 554 56 565 40 557 50 l 568 56 b 572 42 568 51 569 47 b 571 40 571 42 571 40 z "},"":{"ha":836,"x_min":0,"x_max":0,"o":"m 317 1042 l 457 1044 b 497 1065 474 1044 483 1051 l 664 1233 b 646 1276 683 1253 664 1276 l 426 1269 b 399 1249 417 1269 406 1261 l 290 1078 b 317 1042 279 1060 299 1042 z m 450 1228 l 463 1224 b 461 1215 463 1224 463 1221 b 467 1201 463 1208 464 1204 b 471 1197 468 1201 471 1199 b 451 1210 464 1197 457 1203 b 450 1218 451 1213 451 1215 b 450 1228 451 1222 450 1225 z m 488 1228 l 493 1226 l 492 1219 l 486 1221 z m 525 1224 l 529 1224 l 528 1221 l 524 1221 z m 571 1219 l 578 1218 l 576 1215 l 569 1217 z m 433 1211 b 442 1206 435 1211 440 1207 l 435 1206 b 432 1211 433 1208 432 1210 z m 515 1203 l 519 1201 l 518 1196 l 514 1197 z m 483 1183 b 485 1185 485 1183 485 1185 l 493 1181 b 492 1178 492 1179 492 1179 b 488 1176 492 1178 490 1176 b 481 1179 485 1176 482 1179 b 483 1183 481 1182 481 1182 z m 407 1154 b 419 1157 408 1157 414 1157 b 408 1169 415 1164 411 1168 b 400 1178 404 1169 401 1174 l 406 1178 b 414 1176 407 1178 410 1176 b 425 1174 418 1175 422 1174 b 431 1147 429 1158 432 1151 b 413 1139 431 1143 432 1146 l 400 1142 b 397 1149 399 1143 397 1144 b 407 1154 401 1150 406 1153 z m 504 1178 l 501 1175 b 504 1178 500 1178 501 1178 z m 497 1165 l 499 1163 l 497 1160 l 494 1160 z m 451 1164 l 450 1147 l 447 1147 b 446 1150 447 1149 446 1150 b 442 1151 444 1150 443 1151 b 451 1164 442 1151 446 1160 z m 488 1153 l 490 1146 b 479 1149 488 1146 483 1146 b 460 1153 476 1149 471 1150 b 471 1157 460 1156 467 1158 b 479 1154 475 1157 478 1154 b 488 1153 482 1153 485 1153 z m 460 1144 b 463 1143 460 1144 461 1144 l 465 1144 l 467 1146 l 472 1139 l 471 1133 l 461 1136 l 460 1139 b 460 1144 461 1140 460 1142 z m 449 1128 b 444 1129 447 1128 446 1129 l 447 1136 b 451 1135 449 1136 450 1136 l 454 1135 b 461 1131 456 1132 458 1132 b 453 1125 460 1128 457 1125 b 449 1128 451 1125 450 1125 z m 419 1117 b 408 1119 418 1118 414 1118 b 399 1128 404 1121 401 1125 b 421 1124 408 1131 415 1129 z m 514 1114 l 503 1117 l 504 1119 l 515 1117 z m 467 1092 b 454 1108 458 1094 454 1100 l 456 1108 l 457 1113 l 468 1110 b 465 1100 472 1104 469 1101 b 469 1099 467 1100 468 1100 l 474 1099 b 467 1092 472 1094 469 1092 z m 408 1108 b 417 1107 410 1111 417 1108 b 408 1108 417 1106 410 1108 z m 435 1104 b 435 1101 436 1103 436 1103 b 428 1106 431 1103 428 1104 l 432 1108 b 435 1104 433 1108 433 1107 z m 404 1097 b 413 1100 406 1101 407 1101 z m 358 1090 l 365 1088 l 364 1082 b 360 1085 364 1082 363 1085 b 358 1090 358 1088 357 1089 z m 768 33 l 664 615 b 631 768 651 682 633 757 b 601 864 622 799 613 833 b 494 960 581 911 549 956 b 414 958 465 963 438 963 b 321 942 382 954 351 947 b 300 925 311 939 304 933 b 169 610 256 821 211 715 b 85 372 139 532 110 453 b -11 44 51 264 18 153 b 15 8 -14 25 -3 8 l 221 4 b 249 25 235 4 244 11 l 279 153 l 489 194 l 503 25 b 531 0 504 8 514 0 l 740 0 b 768 33 758 0 771 15 z m 328 908 l 333 908 l 333 900 l 328 900 z m 497 875 l 501 875 l 501 864 l 497 864 z m 486 853 b 493 851 486 851 489 851 b 490 840 493 846 492 843 l 486 844 z m 336 844 b 329 828 332 838 329 832 l 329 846 b 332 844 329 846 331 844 z m 513 842 b 508 836 510 839 508 838 l 503 836 b 501 840 503 839 503 839 l 501 846 l 517 844 b 513 842 515 844 514 843 z m 499 844 l 501 839 l 501 836 l 499 840 z m 528 829 b 540 832 532 829 536 831 l 538 828 b 544 819 538 824 540 822 b 539 817 542 818 540 817 l 521 817 l 518 819 b 528 829 521 826 524 829 z m 524 792 b 536 788 528 792 532 790 b 535 785 535 786 535 786 b 532 781 535 783 533 782 b 525 783 529 782 528 783 b 518 786 522 783 519 785 b 524 792 518 790 521 792 z m 411 783 l 413 783 l 411 779 l 408 781 z m 431 772 b 436 774 431 772 432 774 b 439 765 438 772 439 769 b 433 765 436 765 435 764 l 426 765 l 425 772 z m 547 747 b 554 740 551 747 554 744 b 549 735 554 739 551 736 l 540 735 b 538 739 539 736 538 738 b 540 743 538 742 539 743 b 547 747 543 744 546 744 z m 242 693 b 242 671 243 686 243 678 b 233 686 239 671 233 683 b 242 693 233 689 243 696 z m 338 675 b 339 678 338 676 338 678 l 346 675 b 340 674 344 672 343 672 b 338 672 338 674 338 672 z m 246 653 l 246 636 l 240 636 l 240 651 z m 406 646 b 408 642 407 644 408 643 b 410 639 408 642 410 640 l 406 628 b 386 636 394 622 390 624 b 406 646 392 644 399 647 z m 563 644 l 563 642 l 553 642 l 553 644 z m 568 619 l 560 619 l 558 622 b 560 626 558 622 558 624 b 568 619 565 626 568 624 z m 351 397 l 419 621 b 438 533 426 592 432 563 b 447 467 442 511 444 489 l 456 400 z m 394 611 l 390 600 l 388 601 l 392 613 z m 522 606 l 525 603 l 522 601 l 518 604 z m 349 504 b 326 444 340 485 326 442 l 321 429 b 313 417 315 424 313 419 b 303 394 308 411 304 403 b 294 371 301 388 299 379 b 290 367 293 369 290 368 b 283 367 288 365 286 365 b 281 376 282 367 281 371 b 288 393 282 382 285 388 b 296 413 292 400 294 406 b 299 425 296 418 297 422 b 311 450 301 435 301 439 b 324 472 319 460 321 464 b 329 492 324 472 325 479 b 339 522 335 510 340 525 b 343 532 340 528 342 531 b 347 538 346 533 347 536 b 353 547 349 538 350 542 b 360 572 356 554 357 563 b 367 578 361 572 364 575 b 374 583 369 581 371 582 l 381 581 b 367 551 372 564 368 556 b 364 540 367 549 365 544 b 349 521 363 536 356 525 z m 532 550 l 532 556 l 542 554 b 540 553 540 554 540 553 l 540 550 z m 560 540 l 560 543 l 568 540 l 568 538 z m 501 533 l 508 533 b 501 533 508 531 503 529 z m 581 490 b 574 485 581 486 579 485 z m 476 486 b 482 485 476 486 479 485 b 485 481 483 483 485 482 l 476 481 z m 535 467 l 533 467 l 533 463 l 521 463 b 522 472 517 467 518 469 l 514 472 b 518 481 514 476 515 479 b 535 467 528 479 533 475 z m 571 478 b 574 481 571 479 572 481 l 576 481 b 579 478 576 481 578 478 b 571 475 579 475 575 475 z m 551 478 b 560 476 557 478 560 478 l 557 472 b 553 475 554 472 554 474 b 551 478 551 476 551 476 z m 571 467 l 582 467 b 593 461 586 467 590 464 b 571 460 585 457 578 456 z m 533 443 b 540 451 533 447 536 450 b 544 450 542 451 543 451 b 549 449 546 450 547 449 l 549 442 l 540 442 b 533 443 539 443 536 443 z m 489 444 l 478 444 l 478 447 l 489 447 z m 600 442 b 592 433 596 439 593 436 b 581 428 590 431 586 429 b 594 419 586 422 590 419 b 604 413 599 419 601 417 b 599 411 601 413 600 411 l 579 411 b 567 435 571 425 567 431 b 582 447 567 439 565 436 l 596 447 b 600 442 597 447 599 446 z m 267 433 b 263 422 267 431 265 426 b 258 431 260 424 258 426 b 261 443 258 433 260 439 l 267 443 z m 538 431 l 535 431 b 532 429 533 429 533 429 l 532 428 l 525 433 l 525 439 l 535 439 l 536 436 b 538 431 536 435 538 433 z m 553 429 b 557 428 554 429 556 428 b 551 414 557 428 556 419 l 549 431 l 551 431 b 553 429 551 429 553 429 z m 519 422 l 540 422 b 531 415 540 419 535 415 b 521 417 526 415 522 417 b 513 415 518 417 515 417 l 508 422 b 519 422 511 422 515 424 z m 507 401 l 504 403 l 506 407 l 508 407 z m 525 388 b 524 385 524 388 524 386 l 514 388 b 515 390 515 389 515 389 l 518 393 b 526 392 522 393 525 392 b 525 388 526 389 526 389 z m 503 388 l 506 390 b 503 388 507 389 506 388 z m 579 372 b 571 375 578 372 572 375 b 572 376 571 376 571 376 b 576 378 575 376 576 378 b 581 372 579 375 581 374 z m 554 353 l 554 361 b 544 374 551 368 549 372 b 540 376 543 374 540 375 b 563 369 547 378 554 375 b 565 361 563 367 564 364 b 568 353 565 357 567 354 z m 499 361 l 494 361 l 494 367 l 499 367 z m 617 353 l 625 351 l 625 350 l 617 350 z m 531 350 l 531 343 l 525 343 l 525 350 z m 490 340 l 494 340 l 494 338 l 490 338 z m 449 331 l 442 331 l 442 333 l 449 333 z m 478 311 l 475 314 l 469 314 b 479 318 474 317 476 318 b 478 311 479 315 479 313 z m 524 308 l 532 317 b 536 314 532 315 533 314 b 540 308 539 311 540 310 b 531 297 540 306 536 301 b 517 301 526 297 519 300 b 524 308 521 304 522 307 z m 560 272 l 560 269 l 553 269 l 553 272 z m 543 269 l 543 258 b 535 269 538 261 535 264 z m 600 264 b 607 269 604 264 606 265 b 608 257 607 263 607 258 l 614 253 b 618 250 615 253 617 253 b 610 249 613 249 610 247 b 601 247 608 247 606 247 b 589 260 593 247 589 257 z m 293 251 l 278 251 l 278 258 l 293 258 z m 249 224 b 244 222 247 222 246 222 b 226 236 233 222 226 232 b 240 247 226 239 229 247 b 257 240 243 247 254 242 b 260 232 257 238 258 235 b 263 224 260 232 260 229 z m 499 242 l 494 242 l 494 247 l 499 247 z m 646 246 l 651 246 l 651 243 l 646 243 z m 510 242 l 529 242 l 529 238 l 515 238 b 510 242 515 239 514 240 z m 439 236 l 438 239 l 442 240 l 443 238 z m 674 50 b 660 65 669 50 660 61 l 660 68 b 661 72 661 69 661 71 b 651 83 656 75 653 79 b 650 96 651 89 650 93 b 646 100 649 97 647 97 b 643 103 644 100 643 101 b 639 107 640 104 640 106 l 635 111 l 636 111 l 636 113 l 638 113 l 638 132 l 629 132 b 622 131 626 131 625 131 b 606 132 615 131 610 131 b 590 150 621 139 596 147 l 590 163 b 593 168 590 164 592 167 b 594 172 594 169 594 171 b 596 174 594 174 594 174 b 599 176 597 174 599 175 b 590 181 600 179 594 182 b 593 190 592 182 592 185 b 606 197 593 194 597 197 b 615 200 608 197 611 197 b 613 203 615 200 615 201 b 607 207 611 204 610 206 b 607 217 604 211 604 214 b 601 221 601 221 599 222 b 599 225 600 222 599 224 b 625 240 599 233 617 240 b 646 233 626 240 642 236 l 646 222 l 640 226 b 628 219 632 226 628 225 l 628 206 l 632 203 b 642 210 635 204 638 207 l 651 218 b 654 200 657 208 657 201 b 650 194 651 200 650 197 b 654 185 650 192 651 189 b 657 156 661 174 661 164 b 668 143 656 151 660 147 b 661 133 663 139 661 136 b 664 126 661 132 663 131 b 669 119 667 122 668 121 b 675 86 672 106 674 94 b 681 53 676 78 678 67 b 674 50 678 50 676 50 z m 150 217 l 146 219 l 146 222 b 150 217 151 221 153 219 z m 210 194 b 208 193 210 193 210 193 b 206 194 207 193 206 193 b 208 201 206 197 207 200 b 210 194 211 199 213 197 z m 579 181 b 576 176 578 178 576 178 b 572 181 575 178 574 178 b 571 185 571 181 571 183 l 581 185 b 579 181 581 183 581 181 z m 167 179 b 168 181 167 181 168 181 b 171 182 169 181 169 181 b 179 178 176 182 179 181 l 179 171 l 176 169 l 167 174 z m 524 175 l 514 175 l 514 181 l 524 181 z m 540 169 b 549 164 546 168 549 168 l 540 164 z m 171 147 b 167 144 169 146 168 144 b 154 156 160 144 154 154 b 176 168 165 156 172 160 b 182 164 178 167 179 165 b 186 161 183 164 185 163 l 186 156 l 176 153 b 171 147 174 150 171 150 z m 526 147 l 525 157 b 532 154 526 156 528 156 l 540 150 z m 226 119 b 221 121 224 121 221 121 b 215 125 219 122 218 122 b 221 126 217 125 218 125 l 224 126 b 226 128 224 128 225 128 l 229 125 b 226 119 229 122 229 121 z m 160 111 b 151 111 156 110 153 110 b 158 117 151 114 154 117 b 168 111 161 117 167 111 z m 185 106 l 176 111 b 185 117 176 113 179 114 b 190 110 189 115 190 113 b 185 106 189 110 188 108 z m 544 110 b 551 114 547 111 550 113 b 557 106 554 111 557 108 l 542 106 z m 571 40 b 569 38 571 39 571 39 b 554 56 565 40 557 50 l 568 56 b 572 42 568 51 569 47 b 571 40 571 42 571 40 z "},"":{"ha":836,"x_min":0,"x_max":0,"o":"m 446 1042 b 700 1242 524 1043 676 1069 b 675 1285 703 1267 693 1286 l 560 1278 b 536 1254 550 1278 539 1268 b 454 1182 528 1206 486 1182 b 383 1258 414 1182 381 1213 b 364 1279 385 1272 374 1279 l 250 1278 b 219 1242 232 1278 219 1269 b 446 1042 222 1069 365 1042 z m 304 1235 b 308 1232 306 1235 307 1233 b 314 1226 308 1229 311 1229 l 324 1222 l 322 1217 b 318 1214 321 1215 319 1214 b 313 1211 315 1214 314 1213 b 292 1225 308 1219 303 1224 b 304 1235 292 1226 297 1236 z m 314 1201 b 306 1197 314 1199 311 1197 b 303 1199 304 1199 304 1199 b 301 1200 303 1199 301 1199 l 301 1206 b 313 1210 307 1207 310 1208 l 315 1208 z m 589 1204 l 596 1207 b 597 1200 594 1206 596 1204 b 586 1199 593 1199 589 1199 z m 621 1206 l 622 1201 l 613 1197 l 611 1201 z m 589 1192 l 593 1193 l 589 1188 l 590 1189 b 596 1190 592 1189 593 1190 l 600 1176 l 596 1179 b 589 1181 592 1181 590 1181 l 588 1186 l 589 1188 l 586 1188 z m 342 1183 b 343 1182 343 1183 343 1183 b 342 1175 346 1179 344 1178 b 339 1182 340 1176 339 1179 b 342 1183 339 1183 340 1183 z m 278 1163 l 282 1165 b 276 1160 285 1161 283 1161 z m 576 1165 b 589 1160 585 1165 588 1164 b 596 1150 590 1156 593 1153 l 592 1150 b 586 1140 588 1149 588 1146 b 582 1146 583 1143 582 1144 l 575 1163 z m 546 1154 b 553 1150 550 1156 551 1153 b 553 1138 554 1147 554 1142 l 550 1138 b 546 1139 549 1138 547 1138 l 546 1146 b 546 1154 544 1149 544 1151 z m 375 1151 b 379 1149 376 1151 378 1151 l 393 1149 b 390 1140 390 1143 390 1140 b 386 1132 388 1138 386 1135 b 369 1126 383 1131 372 1126 b 356 1139 358 1128 356 1136 b 375 1151 357 1143 364 1151 z m 406 1119 l 421 1118 l 421 1111 l 406 1113 z m 508 1118 b 514 1118 511 1119 513 1119 b 519 1113 515 1115 517 1113 b 515 1104 521 1108 519 1106 b 508 1107 514 1103 511 1104 l 506 1114 b 508 1118 507 1117 507 1118 z m 768 33 l 664 615 b 631 768 651 682 633 757 b 601 864 622 799 613 833 b 494 960 581 911 549 956 b 414 958 465 963 438 963 b 321 942 382 954 351 947 b 300 925 311 939 304 933 b 169 610 256 821 211 715 b 85 372 139 532 110 453 b -11 44 51 264 18 153 b 15 8 -14 25 -3 8 l 221 4 b 249 25 235 4 244 11 l 279 153 l 489 194 l 503 25 b 531 0 504 8 514 0 l 740 0 b 768 33 758 0 771 15 z m 328 908 l 333 908 l 333 900 l 328 900 z m 497 875 l 501 875 l 501 864 l 497 864 z m 486 853 b 493 851 486 851 489 851 b 490 840 493 846 492 843 l 486 844 z m 336 844 b 329 828 332 838 329 832 l 329 846 b 332 844 329 846 331 844 z m 513 842 b 508 836 510 839 508 838 l 503 836 b 501 840 503 839 503 839 l 501 846 l 517 844 b 513 842 515 844 514 843 z m 499 844 l 501 839 l 501 836 l 499 840 z m 528 829 b 540 832 532 829 536 831 l 538 828 b 544 819 538 824 540 822 b 539 817 542 818 540 817 l 521 817 l 518 819 b 528 829 521 826 524 829 z m 524 792 b 536 788 528 792 532 790 b 535 785 535 786 535 786 b 532 781 535 783 533 782 b 525 783 529 782 528 783 b 518 786 522 783 519 785 b 524 792 518 790 521 792 z m 411 783 l 413 783 l 411 779 l 408 781 z m 431 772 b 436 774 431 772 432 774 b 439 765 438 772 439 769 b 433 765 436 765 435 764 l 426 765 l 425 772 z m 547 747 b 554 740 551 747 554 744 b 549 735 554 739 551 736 l 540 735 b 538 739 539 736 538 738 b 540 743 538 742 539 743 b 547 747 543 744 546 744 z m 242 693 b 242 671 243 686 243 678 b 233 686 239 671 233 683 b 242 693 233 689 243 696 z m 338 675 b 339 678 338 676 338 678 l 346 675 b 340 674 344 672 343 672 b 338 672 338 674 338 672 z m 246 653 l 246 636 l 240 636 l 240 651 z m 406 646 b 408 642 407 644 408 643 b 410 639 408 642 410 640 l 406 628 b 386 636 394 622 390 624 b 406 646 392 644 399 647 z m 563 644 l 563 642 l 553 642 l 553 644 z m 568 619 l 560 619 l 558 622 b 560 626 558 622 558 624 b 568 619 565 626 568 624 z m 351 397 l 419 621 b 438 533 426 592 432 563 b 447 467 442 511 444 489 l 456 400 z m 394 611 l 390 600 l 388 601 l 392 613 z m 522 606 l 525 603 l 522 601 l 518 604 z m 349 504 b 326 444 340 485 326 442 l 321 429 b 313 417 315 424 313 419 b 303 394 308 411 304 403 b 294 371 301 388 299 379 b 290 367 293 369 290 368 b 283 367 288 365 286 365 b 281 376 282 367 281 371 b 288 393 282 382 285 388 b 296 413 292 400 294 406 b 299 425 296 418 297 422 b 311 450 301 435 301 439 b 324 472 319 460 321 464 b 329 492 324 472 325 479 b 339 522 335 510 340 525 b 343 532 340 528 342 531 b 347 538 346 533 347 536 b 353 547 349 538 350 542 b 360 572 356 554 357 563 b 367 578 361 572 364 575 b 374 583 369 581 371 582 l 381 581 b 367 551 372 564 368 556 b 364 540 367 549 365 544 b 349 521 363 536 356 525 z m 532 550 l 532 556 l 542 554 b 540 553 540 554 540 553 l 540 550 z m 560 540 l 560 543 l 568 540 l 568 538 z m 501 533 l 508 533 b 501 533 508 531 503 529 z m 581 490 b 574 485 581 486 579 485 z m 476 486 b 482 485 476 486 479 485 b 485 481 483 483 485 482 l 476 481 z m 535 467 l 533 467 l 533 463 l 521 463 b 522 472 517 467 518 469 l 514 472 b 518 481 514 476 515 479 b 535 467 528 479 533 475 z m 571 478 b 574 481 571 479 572 481 l 576 481 b 579 478 576 481 578 478 b 571 475 579 475 575 475 z m 551 478 b 560 476 557 478 560 478 l 557 472 b 553 475 554 472 554 474 b 551 478 551 476 551 476 z m 571 467 l 582 467 b 593 461 586 467 590 464 b 571 460 585 457 578 456 z m 533 443 b 540 451 533 447 536 450 b 544 450 542 451 543 451 b 549 449 546 450 547 449 l 549 442 l 540 442 b 533 443 539 443 536 443 z m 489 444 l 478 444 l 478 447 l 489 447 z m 600 442 b 592 433 596 439 593 436 b 581 428 590 431 586 429 b 594 419 586 422 590 419 b 604 413 599 419 601 417 b 599 411 601 413 600 411 l 579 411 b 567 435 571 425 567 431 b 582 447 567 439 565 436 l 596 447 b 600 442 597 447 599 446 z m 267 433 b 263 422 267 431 265 426 b 258 431 260 424 258 426 b 261 443 258 433 260 439 l 267 443 z m 538 431 l 535 431 b 532 429 533 429 533 429 l 532 428 l 525 433 l 525 439 l 535 439 l 536 436 b 538 431 536 435 538 433 z m 553 429 b 557 428 554 429 556 428 b 551 414 557 428 556 419 l 549 431 l 551 431 b 553 429 551 429 553 429 z m 519 422 l 540 422 b 531 415 540 419 535 415 b 521 417 526 415 522 417 b 513 415 518 417 515 417 l 508 422 b 519 422 511 422 515 424 z m 507 401 l 504 403 l 506 407 l 508 407 z m 525 388 b 524 385 524 388 524 386 l 514 388 b 515 390 515 389 515 389 l 518 393 b 526 392 522 393 525 392 b 525 388 526 389 526 389 z m 503 388 l 506 390 b 503 388 507 389 506 388 z m 579 372 b 571 375 578 372 572 375 b 572 376 571 376 571 376 b 576 378 575 376 576 378 b 581 372 579 375 581 374 z m 554 353 l 554 361 b 544 374 551 368 549 372 b 540 376 543 374 540 375 b 563 369 547 378 554 375 b 565 361 563 367 564 364 b 568 353 565 357 567 354 z m 499 361 l 494 361 l 494 367 l 499 367 z m 617 353 l 625 351 l 625 350 l 617 350 z m 531 350 l 531 343 l 525 343 l 525 350 z m 490 340 l 494 340 l 494 338 l 490 338 z m 449 331 l 442 331 l 442 333 l 449 333 z m 478 311 l 475 314 l 469 314 b 479 318 474 317 476 318 b 478 311 479 315 479 313 z m 524 308 l 532 317 b 536 314 532 315 533 314 b 540 308 539 311 540 310 b 531 297 540 306 536 301 b 517 301 526 297 519 300 b 524 308 521 304 522 307 z m 560 272 l 560 269 l 553 269 l 553 272 z m 543 269 l 543 258 b 535 269 538 261 535 264 z m 600 264 b 607 269 604 264 606 265 b 608 257 607 263 607 258 l 614 253 b 618 250 615 253 617 253 b 610 249 613 249 610 247 b 601 247 608 247 606 247 b 589 260 593 247 589 257 z m 293 251 l 278 251 l 278 258 l 293 258 z m 249 224 b 244 222 247 222 246 222 b 226 236 233 222 226 232 b 240 247 226 239 229 247 b 257 240 243 247 254 242 b 260 232 257 238 258 235 b 263 224 260 232 260 229 z m 499 242 l 494 242 l 494 247 l 499 247 z m 646 246 l 651 246 l 651 243 l 646 243 z m 510 242 l 529 242 l 529 238 l 515 238 b 510 242 515 239 514 240 z m 439 236 l 438 239 l 442 240 l 443 238 z m 674 50 b 660 65 669 50 660 61 l 660 68 b 661 72 661 69 661 71 b 651 83 656 75 653 79 b 650 96 651 89 650 93 b 646 100 649 97 647 97 b 643 103 644 100 643 101 b 639 107 640 104 640 106 l 635 111 l 636 111 l 636 113 l 638 113 l 638 132 l 629 132 b 622 131 626 131 625 131 b 606 132 615 131 610 131 b 590 150 621 139 596 147 l 590 163 b 593 168 590 164 592 167 b 594 172 594 169 594 171 b 596 174 594 174 594 174 b 599 176 597 174 599 175 b 590 181 600 179 594 182 b 593 190 592 182 592 185 b 606 197 593 194 597 197 b 615 200 608 197 611 197 b 613 203 615 200 615 201 b 607 207 611 204 610 206 b 607 217 604 211 604 214 b 601 221 601 221 599 222 b 599 225 600 222 599 224 b 625 240 599 233 617 240 b 646 233 626 240 642 236 l 646 222 l 640 226 b 628 219 632 226 628 225 l 628 206 l 632 203 b 642 210 635 204 638 207 l 651 218 b 654 200 657 208 657 201 b 650 194 651 200 650 197 b 654 185 650 192 651 189 b 657 156 661 174 661 164 b 668 143 656 151 660 147 b 661 133 663 139 661 136 b 664 126 661 132 663 131 b 669 119 667 122 668 121 b 675 86 672 106 674 94 b 681 53 676 78 678 67 b 674 50 678 50 676 50 z m 150 217 l 146 219 l 146 222 b 150 217 151 221 153 219 z m 210 194 b 208 193 210 193 210 193 b 206 194 207 193 206 193 b 208 201 206 197 207 200 b 210 194 211 199 213 197 z m 579 181 b 576 176 578 178 576 178 b 572 181 575 178 574 178 b 571 185 571 181 571 183 l 581 185 b 579 181 581 183 581 181 z m 167 179 b 168 181 167 181 168 181 b 171 182 169 181 169 181 b 179 178 176 182 179 181 l 179 171 l 176 169 l 167 174 z m 524 175 l 514 175 l 514 181 l 524 181 z m 540 169 b 549 164 546 168 549 168 l 540 164 z m 171 147 b 167 144 169 146 168 144 b 154 156 160 144 154 154 b 176 168 165 156 172 160 b 182 164 178 167 179 165 b 186 161 183 164 185 163 l 186 156 l 176 153 b 171 147 174 150 171 150 z m 526 147 l 525 157 b 532 154 526 156 528 156 l 540 150 z m 226 119 b 221 121 224 121 221 121 b 215 125 219 122 218 122 b 221 126 217 125 218 125 l 224 126 b 226 128 224 128 225 128 l 229 125 b 226 119 229 122 229 121 z m 160 111 b 151 111 156 110 153 110 b 158 117 151 114 154 117 b 168 111 161 117 167 111 z m 185 106 l 176 111 b 185 117 176 113 179 114 b 190 110 189 115 190 113 b 185 106 189 110 188 108 z m 544 110 b 551 114 547 111 550 113 b 557 106 554 111 557 108 l 542 106 z m 571 40 b 569 38 571 39 571 39 b 554 56 565 40 557 50 l 568 56 b 572 42 568 51 569 47 b 571 40 571 42 571 40 z "},"":{"ha":836,"x_min":0,"x_max":0,"o":"m 210 1038 l 379 1044 b 407 1065 389 1044 399 1054 l 454 1133 l 486 1063 b 513 1040 493 1047 503 1040 l 683 1042 b 703 1083 701 1042 718 1061 l 579 1264 b 539 1285 568 1281 556 1285 l 399 1281 b 358 1258 382 1281 372 1272 l 192 1081 b 210 1038 172 1060 192 1036 z m 557 1238 b 558 1229 561 1235 561 1231 b 549 1232 556 1229 553 1231 z m 411 1232 l 422 1229 b 408 1224 422 1225 417 1222 z m 394 1224 b 382 1217 393 1218 389 1217 l 378 1219 l 374 1221 b 394 1224 383 1224 390 1225 z m 372 1217 l 382 1211 l 379 1207 l 369 1211 z m 404 1215 l 418 1207 l 415 1204 l 400 1211 z m 429 1203 l 421 1201 l 418 1211 l 426 1210 z m 443 1197 l 438 1197 b 442 1199 439 1197 440 1199 b 443 1197 442 1199 442 1197 z m 572 1176 l 567 1175 l 558 1194 l 564 1196 z m 531 1194 l 540 1194 l 540 1188 l 531 1188 z m 350 1171 l 353 1169 l 351 1161 l 344 1163 z m 553 1158 l 547 1171 b 553 1158 556 1167 558 1164 z m 415 1164 b 413 1163 415 1164 414 1163 b 406 1163 411 1164 408 1163 b 415 1168 408 1167 411 1169 b 415 1164 417 1167 417 1165 z m 528 1164 b 526 1154 525 1160 525 1156 b 522 1156 524 1156 522 1156 b 519 1157 521 1156 519 1156 b 514 1160 517 1157 514 1157 z m 396 1160 b 407 1160 401 1160 404 1161 l 406 1153 b 403 1154 406 1153 404 1153 l 401 1154 b 397 1158 400 1154 399 1157 l 396 1158 z m 597 1146 l 600 1149 b 607 1151 604 1150 606 1150 b 615 1154 608 1151 611 1153 l 617 1153 b 615 1151 615 1153 615 1151 l 615 1144 b 633 1131 617 1140 622 1136 b 617 1131 625 1128 619 1126 b 611 1140 614 1133 613 1136 b 603 1142 607 1142 604 1142 b 593 1143 599 1142 596 1143 z m 319 1151 l 324 1146 l 321 1143 l 314 1149 z m 381 1144 l 388 1144 l 390 1140 l 382 1139 z m 582 1136 l 586 1126 l 583 1125 l 581 1122 b 576 1119 578 1119 576 1119 b 564 1115 575 1118 571 1117 b 574 1122 569 1119 574 1121 b 574 1126 575 1124 575 1125 l 574 1129 b 572 1131 572 1129 572 1131 b 569 1139 571 1133 569 1136 b 576 1136 572 1138 575 1136 z m 519 1125 b 529 1128 525 1125 528 1126 b 544 1131 532 1128 538 1128 l 514 1114 b 508 1117 514 1114 513 1115 l 508 1118 l 507 1118 b 504 1119 507 1118 506 1118 b 519 1125 508 1122 514 1124 z m 329 1125 l 331 1125 b 333 1124 332 1124 333 1124 l 336 1121 b 339 1125 338 1122 339 1124 b 343 1128 340 1126 340 1128 l 344 1128 b 349 1126 346 1126 346 1126 l 351 1125 b 343 1117 350 1122 347 1121 b 336 1111 342 1114 339 1113 l 329 1118 b 321 1129 328 1122 324 1124 b 328 1126 325 1126 326 1126 z m 406 1122 b 397 1125 404 1122 401 1124 l 404 1128 b 406 1122 408 1128 410 1122 z m 304 1119 l 318 1114 b 321 1115 318 1114 319 1114 l 336 1110 b 329 1106 335 1106 332 1106 l 326 1104 b 324 1108 325 1106 324 1106 l 311 1111 l 301 1117 z m 378 1115 l 381 1119 l 390 1115 l 386 1111 z m 292 1118 l 297 1114 l 290 1107 l 286 1111 z m 663 1104 l 674 1085 l 668 1082 b 660 1097 669 1096 668 1096 z m 324 1090 b 304 1092 315 1088 310 1089 l 304 1094 l 306 1096 b 314 1100 306 1099 308 1100 l 325 1096 z m 394 1089 b 382 1092 392 1089 388 1089 b 396 1094 386 1096 390 1096 z m 578 1083 l 575 1083 b 569 1086 572 1083 571 1085 l 574 1093 l 576 1093 l 576 1094 b 581 1089 579 1092 581 1090 l 579 1089 b 578 1083 581 1088 579 1085 z m 638 1082 l 631 1083 l 632 1090 l 639 1090 z m 342 1079 l 331 1085 b 343 1088 335 1088 335 1086 l 349 1088 z m 361 1088 l 367 1086 l 365 1079 l 360 1081 z m 601 1072 b 599 1075 601 1072 600 1075 b 596 1076 599 1075 597 1075 l 604 1085 l 614 1075 z m 550 1075 b 544 1071 553 1076 551 1075 b 533 1067 543 1068 539 1067 b 533 1076 536 1069 536 1074 b 539 1078 536 1076 539 1078 l 542 1078 l 556 1081 b 550 1075 553 1076 550 1075 z m 660 1076 b 661 1081 661 1079 661 1081 l 663 1079 b 661 1075 663 1078 663 1076 l 657 1072 z m 622 1071 b 621 1076 619 1071 618 1072 b 626 1074 624 1074 625 1074 l 628 1072 b 622 1071 626 1071 625 1071 z m 768 33 l 664 615 b 631 768 651 682 633 757 b 601 864 622 799 613 833 b 494 960 581 911 549 956 b 414 958 465 963 438 963 b 321 942 382 954 351 947 b 300 925 311 939 304 933 b 169 610 256 821 211 715 b 85 372 139 532 110 453 b -11 44 51 264 18 153 b 15 8 -14 25 -3 8 l 221 4 b 249 25 235 4 244 11 l 279 153 l 489 194 l 503 25 b 531 0 504 8 514 0 l 740 0 b 768 33 758 0 771 15 z m 328 908 l 333 908 l 333 900 l 328 900 z m 497 875 l 501 875 l 501 864 l 497 864 z m 486 853 b 493 851 486 851 489 851 b 490 840 493 846 492 843 l 486 844 z m 336 844 b 329 828 332 838 329 832 l 329 846 b 332 844 329 846 331 844 z m 513 842 b 508 836 510 839 508 838 l 503 836 b 501 840 503 839 503 839 l 501 846 l 517 844 b 513 842 515 844 514 843 z m 499 844 l 501 839 l 501 836 l 499 840 z m 528 829 b 540 832 532 829 536 831 l 538 828 b 544 819 538 824 540 822 b 539 817 542 818 540 817 l 521 817 l 518 819 b 528 829 521 826 524 829 z m 524 792 b 536 788 528 792 532 790 b 535 785 535 786 535 786 b 532 781 535 783 533 782 b 525 783 529 782 528 783 b 518 786 522 783 519 785 b 524 792 518 790 521 792 z m 411 783 l 413 783 l 411 779 l 408 781 z m 431 772 b 436 774 431 772 432 774 b 439 765 438 772 439 769 b 433 765 436 765 435 764 l 426 765 l 425 772 z m 547 747 b 554 740 551 747 554 744 b 549 735 554 739 551 736 l 540 735 b 538 739 539 736 538 738 b 540 743 538 742 539 743 b 547 747 543 744 546 744 z m 242 693 b 242 671 243 686 243 678 b 233 686 239 671 233 683 b 242 693 233 689 243 696 z m 338 675 b 339 678 338 676 338 678 l 346 675 b 340 674 344 672 343 672 b 338 672 338 674 338 672 z m 246 653 l 246 636 l 240 636 l 240 651 z m 406 646 b 408 642 407 644 408 643 b 410 639 408 642 410 640 l 406 628 b 386 636 394 622 390 624 b 406 646 392 644 399 647 z m 563 644 l 563 642 l 553 642 l 553 644 z m 568 619 l 560 619 l 558 622 b 560 626 558 622 558 624 b 568 619 565 626 568 624 z m 351 397 l 419 621 b 438 533 426 592 432 563 b 447 467 442 511 444 489 l 456 400 z m 394 611 l 390 600 l 388 601 l 392 613 z m 522 606 l 525 603 l 522 601 l 518 604 z m 349 504 b 326 444 340 485 326 442 l 321 429 b 313 417 315 424 313 419 b 303 394 308 411 304 403 b 294 371 301 388 299 379 b 290 367 293 369 290 368 b 283 367 288 365 286 365 b 281 376 282 367 281 371 b 288 393 282 382 285 388 b 296 413 292 400 294 406 b 299 425 296 418 297 422 b 311 450 301 435 301 439 b 324 472 319 460 321 464 b 329 492 324 472 325 479 b 339 522 335 510 340 525 b 343 532 340 528 342 531 b 347 538 346 533 347 536 b 353 547 349 538 350 542 b 360 572 356 554 357 563 b 367 578 361 572 364 575 b 374 583 369 581 371 582 l 381 581 b 367 551 372 564 368 556 b 364 540 367 549 365 544 b 349 521 363 536 356 525 z m 532 550 l 532 556 l 542 554 b 540 553 540 554 540 553 l 540 550 z m 560 540 l 560 543 l 568 540 l 568 538 z m 501 533 l 508 533 b 501 533 508 531 503 529 z m 581 490 b 574 485 581 486 579 485 z m 476 486 b 482 485 476 486 479 485 b 485 481 483 483 485 482 l 476 481 z m 535 467 l 533 467 l 533 463 l 521 463 b 522 472 517 467 518 469 l 514 472 b 518 481 514 476 515 479 b 535 467 528 479 533 475 z m 571 478 b 574 481 571 479 572 481 l 576 481 b 579 478 576 481 578 478 b 571 475 579 475 575 475 z m 551 478 b 560 476 557 478 560 478 l 557 472 b 553 475 554 472 554 474 b 551 478 551 476 551 476 z m 571 467 l 582 467 b 593 461 586 467 590 464 b 571 460 585 457 578 456 z m 533 443 b 540 451 533 447 536 450 b 544 450 542 451 543 451 b 549 449 546 450 547 449 l 549 442 l 540 442 b 533 443 539 443 536 443 z m 489 444 l 478 444 l 478 447 l 489 447 z m 600 442 b 592 433 596 439 593 436 b 581 428 590 431 586 429 b 594 419 586 422 590 419 b 604 413 599 419 601 417 b 599 411 601 413 600 411 l 579 411 b 567 435 571 425 567 431 b 582 447 567 439 565 436 l 596 447 b 600 442 597 447 599 446 z m 267 433 b 263 422 267 431 265 426 b 258 431 260 424 258 426 b 261 443 258 433 260 439 l 267 443 z m 538 431 l 535 431 b 532 429 533 429 533 429 l 532 428 l 525 433 l 525 439 l 535 439 l 536 436 b 538 431 536 435 538 433 z m 553 429 b 557 428 554 429 556 428 b 551 414 557 428 556 419 l 549 431 l 551 431 b 553 429 551 429 553 429 z m 519 422 l 540 422 b 531 415 540 419 535 415 b 521 417 526 415 522 417 b 513 415 518 417 515 417 l 508 422 b 519 422 511 422 515 424 z m 507 401 l 504 403 l 506 407 l 508 407 z m 525 388 b 524 385 524 388 524 386 l 514 388 b 515 390 515 389 515 389 l 518 393 b 526 392 522 393 525 392 b 525 388 526 389 526 389 z m 503 388 l 506 390 b 503 388 507 389 506 388 z m 579 372 b 571 375 578 372 572 375 b 572 376 571 376 571 376 b 576 378 575 376 576 378 b 581 372 579 375 581 374 z m 554 353 l 554 361 b 544 374 551 368 549 372 b 540 376 543 374 540 375 b 563 369 547 378 554 375 b 565 361 563 367 564 364 b 568 353 565 357 567 354 z m 499 361 l 494 361 l 494 367 l 499 367 z m 617 353 l 625 351 l 625 350 l 617 350 z m 531 350 l 531 343 l 525 343 l 525 350 z m 490 340 l 494 340 l 494 338 l 490 338 z m 449 331 l 442 331 l 442 333 l 449 333 z m 478 311 l 475 314 l 469 314 b 479 318 474 317 476 318 b 478 311 479 315 479 313 z m 524 308 l 532 317 b 536 314 532 315 533 314 b 540 308 539 311 540 310 b 531 297 540 306 536 301 b 517 301 526 297 519 300 b 524 308 521 304 522 307 z m 560 272 l 560 269 l 553 269 l 553 272 z m 543 269 l 543 258 b 535 269 538 261 535 264 z m 600 264 b 607 269 604 264 606 265 b 608 257 607 263 607 258 l 614 253 b 618 250 615 253 617 253 b 610 249 613 249 610 247 b 601 247 608 247 606 247 b 589 260 593 247 589 257 z m 293 251 l 278 251 l 278 258 l 293 258 z m 249 224 b 244 222 247 222 246 222 b 226 236 233 222 226 232 b 240 247 226 239 229 247 b 257 240 243 247 254 242 b 260 232 257 238 258 235 b 263 224 260 232 260 229 z m 499 242 l 494 242 l 494 247 l 499 247 z m 646 246 l 651 246 l 651 243 l 646 243 z m 510 242 l 529 242 l 529 238 l 515 238 b 510 242 515 239 514 240 z m 439 236 l 438 239 l 442 240 l 443 238 z m 674 50 b 660 65 669 50 660 61 l 660 68 b 661 72 661 69 661 71 b 651 83 656 75 653 79 b 650 96 651 89 650 93 b 646 100 649 97 647 97 b 643 103 644 100 643 101 b 639 107 640 104 640 106 l 635 111 l 636 111 l 636 113 l 638 113 l 638 132 l 629 132 b 622 131 626 131 625 131 b 606 132 615 131 610 131 b 590 150 621 139 596 147 l 590 163 b 593 168 590 164 592 167 b 594 172 594 169 594 171 b 596 174 594 174 594 174 b 599 176 597 174 599 175 b 590 181 600 179 594 182 b 593 190 592 182 592 185 b 606 197 593 194 597 197 b 615 200 608 197 611 197 b 613 203 615 200 615 201 b 607 207 611 204 610 206 b 607 217 604 211 604 214 b 601 221 601 221 599 222 b 599 225 600 222 599 224 b 625 240 599 233 617 240 b 646 233 626 240 642 236 l 646 222 l 640 226 b 628 219 632 226 628 225 l 628 206 l 632 203 b 642 210 635 204 638 207 l 651 218 b 654 200 657 208 657 201 b 650 194 651 200 650 197 b 654 185 650 192 651 189 b 657 156 661 174 661 164 b 668 143 656 151 660 147 b 661 133 663 139 661 136 b 664 126 661 132 663 131 b 669 119 667 122 668 121 b 675 86 672 106 674 94 b 681 53 676 78 678 67 b 674 50 678 50 676 50 z m 150 217 l 146 219 l 146 222 b 150 217 151 221 153 219 z m 210 194 b 208 193 210 193 210 193 b 206 194 207 193 206 193 b 208 201 206 197 207 200 b 210 194 211 199 213 197 z m 579 181 b 576 176 578 178 576 178 b 572 181 575 178 574 178 b 571 185 571 181 571 183 l 581 185 b 579 181 581 183 581 181 z m 167 179 b 168 181 167 181 168 181 b 171 182 169 181 169 181 b 179 178 176 182 179 181 l 179 171 l 176 169 l 167 174 z m 524 175 l 514 175 l 514 181 l 524 181 z m 540 169 b 549 164 546 168 549 168 l 540 164 z m 171 147 b 167 144 169 146 168 144 b 154 156 160 144 154 154 b 176 168 165 156 172 160 b 182 164 178 167 179 165 b 186 161 183 164 185 163 l 186 156 l 176 153 b 171 147 174 150 171 150 z m 526 147 l 525 157 b 532 154 526 156 528 156 l 540 150 z m 226 119 b 221 121 224 121 221 121 b 215 125 219 122 218 122 b 221 126 217 125 218 125 l 224 126 b 226 128 224 128 225 128 l 229 125 b 226 119 229 122 229 121 z m 160 111 b 151 111 156 110 153 110 b 158 117 151 114 154 117 b 168 111 161 117 167 111 z m 185 106 l 176 111 b 185 117 176 113 179 114 b 190 110 189 115 190 113 b 185 106 189 110 188 108 z m 544 110 b 551 114 547 111 550 113 b 557 106 554 111 557 108 l 542 106 z m 571 40 b 569 38 571 39 571 39 b 554 56 565 40 557 50 l 568 56 b 572 42 568 51 569 47 b 571 40 571 42 571 40 z "},"":{"ha":836,"x_min":0,"x_max":0,"o":"m 319 1035 b 442 1158 382 1035 438 1083 b 346 1269 444 1221 396 1269 b 236 1150 294 1269 240 1224 b 319 1035 233 1076 281 1035 z m 569 1035 b 692 1158 632 1035 688 1083 b 596 1269 694 1221 646 1269 b 486 1150 544 1269 490 1224 b 569 1035 483 1076 531 1035 z m 308 1236 b 313 1218 310 1233 310 1226 l 307 1215 b 301 1226 306 1217 301 1222 b 308 1236 301 1228 304 1232 z m 603 1236 l 601 1226 l 590 1226 l 588 1233 z m 421 1188 l 424 1185 l 422 1185 l 419 1186 z m 533 1181 b 543 1185 533 1185 540 1185 l 543 1181 b 543 1178 543 1181 542 1179 l 543 1171 l 536 1171 b 533 1181 533 1174 532 1178 z m 640 1175 l 646 1172 b 640 1154 643 1164 643 1157 b 635 1164 638 1158 635 1163 b 640 1175 635 1168 639 1174 z m 414 1139 b 417 1138 415 1139 417 1139 l 421 1138 b 422 1135 421 1136 421 1136 l 422 1129 b 415 1128 419 1129 417 1129 b 406 1129 411 1128 408 1129 z m 551 1128 b 549 1122 550 1125 549 1124 l 540 1122 b 538 1129 538 1122 536 1125 b 542 1138 538 1133 539 1136 b 553 1133 547 1136 551 1135 b 551 1128 553 1132 553 1131 z m 340 1119 l 351 1119 l 351 1117 l 340 1117 z m 268 1104 b 258 1108 265 1104 258 1104 b 263 1118 258 1111 260 1115 l 269 1118 l 269 1111 b 268 1108 268 1110 268 1108 z m 404 1118 l 413 1118 b 414 1113 413 1117 414 1115 b 415 1107 415 1110 415 1108 b 404 1103 414 1106 410 1104 b 400 1111 401 1104 400 1107 b 404 1118 400 1115 401 1118 z m 668 1114 l 669 1114 l 667 1111 l 665 1113 z m 557 1106 b 556 1103 556 1104 556 1104 l 551 1103 b 549 1101 551 1101 550 1101 l 540 1111 b 550 1113 543 1111 546 1113 b 557 1111 551 1111 554 1111 z m 600 1083 l 589 1083 l 589 1086 l 600 1086 z m 332 1072 l 343 1072 l 343 1063 l 329 1065 z m 768 33 l 664 615 b 631 768 651 682 633 757 b 601 864 622 799 613 833 b 494 960 581 911 549 956 b 414 958 465 963 438 963 b 321 942 382 954 351 947 b 300 925 311 939 304 933 b 169 610 256 821 211 715 b 85 372 139 532 110 453 b -11 44 51 264 18 153 b 15 8 -14 25 -3 8 l 221 4 b 249 25 235 4 244 11 l 279 153 l 489 194 l 503 25 b 531 0 504 8 514 0 l 740 0 b 768 33 758 0 771 15 z m 328 908 l 333 908 l 333 900 l 328 900 z m 497 875 l 501 875 l 501 864 l 497 864 z m 486 853 b 493 851 486 851 489 851 b 490 840 493 846 492 843 l 486 844 z m 336 844 b 329 828 332 838 329 832 l 329 846 b 332 844 329 846 331 844 z m 513 842 b 508 836 510 839 508 838 l 503 836 b 501 840 503 839 503 839 l 501 846 l 517 844 b 513 842 515 844 514 843 z m 499 844 l 501 839 l 501 836 l 499 840 z m 528 829 b 540 832 532 829 536 831 l 538 828 b 544 819 538 824 540 822 b 539 817 542 818 540 817 l 521 817 l 518 819 b 528 829 521 826 524 829 z m 524 792 b 536 788 528 792 532 790 b 535 785 535 786 535 786 b 532 781 535 783 533 782 b 525 783 529 782 528 783 b 518 786 522 783 519 785 b 524 792 518 790 521 792 z m 411 783 l 413 783 l 411 779 l 408 781 z m 431 772 b 436 774 431 772 432 774 b 439 765 438 772 439 769 b 433 765 436 765 435 764 l 426 765 l 425 772 z m 547 747 b 554 740 551 747 554 744 b 549 735 554 739 551 736 l 540 735 b 538 739 539 736 538 738 b 540 743 538 742 539 743 b 547 747 543 744 546 744 z m 242 693 b 242 671 243 686 243 678 b 233 686 239 671 233 683 b 242 693 233 689 243 696 z m 338 675 b 339 678 338 676 338 678 l 346 675 b 340 674 344 672 343 672 b 338 672 338 674 338 672 z m 246 653 l 246 636 l 240 636 l 240 651 z m 406 646 b 408 642 407 644 408 643 b 410 639 408 642 410 640 l 406 628 b 386 636 394 622 390 624 b 406 646 392 644 399 647 z m 563 644 l 563 642 l 553 642 l 553 644 z m 568 619 l 560 619 l 558 622 b 560 626 558 622 558 624 b 568 619 565 626 568 624 z m 351 397 l 419 621 b 438 533 426 592 432 563 b 447 467 442 511 444 489 l 456 400 z m 394 611 l 390 600 l 388 601 l 392 613 z m 522 606 l 525 603 l 522 601 l 518 604 z m 349 504 b 326 444 340 485 326 442 l 321 429 b 313 417 315 424 313 419 b 303 394 308 411 304 403 b 294 371 301 388 299 379 b 290 367 293 369 290 368 b 283 367 288 365 286 365 b 281 376 282 367 281 371 b 288 393 282 382 285 388 b 296 413 292 400 294 406 b 299 425 296 418 297 422 b 311 450 301 435 301 439 b 324 472 319 460 321 464 b 329 492 324 472 325 479 b 339 522 335 510 340 525 b 343 532 340 528 342 531 b 347 538 346 533 347 536 b 353 547 349 538 350 542 b 360 572 356 554 357 563 b 367 578 361 572 364 575 b 374 583 369 581 371 582 l 381 581 b 367 551 372 564 368 556 b 364 540 367 549 365 544 b 349 521 363 536 356 525 z m 532 550 l 532 556 l 542 554 b 540 553 540 554 540 553 l 540 550 z m 560 540 l 560 543 l 568 540 l 568 538 z m 501 533 l 508 533 b 501 533 508 531 503 529 z m 581 490 b 574 485 581 486 579 485 z m 476 486 b 482 485 476 486 479 485 b 485 481 483 483 485 482 l 476 481 z m 535 467 l 533 467 l 533 463 l 521 463 b 522 472 517 467 518 469 l 514 472 b 518 481 514 476 515 479 b 535 467 528 479 533 475 z m 571 478 b 574 481 571 479 572 481 l 576 481 b 579 478 576 481 578 478 b 571 475 579 475 575 475 z m 551 478 b 560 476 557 478 560 478 l 557 472 b 553 475 554 472 554 474 b 551 478 551 476 551 476 z m 571 467 l 582 467 b 593 461 586 467 590 464 b 571 460 585 457 578 456 z m 533 443 b 540 451 533 447 536 450 b 544 450 542 451 543 451 b 549 449 546 450 547 449 l 549 442 l 540 442 b 533 443 539 443 536 443 z m 489 444 l 478 444 l 478 447 l 489 447 z m 600 442 b 592 433 596 439 593 436 b 581 428 590 431 586 429 b 594 419 586 422 590 419 b 604 413 599 419 601 417 b 599 411 601 413 600 411 l 579 411 b 567 435 571 425 567 431 b 582 447 567 439 565 436 l 596 447 b 600 442 597 447 599 446 z m 267 433 b 263 422 267 431 265 426 b 258 431 260 424 258 426 b 261 443 258 433 260 439 l 267 443 z m 538 431 l 535 431 b 532 429 533 429 533 429 l 532 428 l 525 433 l 525 439 l 535 439 l 536 436 b 538 431 536 435 538 433 z m 553 429 b 557 428 554 429 556 428 b 551 414 557 428 556 419 l 549 431 l 551 431 b 553 429 551 429 553 429 z m 519 422 l 540 422 b 531 415 540 419 535 415 b 521 417 526 415 522 417 b 513 415 518 417 515 417 l 508 422 b 519 422 511 422 515 424 z m 507 401 l 504 403 l 506 407 l 508 407 z m 525 388 b 524 385 524 388 524 386 l 514 388 b 515 390 515 389 515 389 l 518 393 b 526 392 522 393 525 392 b 525 388 526 389 526 389 z m 503 388 l 506 390 b 503 388 507 389 506 388 z m 579 372 b 571 375 578 372 572 375 b 572 376 571 376 571 376 b 576 378 575 376 576 378 b 581 372 579 375 581 374 z m 554 353 l 554 361 b 544 374 551 368 549 372 b 540 376 543 374 540 375 b 563 369 547 378 554 375 b 565 361 563 367 564 364 b 568 353 565 357 567 354 z m 499 361 l 494 361 l 494 367 l 499 367 z m 617 353 l 625 351 l 625 350 l 617 350 z m 531 350 l 531 343 l 525 343 l 525 350 z m 490 340 l 494 340 l 494 338 l 490 338 z m 449 331 l 442 331 l 442 333 l 449 333 z m 478 311 l 475 314 l 469 314 b 479 318 474 317 476 318 b 478 311 479 315 479 313 z m 524 308 l 532 317 b 536 314 532 315 533 314 b 540 308 539 311 540 310 b 531 297 540 306 536 301 b 517 301 526 297 519 300 b 524 308 521 304 522 307 z m 560 272 l 560 269 l 553 269 l 553 272 z m 543 269 l 543 258 b 535 269 538 261 535 264 z m 600 264 b 607 269 604 264 606 265 b 608 257 607 263 607 258 l 614 253 b 618 250 615 253 617 253 b 610 249 613 249 610 247 b 601 247 608 247 606 247 b 589 260 593 247 589 257 z m 293 251 l 278 251 l 278 258 l 293 258 z m 249 224 b 244 222 247 222 246 222 b 226 236 233 222 226 232 b 240 247 226 239 229 247 b 257 240 243 247 254 242 b 260 232 257 238 258 235 b 263 224 260 232 260 229 z m 499 242 l 494 242 l 494 247 l 499 247 z m 646 246 l 651 246 l 651 243 l 646 243 z m 510 242 l 529 242 l 529 238 l 515 238 b 510 242 515 239 514 240 z m 439 236 l 438 239 l 442 240 l 443 238 z m 674 50 b 660 65 669 50 660 61 l 660 68 b 661 72 661 69 661 71 b 651 83 656 75 653 79 b 650 96 651 89 650 93 b 646 100 649 97 647 97 b 643 103 644 100 643 101 b 639 107 640 104 640 106 l 635 111 l 636 111 l 636 113 l 638 113 l 638 132 l 629 132 b 622 131 626 131 625 131 b 606 132 615 131 610 131 b 590 150 621 139 596 147 l 590 163 b 593 168 590 164 592 167 b 594 172 594 169 594 171 b 596 174 594 174 594 174 b 599 176 597 174 599 175 b 590 181 600 179 594 182 b 593 190 592 182 592 185 b 606 197 593 194 597 197 b 615 200 608 197 611 197 b 613 203 615 200 615 201 b 607 207 611 204 610 206 b 607 217 604 211 604 214 b 601 221 601 221 599 222 b 599 225 600 222 599 224 b 625 240 599 233 617 240 b 646 233 626 240 642 236 l 646 222 l 640 226 b 628 219 632 226 628 225 l 628 206 l 632 203 b 642 210 635 204 638 207 l 651 218 b 654 200 657 208 657 201 b 650 194 651 200 650 197 b 654 185 650 192 651 189 b 657 156 661 174 661 164 b 668 143 656 151 660 147 b 661 133 663 139 661 136 b 664 126 661 132 663 131 b 669 119 667 122 668 121 b 675 86 672 106 674 94 b 681 53 676 78 678 67 b 674 50 678 50 676 50 z m 150 217 l 146 219 l 146 222 b 150 217 151 221 153 219 z m 210 194 b 208 193 210 193 210 193 b 206 194 207 193 206 193 b 208 201 206 197 207 200 b 210 194 211 199 213 197 z m 579 181 b 576 176 578 178 576 178 b 572 181 575 178 574 178 b 571 185 571 181 571 183 l 581 185 b 579 181 581 183 581 181 z m 167 179 b 168 181 167 181 168 181 b 171 182 169 181 169 181 b 179 178 176 182 179 181 l 179 171 l 176 169 l 167 174 z m 524 175 l 514 175 l 514 181 l 524 181 z m 540 169 b 549 164 546 168 549 168 l 540 164 z m 171 147 b 167 144 169 146 168 144 b 154 156 160 144 154 154 b 176 168 165 156 172 160 b 182 164 178 167 179 165 b 186 161 183 164 185 163 l 186 156 l 176 153 b 171 147 174 150 171 150 z m 526 147 l 525 157 b 532 154 526 156 528 156 l 540 150 z m 226 119 b 221 121 224 121 221 121 b 215 125 219 122 218 122 b 221 126 217 125 218 125 l 224 126 b 226 128 224 128 225 128 l 229 125 b 226 119 229 122 229 121 z m 160 111 b 151 111 156 110 153 110 b 158 117 151 114 154 117 b 168 111 161 117 167 111 z m 185 106 l 176 111 b 185 117 176 113 179 114 b 190 110 189 115 190 113 b 185 106 189 110 188 108 z m 544 110 b 551 114 547 111 550 113 b 557 106 554 111 557 108 l 542 106 z m 571 40 b 569 38 571 39 571 39 b 554 56 565 40 557 50 l 568 56 b 572 42 568 51 569 47 b 571 40 571 42 571 40 z "},"":{"ha":836,"x_min":0,"x_max":0,"o":"m 361 1058 b 401 1038 374 1043 385 1038 l 542 1042 b 568 1078 560 1042 578 1060 l 474 1251 b 446 1272 467 1264 456 1272 l 246 1265 b 228 1222 228 1265 210 1244 z m 360 1238 b 361 1240 361 1239 361 1239 l 369 1242 b 367 1233 374 1242 369 1235 l 360 1232 z m 344 1225 b 344 1226 346 1226 344 1226 b 361 1217 353 1226 361 1218 b 360 1213 363 1214 361 1214 l 354 1213 b 351 1219 351 1214 351 1217 b 342 1225 353 1222 350 1222 z m 408 1214 l 410 1206 b 403 1210 406 1206 403 1208 b 408 1214 404 1211 406 1213 z m 340 1201 b 349 1208 343 1206 344 1207 l 350 1203 b 344 1199 346 1201 343 1200 b 340 1200 342 1200 340 1200 z m 361 1185 b 357 1189 361 1186 360 1188 b 365 1194 360 1192 363 1196 b 367 1192 365 1193 367 1192 b 368 1189 368 1192 368 1192 b 364 1183 369 1188 368 1186 b 361 1185 363 1185 363 1185 z m 375 1168 b 367 1172 371 1168 367 1169 b 375 1178 368 1175 371 1178 z m 482 1157 b 489 1164 482 1157 489 1157 b 489 1157 489 1157 493 1157 l 489 1150 b 479 1150 486 1150 482 1146 b 482 1157 479 1150 479 1153 z m 385 1158 b 385 1156 386 1156 386 1156 b 383 1153 385 1156 383 1154 b 379 1151 382 1153 382 1153 l 375 1151 l 365 1149 b 360 1157 363 1150 361 1153 b 374 1163 365 1160 369 1161 b 385 1158 379 1164 383 1164 z m 436 1163 b 444 1160 438 1160 442 1158 b 451 1156 449 1158 451 1156 b 433 1151 449 1154 442 1151 z m 435 1104 l 436 1099 l 433 1093 l 418 1089 b 435 1104 421 1094 429 1099 z m 471 1083 b 471 1090 475 1088 471 1090 b 478 1083 478 1088 478 1083 b 478 1074 475 1081 475 1078 b 465 1083 475 1074 465 1081 z m 768 33 l 664 615 b 631 768 651 682 633 757 b 601 864 622 799 613 833 b 494 960 581 911 549 956 b 414 958 465 963 438 963 b 321 942 382 954 351 947 b 300 925 311 939 304 933 b 169 610 256 821 211 715 b 85 372 139 532 110 453 b -11 44 51 264 18 153 b 15 8 -14 25 -3 8 l 221 4 b 249 25 235 4 244 11 l 279 153 l 489 194 l 503 25 b 531 0 504 8 514 0 l 740 0 b 768 33 758 0 771 15 z m 328 908 l 333 908 l 333 900 l 328 900 z m 497 875 l 501 875 l 501 864 l 497 864 z m 486 853 b 493 851 486 851 489 851 b 490 840 493 846 492 843 l 486 844 z m 336 844 b 329 828 332 838 329 832 l 329 846 b 332 844 329 846 331 844 z m 513 842 b 508 836 510 839 508 838 l 503 836 b 501 840 503 839 503 839 l 501 846 l 517 844 b 513 842 515 844 514 843 z m 499 844 l 501 839 l 501 836 l 499 840 z m 528 829 b 540 832 532 829 536 831 l 538 828 b 544 819 538 824 540 822 b 539 817 542 818 540 817 l 521 817 l 518 819 b 528 829 521 826 524 829 z m 524 792 b 536 788 528 792 532 790 b 535 785 535 786 535 786 b 532 781 535 783 533 782 b 525 783 529 782 528 783 b 518 786 522 783 519 785 b 524 792 518 790 521 792 z m 411 783 l 413 783 l 411 779 l 408 781 z m 431 772 b 436 774 431 772 432 774 b 439 765 438 772 439 769 b 433 765 436 765 435 764 l 426 765 l 425 772 z m 547 747 b 554 740 551 747 554 744 b 549 735 554 739 551 736 l 540 735 b 538 739 539 736 538 738 b 540 743 538 742 539 743 b 547 747 543 744 546 744 z m 242 693 b 242 671 243 686 243 678 b 233 686 239 671 233 683 b 242 693 233 689 243 696 z m 338 675 b 339 678 338 676 338 678 l 346 675 b 340 674 344 672 343 672 b 338 672 338 674 338 672 z m 246 653 l 246 636 l 240 636 l 240 651 z m 406 646 b 408 642 407 644 408 643 b 410 639 408 642 410 640 l 406 628 b 386 636 394 622 390 624 b 406 646 392 644 399 647 z m 563 644 l 563 642 l 553 642 l 553 644 z m 568 619 l 560 619 l 558 622 b 560 626 558 622 558 624 b 568 619 565 626 568 624 z m 351 397 l 419 621 b 438 533 426 592 432 563 b 447 467 442 511 444 489 l 456 400 z m 394 611 l 390 600 l 388 601 l 392 613 z m 522 606 l 525 603 l 522 601 l 518 604 z m 349 504 b 326 444 340 485 326 442 l 321 429 b 313 417 315 424 313 419 b 303 394 308 411 304 403 b 294 371 301 388 299 379 b 290 367 293 369 290 368 b 283 367 288 365 286 365 b 281 376 282 367 281 371 b 288 393 282 382 285 388 b 296 413 292 400 294 406 b 299 425 296 418 297 422 b 311 450 301 435 301 439 b 324 472 319 460 321 464 b 329 492 324 472 325 479 b 339 522 335 510 340 525 b 343 532 340 528 342 531 b 347 538 346 533 347 536 b 353 547 349 538 350 542 b 360 572 356 554 357 563 b 367 578 361 572 364 575 b 374 583 369 581 371 582 l 381 581 b 367 551 372 564 368 556 b 364 540 367 549 365 544 b 349 521 363 536 356 525 z m 532 550 l 532 556 l 542 554 b 540 553 540 554 540 553 l 540 550 z m 560 540 l 560 543 l 568 540 l 568 538 z m 501 533 l 508 533 b 501 533 508 531 503 529 z m 581 490 b 574 485 581 486 579 485 z m 476 486 b 482 485 476 486 479 485 b 485 481 483 483 485 482 l 476 481 z m 535 467 l 533 467 l 533 463 l 521 463 b 522 472 517 467 518 469 l 514 472 b 518 481 514 476 515 479 b 535 467 528 479 533 475 z m 571 478 b 574 481 571 479 572 481 l 576 481 b 579 478 576 481 578 478 b 571 475 579 475 575 475 z m 551 478 b 560 476 557 478 560 478 l 557 472 b 553 475 554 472 554 474 b 551 478 551 476 551 476 z m 571 467 l 582 467 b 593 461 586 467 590 464 b 571 460 585 457 578 456 z m 533 443 b 540 451 533 447 536 450 b 544 450 542 451 543 451 b 549 449 546 450 547 449 l 549 442 l 540 442 b 533 443 539 443 536 443 z m 489 444 l 478 444 l 478 447 l 489 447 z m 600 442 b 592 433 596 439 593 436 b 581 428 590 431 586 429 b 594 419 586 422 590 419 b 604 413 599 419 601 417 b 599 411 601 413 600 411 l 579 411 b 567 435 571 425 567 431 b 582 447 567 439 565 436 l 596 447 b 600 442 597 447 599 446 z m 267 433 b 263 422 267 431 265 426 b 258 431 260 424 258 426 b 261 443 258 433 260 439 l 267 443 z m 538 431 l 535 431 b 532 429 533 429 533 429 l 532 428 l 525 433 l 525 439 l 535 439 l 536 436 b 538 431 536 435 538 433 z m 553 429 b 557 428 554 429 556 428 b 551 414 557 428 556 419 l 549 431 l 551 431 b 553 429 551 429 553 429 z m 519 422 l 540 422 b 531 415 540 419 535 415 b 521 417 526 415 522 417 b 513 415 518 417 515 417 l 508 422 b 519 422 511 422 515 424 z m 507 401 l 504 403 l 506 407 l 508 407 z m 525 388 b 524 385 524 388 524 386 l 514 388 b 515 390 515 389 515 389 l 518 393 b 526 392 522 393 525 392 b 525 388 526 389 526 389 z m 503 388 l 506 390 b 503 388 507 389 506 388 z m 579 372 b 571 375 578 372 572 375 b 572 376 571 376 571 376 b 576 378 575 376 576 378 b 581 372 579 375 581 374 z m 554 353 l 554 361 b 544 374 551 368 549 372 b 540 376 543 374 540 375 b 563 369 547 378 554 375 b 565 361 563 367 564 364 b 568 353 565 357 567 354 z m 499 361 l 494 361 l 494 367 l 499 367 z m 617 353 l 625 351 l 625 350 l 617 350 z m 531 350 l 531 343 l 525 343 l 525 350 z m 490 340 l 494 340 l 494 338 l 490 338 z m 449 331 l 442 331 l 442 333 l 449 333 z m 478 311 l 475 314 l 469 314 b 479 318 474 317 476 318 b 478 311 479 315 479 313 z m 524 308 l 532 317 b 536 314 532 315 533 314 b 540 308 539 311 540 310 b 531 297 540 306 536 301 b 517 301 526 297 519 300 b 524 308 521 304 522 307 z m 560 272 l 560 269 l 553 269 l 553 272 z m 543 269 l 543 258 b 535 269 538 261 535 264 z m 600 264 b 607 269 604 264 606 265 b 608 257 607 263 607 258 l 614 253 b 618 250 615 253 617 253 b 610 249 613 249 610 247 b 601 247 608 247 606 247 b 589 260 593 247 589 257 z m 293 251 l 278 251 l 278 258 l 293 258 z m 249 224 b 244 222 247 222 246 222 b 226 236 233 222 226 232 b 240 247 226 239 229 247 b 257 240 243 247 254 242 b 260 232 257 238 258 235 b 263 224 260 232 260 229 z m 499 242 l 494 242 l 494 247 l 499 247 z m 646 246 l 651 246 l 651 243 l 646 243 z m 510 242 l 529 242 l 529 238 l 515 238 b 510 242 515 239 514 240 z m 439 236 l 438 239 l 442 240 l 443 238 z m 674 50 b 660 65 669 50 660 61 l 660 68 b 661 72 661 69 661 71 b 651 83 656 75 653 79 b 650 96 651 89 650 93 b 646 100 649 97 647 97 b 643 103 644 100 643 101 b 639 107 640 104 640 106 l 635 111 l 636 111 l 636 113 l 638 113 l 638 132 l 629 132 b 622 131 626 131 625 131 b 606 132 615 131 610 131 b 590 150 621 139 596 147 l 590 163 b 593 168 590 164 592 167 b 594 172 594 169 594 171 b 596 174 594 174 594 174 b 599 176 597 174 599 175 b 590 181 600 179 594 182 b 593 190 592 182 592 185 b 606 197 593 194 597 197 b 615 200 608 197 611 197 b 613 203 615 200 615 201 b 607 207 611 204 610 206 b 607 217 604 211 604 214 b 601 221 601 221 599 222 b 599 225 600 222 599 224 b 625 240 599 233 617 240 b 646 233 626 240 642 236 l 646 222 l 640 226 b 628 219 632 226 628 225 l 628 206 l 632 203 b 642 210 635 204 638 207 l 651 218 b 654 200 657 208 657 201 b 650 194 651 200 650 197 b 654 185 650 192 651 189 b 657 156 661 174 661 164 b 668 143 656 151 660 147 b 661 133 663 139 661 136 b 664 126 661 132 663 131 b 669 119 667 122 668 121 b 675 86 672 106 674 94 b 681 53 676 78 678 67 b 674 50 678 50 676 50 z m 150 217 l 146 219 l 146 222 b 150 217 151 221 153 219 z m 210 194 b 208 193 210 193 210 193 b 206 194 207 193 206 193 b 208 201 206 197 207 200 b 210 194 211 199 213 197 z m 579 181 b 576 176 578 178 576 178 b 572 181 575 178 574 178 b 571 185 571 181 571 183 l 581 185 b 579 181 581 183 581 181 z m 167 179 b 168 181 167 181 168 181 b 171 182 169 181 169 181 b 179 178 176 182 179 181 l 179 171 l 176 169 l 167 174 z m 524 175 l 514 175 l 514 181 l 524 181 z m 540 169 b 549 164 546 168 549 168 l 540 164 z m 171 147 b 167 144 169 146 168 144 b 154 156 160 144 154 154 b 176 168 165 156 172 160 b 182 164 178 167 179 165 b 186 161 183 164 185 163 l 186 156 l 176 153 b 171 147 174 150 171 150 z m 526 147 l 525 157 b 532 154 526 156 528 156 l 540 150 z m 226 119 b 221 121 224 121 221 121 b 215 125 219 122 218 122 b 221 126 217 125 218 125 l 224 126 b 226 128 224 128 225 128 l 229 125 b 226 119 229 122 229 121 z m 160 111 b 151 111 156 110 153 110 b 158 117 151 114 154 117 b 168 111 161 117 167 111 z m 185 106 l 176 111 b 185 117 176 113 179 114 b 190 110 189 115 190 113 b 185 106 189 110 188 108 z m 544 110 b 551 114 547 111 550 113 b 557 106 554 111 557 108 l 542 106 z m 571 40 b 569 38 571 39 571 39 b 554 56 565 40 557 50 l 568 56 b 572 42 568 51 569 47 b 571 40 571 42 571 40 z "},"":{"ha":836,"x_min":0,"x_max":0,"o":"m 278 1100 l 282 1094 l 285 1061 l 675 1076 b 696 1097 689 1076 694 1085 l 703 1225 b 679 1250 704 1239 693 1250 l 244 1232 l 247 1213 l 242 1111 l 242 1058 l 274 1060 z m 221 1057 l 226 1057 b 231 1092 226 1068 229 1079 l 233 1107 b 236 1122 233 1113 235 1117 b 238 1158 238 1132 238 1149 b 233 1199 238 1169 236 1186 b 231 1213 232 1201 231 1207 b 232 1228 231 1215 232 1221 l 232 1231 l 224 1231 b 201 1207 210 1231 203 1222 l 194 1081 b 221 1057 193 1061 211 1057 z m 621 1188 l 624 1186 l 621 1183 l 619 1183 z m 494 1186 l 503 1186 l 503 1183 l 494 1183 z m 567 1181 l 569 1178 b 572 1176 571 1178 572 1176 l 567 1175 z m 486 1174 l 488 1174 b 489 1175 488 1175 488 1175 b 489 1169 493 1172 493 1171 l 485 1172 z m 535 1169 b 533 1167 535 1168 533 1167 l 531 1163 l 528 1172 b 535 1169 531 1172 532 1171 z m 558 1167 b 561 1164 561 1165 561 1164 l 561 1161 l 553 1161 b 558 1167 553 1163 556 1165 z m 367 1154 b 375 1153 368 1154 371 1154 b 382 1151 378 1151 381 1151 b 372 1143 378 1149 375 1146 b 363 1138 369 1139 367 1138 z m 464 1142 l 468 1136 l 465 1136 l 461 1142 z m 606 1138 b 601 1131 606 1135 604 1133 b 596 1138 597 1131 596 1133 z m 544 1135 l 547 1135 l 547 1131 l 544 1131 z m 506 1128 b 503 1126 506 1128 504 1126 b 500 1125 500 1126 500 1125 l 497 1131 b 506 1128 500 1131 506 1129 z m 768 33 l 664 615 b 631 768 651 682 633 757 b 601 864 622 799 613 833 b 494 960 581 911 549 956 b 414 958 465 963 438 963 b 321 942 382 954 351 947 b 300 925 311 939 304 933 b 169 610 256 821 211 715 b 85 372 139 532 110 453 b -11 44 51 264 18 153 b 15 8 -14 25 -3 8 l 221 4 b 249 25 235 4 244 11 l 279 153 l 489 194 l 503 25 b 531 0 504 8 514 0 l 740 0 b 768 33 758 0 771 15 z m 328 908 l 333 908 l 333 900 l 328 900 z m 497 875 l 501 875 l 501 864 l 497 864 z m 486 853 b 493 851 486 851 489 851 b 490 840 493 846 492 843 l 486 844 z m 336 844 b 329 828 332 838 329 832 l 329 846 b 332 844 329 846 331 844 z m 513 842 b 508 836 510 839 508 838 l 503 836 b 501 840 503 839 503 839 l 501 846 l 517 844 b 513 842 515 844 514 843 z m 499 844 l 501 839 l 501 836 l 499 840 z m 528 829 b 540 832 532 829 536 831 l 538 828 b 544 819 538 824 540 822 b 539 817 542 818 540 817 l 521 817 l 518 819 b 528 829 521 826 524 829 z m 524 792 b 536 788 528 792 532 790 b 535 785 535 786 535 786 b 532 781 535 783 533 782 b 525 783 529 782 528 783 b 518 786 522 783 519 785 b 524 792 518 790 521 792 z m 411 783 l 413 783 l 411 779 l 408 781 z m 431 772 b 436 774 431 772 432 774 b 439 765 438 772 439 769 b 433 765 436 765 435 764 l 426 765 l 425 772 z m 547 747 b 554 740 551 747 554 744 b 549 735 554 739 551 736 l 540 735 b 538 739 539 736 538 738 b 540 743 538 742 539 743 b 547 747 543 744 546 744 z m 242 693 b 242 671 243 686 243 678 b 233 686 239 671 233 683 b 242 693 233 689 243 696 z m 338 675 b 339 678 338 676 338 678 l 346 675 b 340 674 344 672 343 672 b 338 672 338 674 338 672 z m 246 653 l 246 636 l 240 636 l 240 651 z m 406 646 b 408 642 407 644 408 643 b 410 639 408 642 410 640 l 406 628 b 386 636 394 622 390 624 b 406 646 392 644 399 647 z m 563 644 l 563 642 l 553 642 l 553 644 z m 568 619 l 560 619 l 558 622 b 560 626 558 622 558 624 b 568 619 565 626 568 624 z m 351 397 l 419 621 b 438 533 426 592 432 563 b 447 467 442 511 444 489 l 456 400 z m 394 611 l 390 600 l 388 601 l 392 613 z m 522 606 l 525 603 l 522 601 l 518 604 z m 349 504 b 326 444 340 485 326 442 l 321 429 b 313 417 315 424 313 419 b 303 394 308 411 304 403 b 294 371 301 388 299 379 b 290 367 293 369 290 368 b 283 367 288 365 286 365 b 281 376 282 367 281 371 b 288 393 282 382 285 388 b 296 413 292 400 294 406 b 299 425 296 418 297 422 b 311 450 301 435 301 439 b 324 472 319 460 321 464 b 329 492 324 472 325 479 b 339 522 335 510 340 525 b 343 532 340 528 342 531 b 347 538 346 533 347 536 b 353 547 349 538 350 542 b 360 572 356 554 357 563 b 367 578 361 572 364 575 b 374 583 369 581 371 582 l 381 581 b 367 551 372 564 368 556 b 364 540 367 549 365 544 b 349 521 363 536 356 525 z m 532 550 l 532 556 l 542 554 b 540 553 540 554 540 553 l 540 550 z m 560 540 l 560 543 l 568 540 l 568 538 z m 501 533 l 508 533 b 501 533 508 531 503 529 z m 581 490 b 574 485 581 486 579 485 z m 476 486 b 482 485 476 486 479 485 b 485 481 483 483 485 482 l 476 481 z m 535 467 l 533 467 l 533 463 l 521 463 b 522 472 517 467 518 469 l 514 472 b 518 481 514 476 515 479 b 535 467 528 479 533 475 z m 571 478 b 574 481 571 479 572 481 l 576 481 b 579 478 576 481 578 478 b 571 475 579 475 575 475 z m 551 478 b 560 476 557 478 560 478 l 557 472 b 553 475 554 472 554 474 b 551 478 551 476 551 476 z m 571 467 l 582 467 b 593 461 586 467 590 464 b 571 460 585 457 578 456 z m 533 443 b 540 451 533 447 536 450 b 544 450 542 451 543 451 b 549 449 546 450 547 449 l 549 442 l 540 442 b 533 443 539 443 536 443 z m 489 444 l 478 444 l 478 447 l 489 447 z m 600 442 b 592 433 596 439 593 436 b 581 428 590 431 586 429 b 594 419 586 422 590 419 b 604 413 599 419 601 417 b 599 411 601 413 600 411 l 579 411 b 567 435 571 425 567 431 b 582 447 567 439 565 436 l 596 447 b 600 442 597 447 599 446 z m 267 433 b 263 422 267 431 265 426 b 258 431 260 424 258 426 b 261 443 258 433 260 439 l 267 443 z m 538 431 l 535 431 b 532 429 533 429 533 429 l 532 428 l 525 433 l 525 439 l 535 439 l 536 436 b 538 431 536 435 538 433 z m 553 429 b 557 428 554 429 556 428 b 551 414 557 428 556 419 l 549 431 l 551 431 b 553 429 551 429 553 429 z m 519 422 l 540 422 b 531 415 540 419 535 415 b 521 417 526 415 522 417 b 513 415 518 417 515 417 l 508 422 b 519 422 511 422 515 424 z m 507 401 l 504 403 l 506 407 l 508 407 z m 525 388 b 524 385 524 388 524 386 l 514 388 b 515 390 515 389 515 389 l 518 393 b 526 392 522 393 525 392 b 525 388 526 389 526 389 z m 503 388 l 506 390 b 503 388 507 389 506 388 z m 579 372 b 571 375 578 372 572 375 b 572 376 571 376 571 376 b 576 378 575 376 576 378 b 581 372 579 375 581 374 z m 554 353 l 554 361 b 544 374 551 368 549 372 b 540 376 543 374 540 375 b 563 369 547 378 554 375 b 565 361 563 367 564 364 b 568 353 565 357 567 354 z m 499 361 l 494 361 l 494 367 l 499 367 z m 617 353 l 625 351 l 625 350 l 617 350 z m 531 350 l 531 343 l 525 343 l 525 350 z m 490 340 l 494 340 l 494 338 l 490 338 z m 449 331 l 442 331 l 442 333 l 449 333 z m 478 311 l 475 314 l 469 314 b 479 318 474 317 476 318 b 478 311 479 315 479 313 z m 524 308 l 532 317 b 536 314 532 315 533 314 b 540 308 539 311 540 310 b 531 297 540 306 536 301 b 517 301 526 297 519 300 b 524 308 521 304 522 307 z m 560 272 l 560 269 l 553 269 l 553 272 z m 543 269 l 543 258 b 535 269 538 261 535 264 z m 600 264 b 607 269 604 264 606 265 b 608 257 607 263 607 258 l 614 253 b 618 250 615 253 617 253 b 610 249 613 249 610 247 b 601 247 608 247 606 247 b 589 260 593 247 589 257 z m 293 251 l 278 251 l 278 258 l 293 258 z m 249 224 b 244 222 247 222 246 222 b 226 236 233 222 226 232 b 240 247 226 239 229 247 b 257 240 243 247 254 242 b 260 232 257 238 258 235 b 263 224 260 232 260 229 z m 499 242 l 494 242 l 494 247 l 499 247 z m 646 246 l 651 246 l 651 243 l 646 243 z m 510 242 l 529 242 l 529 238 l 515 238 b 510 242 515 239 514 240 z m 439 236 l 438 239 l 442 240 l 443 238 z m 674 50 b 660 65 669 50 660 61 l 660 68 b 661 72 661 69 661 71 b 651 83 656 75 653 79 b 650 96 651 89 650 93 b 646 100 649 97 647 97 b 643 103 644 100 643 101 b 639 107 640 104 640 106 l 635 111 l 636 111 l 636 113 l 638 113 l 638 132 l 629 132 b 622 131 626 131 625 131 b 606 132 615 131 610 131 b 590 150 621 139 596 147 l 590 163 b 593 168 590 164 592 167 b 594 172 594 169 594 171 b 596 174 594 174 594 174 b 599 176 597 174 599 175 b 590 181 600 179 594 182 b 593 190 592 182 592 185 b 606 197 593 194 597 197 b 615 200 608 197 611 197 b 613 203 615 200 615 201 b 607 207 611 204 610 206 b 607 217 604 211 604 214 b 601 221 601 221 599 222 b 599 225 600 222 599 224 b 625 240 599 233 617 240 b 646 233 626 240 642 236 l 646 222 l 640 226 b 628 219 632 226 628 225 l 628 206 l 632 203 b 642 210 635 204 638 207 l 651 218 b 654 200 657 208 657 201 b 650 194 651 200 650 197 b 654 185 650 192 651 189 b 657 156 661 174 661 164 b 668 143 656 151 660 147 b 661 133 663 139 661 136 b 664 126 661 132 663 131 b 669 119 667 122 668 121 b 675 86 672 106 674 94 b 681 53 676 78 678 67 b 674 50 678 50 676 50 z m 150 217 l 146 219 l 146 222 b 150 217 151 221 153 219 z m 210 194 b 208 193 210 193 210 193 b 206 194 207 193 206 193 b 208 201 206 197 207 200 b 210 194 211 199 213 197 z m 579 181 b 576 176 578 178 576 178 b 572 181 575 178 574 178 b 571 185 571 181 571 183 l 581 185 b 579 181 581 183 581 181 z m 167 179 b 168 181 167 181 168 181 b 171 182 169 181 169 181 b 179 178 176 182 179 181 l 179 171 l 176 169 l 167 174 z m 524 175 l 514 175 l 514 181 l 524 181 z m 540 169 b 549 164 546 168 549 168 l 540 164 z m 171 147 b 167 144 169 146 168 144 b 154 156 160 144 154 154 b 176 168 165 156 172 160 b 182 164 178 167 179 165 b 186 161 183 164 185 163 l 186 156 l 176 153 b 171 147 174 150 171 150 z m 526 147 l 525 157 b 532 154 526 156 528 156 l 540 150 z m 226 119 b 221 121 224 121 221 121 b 215 125 219 122 218 122 b 221 126 217 125 218 125 l 224 126 b 226 128 224 128 225 128 l 229 125 b 226 119 229 122 229 121 z m 160 111 b 151 111 156 110 153 110 b 158 117 151 114 154 117 b 168 111 161 117 167 111 z m 185 106 l 176 111 b 185 117 176 113 179 114 b 190 110 189 115 190 113 b 185 106 189 110 188 108 z m 544 110 b 551 114 547 111 550 113 b 557 106 554 111 557 108 l 542 106 z m 571 40 b 569 38 571 39 571 39 b 554 56 565 40 557 50 l 568 56 b 572 42 568 51 569 47 b 571 40 571 42 571 40 z "},"":{"ha":836,"x_min":0,"x_max":0,"o":"m 647 0 l 740 0 b 768 33 758 0 771 15 l 664 615 b 631 768 651 682 633 757 b 601 864 622 799 613 833 b 494 960 581 911 549 956 b 414 958 465 963 438 963 b 321 942 382 954 351 947 b 300 925 311 939 304 933 b 169 610 256 821 211 715 b 85 372 139 532 110 453 b -11 44 51 264 18 153 b 15 8 -14 25 -3 8 l 221 4 b 249 25 235 4 244 11 l 279 153 l 489 194 l 501 35 b 410 -136 443 -22 410 -82 b 560 -271 410 -196 463 -271 b 747 -165 661 -271 694 -240 b 751 -151 750 -161 751 -156 b 744 -132 751 -144 749 -137 b 663 -67 728 -108 686 -74 b 636 -78 651 -64 640 -71 b 582 -128 606 -119 593 -128 b 557 -101 571 -128 557 -121 b 647 0 557 -74 594 -43 z m 328 908 l 333 908 l 333 900 l 328 900 z m 497 875 l 501 875 l 501 864 l 497 864 z m 486 853 b 493 851 486 851 489 851 b 490 840 493 846 492 843 l 486 844 z m 336 844 b 329 828 332 838 329 832 l 329 846 b 332 844 329 846 331 844 z m 513 842 b 508 836 510 839 508 838 l 503 836 b 501 840 503 839 503 839 l 501 846 l 517 844 b 513 842 515 844 514 843 z m 499 844 l 501 839 l 501 836 l 499 840 z m 528 829 b 540 832 532 829 536 831 l 538 828 b 544 819 538 824 540 822 b 539 817 542 818 540 817 l 521 817 l 518 819 b 528 829 521 826 524 829 z m 524 792 b 536 788 528 792 532 790 b 535 785 535 786 535 786 b 532 781 535 783 533 782 b 525 783 529 782 528 783 b 518 786 522 783 519 785 b 524 792 518 790 521 792 z m 411 783 l 413 783 l 411 779 l 408 781 z m 431 772 b 436 774 431 772 432 774 b 439 765 438 772 439 769 b 433 765 436 765 435 764 l 426 765 l 425 772 z m 547 747 b 554 740 551 747 554 744 b 549 735 554 739 551 736 l 540 735 b 538 739 539 736 538 738 b 540 743 538 742 539 743 b 547 747 543 744 546 744 z m 242 693 b 242 671 243 686 243 678 b 233 686 239 671 233 683 b 242 693 233 689 243 696 z m 338 675 b 339 678 338 676 338 678 l 346 675 b 340 674 344 672 343 672 b 338 672 338 674 338 672 z m 246 653 l 246 636 l 240 636 l 240 651 z m 406 646 b 408 642 407 644 408 643 b 410 639 408 642 410 640 l 406 628 b 386 636 394 622 390 624 b 406 646 392 644 399 647 z m 563 644 l 563 642 l 553 642 l 553 644 z m 568 619 l 560 619 l 558 622 b 560 626 558 622 558 624 b 568 619 565 626 568 624 z m 351 397 l 419 621 b 438 533 426 592 432 563 b 447 467 442 511 444 489 l 456 400 z m 394 611 l 390 600 l 388 601 l 392 613 z m 522 606 l 525 603 l 522 601 l 518 604 z m 349 504 b 326 444 340 485 326 442 l 321 429 b 313 417 315 424 313 419 b 303 394 308 411 304 403 b 294 371 301 388 299 379 b 290 367 293 369 290 368 b 283 367 288 365 286 365 b 281 376 282 367 281 371 b 288 393 282 382 285 388 b 296 413 292 400 294 406 b 299 425 296 418 297 422 b 311 450 301 435 301 439 b 324 472 319 460 321 464 b 329 492 324 472 325 479 b 339 522 335 510 340 525 b 343 532 340 528 342 531 b 347 538 346 533 347 536 b 353 547 349 538 350 542 b 360 572 356 554 357 563 b 367 578 361 572 364 575 b 374 583 369 581 371 582 l 381 581 b 367 551 372 564 368 556 b 364 540 367 549 365 544 b 349 521 363 536 356 525 z m 532 550 l 532 556 l 542 554 b 540 553 540 554 540 553 l 540 550 z m 560 540 l 560 543 l 568 540 l 568 538 z m 501 533 l 508 533 b 501 533 508 531 503 529 z m 581 490 b 574 485 581 486 579 485 z m 476 486 b 482 485 476 486 479 485 b 485 481 483 483 485 482 l 476 481 z m 535 467 l 533 467 l 533 463 l 521 463 b 522 472 517 467 518 469 l 514 472 b 518 481 514 476 515 479 b 535 467 528 479 533 475 z m 571 478 b 574 481 571 479 572 481 l 576 481 b 579 478 576 481 578 478 b 571 475 579 475 575 475 z m 557 472 b 553 475 554 472 554 474 b 551 478 551 476 551 476 b 560 476 557 478 560 478 z m 571 467 l 582 467 b 593 461 586 467 590 464 b 571 460 585 457 578 456 z m 540 451 b 544 450 542 451 543 451 b 549 449 546 450 547 449 l 549 442 l 540 442 b 533 443 539 443 536 443 b 540 451 533 447 536 450 z m 489 444 l 478 444 l 478 447 l 489 447 z m 600 442 b 592 433 596 439 593 436 b 581 428 590 431 586 429 b 594 419 586 422 590 419 b 604 413 599 419 601 417 b 599 411 601 413 600 411 l 579 411 b 567 435 571 425 567 431 b 582 447 567 439 565 436 l 596 447 b 600 442 597 447 599 446 z m 267 433 b 263 422 267 431 265 426 b 258 431 260 424 258 426 b 261 443 258 433 260 439 l 267 443 z m 535 439 l 536 436 b 538 431 536 435 538 433 l 535 431 b 532 429 533 429 533 429 l 532 428 l 525 433 l 525 439 z m 553 429 b 557 428 554 429 556 428 b 551 414 557 428 556 419 l 549 431 l 551 431 b 553 429 551 429 553 429 z m 519 422 l 540 422 b 531 415 540 419 535 415 b 521 417 526 415 522 417 b 513 415 518 417 515 417 l 508 422 b 519 422 511 422 515 424 z m 504 403 l 506 407 l 508 407 l 507 401 z m 525 388 b 524 385 524 388 524 386 l 514 388 b 515 390 515 389 515 389 l 518 393 b 526 392 522 393 525 392 b 525 388 526 389 526 389 z m 503 388 l 506 390 b 503 388 507 389 506 388 z m 571 375 b 572 376 571 376 571 376 b 576 378 575 376 576 378 b 581 372 579 375 581 374 l 579 372 b 571 375 578 372 572 375 z m 563 369 b 565 361 563 367 564 364 b 568 353 565 357 567 354 l 554 353 l 554 361 b 544 374 551 368 549 372 b 540 376 543 374 540 375 b 563 369 547 378 554 375 z m 499 361 l 494 361 l 494 367 l 499 367 z m 617 353 l 625 351 l 625 350 l 617 350 z m 531 350 l 531 343 l 525 343 l 525 350 z m 490 340 l 494 340 l 494 338 l 490 338 z m 449 331 l 442 331 l 442 333 l 449 333 z m 478 311 l 475 314 l 469 314 b 479 318 474 317 476 318 b 478 311 479 315 479 313 z m 524 308 l 532 317 b 536 314 532 315 533 314 b 540 308 539 311 540 310 b 531 297 540 306 536 301 b 517 301 526 297 519 300 b 524 308 521 304 522 307 z m 560 272 l 560 269 l 553 269 l 553 272 z m 535 269 l 543 269 l 543 258 b 535 269 538 261 535 264 z m 607 269 b 608 257 607 263 607 258 l 614 253 b 618 250 615 253 617 253 b 610 249 613 249 610 247 b 601 247 608 247 606 247 b 589 260 593 247 589 257 l 600 264 b 607 269 604 264 606 265 z m 293 251 l 278 251 l 278 258 l 293 258 z m 249 224 b 244 222 247 222 246 222 b 226 236 233 222 226 232 b 240 247 226 239 229 247 b 257 240 243 247 254 242 b 260 232 257 238 258 235 b 263 224 260 232 260 229 z m 499 242 l 494 242 l 494 247 l 499 247 z m 646 246 l 651 246 l 651 243 l 646 243 z m 515 238 b 510 242 515 239 514 240 l 529 242 l 529 238 z m 439 236 l 438 239 l 442 240 l 443 238 z m 646 233 l 646 222 l 640 226 b 628 219 632 226 628 225 l 628 206 l 632 203 b 642 210 635 204 638 207 l 651 218 b 654 200 657 208 657 201 b 650 194 651 200 650 197 b 654 185 650 192 651 189 b 657 156 661 174 661 164 b 668 143 656 151 660 147 b 661 133 663 139 661 136 b 664 126 661 132 663 131 b 669 119 667 122 668 121 b 675 86 672 106 674 94 b 681 53 676 78 678 67 b 674 50 678 50 676 50 b 660 65 669 50 660 61 l 660 68 b 661 72 661 69 661 71 b 651 83 656 75 653 79 b 650 96 651 89 650 93 b 646 100 649 97 647 97 b 643 103 644 100 643 101 b 639 107 640 104 640 106 l 635 111 l 636 111 l 636 113 l 638 113 l 638 132 l 629 132 b 622 131 626 131 625 131 b 606 132 615 131 610 131 b 590 150 621 139 596 147 l 590 163 b 593 168 590 164 592 167 b 594 172 594 169 594 171 b 596 174 594 174 594 174 b 599 176 597 174 599 175 b 590 181 600 179 594 182 b 593 190 592 182 592 185 b 606 197 593 194 597 197 b 615 200 608 197 611 197 b 613 203 615 200 615 201 b 607 207 611 204 610 206 b 607 217 604 211 604 214 b 601 221 601 221 599 222 b 599 225 600 222 599 224 b 625 240 599 233 617 240 b 646 233 626 240 642 236 z m 150 217 l 146 219 l 146 222 b 150 217 151 221 153 219 z m 210 194 b 208 193 210 193 210 193 b 206 194 207 193 206 193 b 208 201 206 197 207 200 b 210 194 211 199 213 197 z m 581 185 b 579 181 581 183 581 181 b 576 176 578 178 576 178 b 572 181 575 178 574 178 b 571 185 571 181 571 183 z m 167 179 b 168 181 167 181 168 181 b 171 182 169 181 169 181 b 179 178 176 182 179 181 l 179 171 l 176 169 l 167 174 z m 524 181 l 524 175 l 514 175 l 514 181 z m 540 169 b 549 164 546 168 549 168 l 540 164 z m 171 147 b 167 144 169 146 168 144 b 154 156 160 144 154 154 b 176 168 165 156 172 160 b 182 164 178 167 179 165 b 186 161 183 164 185 163 l 186 156 l 176 153 b 171 147 174 150 171 150 z m 532 154 l 540 150 l 526 147 l 525 157 b 532 154 526 156 528 156 z m 226 119 b 221 121 224 121 221 121 b 215 125 219 122 218 122 b 221 126 217 125 218 125 l 224 126 b 226 128 224 128 225 128 l 229 125 b 226 119 229 122 229 121 z m 160 111 b 151 111 156 110 153 110 b 158 117 151 114 154 117 b 168 111 161 117 167 111 z m 185 106 l 176 111 b 185 117 176 113 179 114 b 190 110 189 115 190 113 b 185 106 189 110 188 108 z m 544 110 b 551 114 547 111 550 113 b 557 106 554 111 557 108 l 542 106 z m 504 -46 l 500 -46 b 497 -39 500 -43 497 -42 b 501 -29 497 -35 500 -31 b 508 -37 506 -29 508 -31 b 504 -46 508 -39 506 -43 z m 664 -106 b 668 -104 665 -104 668 -104 b 669 -104 668 -106 669 -104 l 668 -111 l 656 -114 b 664 -106 660 -110 661 -107 z m 683 -111 b 692 -117 682 -107 689 -114 b 683 -114 690 -118 688 -117 b 683 -111 681 -114 679 -112 z m 651 -114 l 653 -115 l 651 -118 l 650 -115 z m 483 -128 b 485 -126 485 -128 485 -126 b 488 -124 485 -124 488 -124 b 489 -126 488 -124 489 -124 l 492 -128 l 492 -135 b 485 -136 489 -136 488 -136 b 483 -128 485 -132 485 -131 z m 649 -126 l 651 -124 b 653 -124 651 -125 651 -125 l 650 -129 b 651 -135 651 -131 653 -132 b 647 -136 649 -136 649 -137 l 647 -132 b 649 -126 647 -131 646 -128 z m 633 -132 l 638 -128 l 640 -131 l 638 -133 b 635 -133 636 -135 635 -135 b 633 -132 633 -135 632 -133 z m 650 -129 b 650 -129 650 -129 650 -129 z m 661 -133 b 660 -133 661 -133 660 -132 l 658 -133 l 657 -132 b 660 -131 657 -132 658 -132 l 661 -129 l 663 -131 l 661 -132 b 661 -133 663 -132 663 -132 z m 511 -150 l 510 -146 b 514 -139 510 -140 511 -139 b 515 -146 515 -139 515 -140 b 511 -150 515 -149 515 -150 z m 656 -143 b 661 -142 657 -143 658 -143 b 661 -144 661 -142 660 -143 b 661 -149 660 -144 661 -146 b 656 -147 658 -147 657 -147 z m 488 -150 b 492 -146 489 -146 492 -146 b 493 -150 492 -146 492 -149 b 488 -150 492 -154 489 -154 z m 710 -151 b 725 -147 718 -147 721 -147 l 714 -158 l 701 -156 l 697 -151 b 710 -151 701 -156 706 -156 z m 663 -157 l 657 -154 b 661 -153 660 -153 660 -153 b 664 -151 661 -153 663 -153 b 663 -157 665 -153 665 -156 z m 633 -158 l 635 -160 b 632 -161 635 -160 633 -160 l 628 -158 b 633 -158 628 -158 631 -160 z m 676 -186 l 681 -183 b 682 -182 681 -183 681 -182 l 685 -179 b 686 -186 688 -183 688 -185 l 676 -194 l 675 -194 l 674 -193 b 676 -186 672 -190 674 -189 z m 564 -187 l 564 -192 b 567 -196 567 -192 567 -193 b 568 -203 568 -196 568 -199 l 564 -203 l 564 -196 b 564 -187 563 -193 563 -189 z m 558 -189 b 560 -196 558 -192 558 -192 l 560 -207 b 556 -211 558 -210 558 -211 b 549 -203 553 -211 549 -207 l 549 -196 b 553 -197 549 -196 550 -197 b 554 -193 553 -197 554 -196 b 558 -189 556 -192 556 -189 z m 519 -199 b 515 -197 518 -197 517 -197 b 519 -199 519 -197 519 -197 z m 631 -197 l 633 -197 b 628 -203 632 -201 631 -203 z m 528 -203 b 524 -201 525 -201 524 -201 b 525 -199 524 -199 524 -199 l 529 -199 b 532 -203 532 -201 532 -203 z m 563 -224 b 553 -215 560 -219 556 -219 b 556 -215 556 -214 556 -214 b 560 -219 560 -218 560 -218 b 563 -224 560 -219 563 -219 z m 575 -215 l 579 -215 l 579 -219 l 575 -219 z "},"":{"ha":785,"x_min":0,"x_max":0,"o":"m 768 33 l 664 615 b 631 768 651 682 633 757 b 589 910 624 794 601 871 b 663 1063 635 943 663 996 b 475 1214 663 1174 579 1214 b 278 1040 363 1214 278 1154 b 303 929 278 994 286 957 l 300 925 b 169 610 256 821 211 715 b 85 372 139 532 110 453 b -11 44 51 264 18 153 b 15 8 -14 25 -3 8 l 221 4 b 249 25 235 4 244 11 l 279 153 l 489 194 l 503 25 b 531 0 504 8 514 0 l 740 0 b 768 33 758 0 771 15 z m 614 1132 l 628 1132 l 628 1126 l 614 1126 z m 471 1106 b 515 1053 499 1106 515 1085 b 461 975 515 1008 494 975 b 413 1033 432 975 413 999 b 471 1106 413 1076 436 1106 z m 633 1043 l 628 1039 l 617 1044 b 628 1046 622 1046 625 1047 b 632 1044 631 1046 632 1044 b 633 1043 632 1043 633 1043 z m 588 1046 l 594 1046 l 594 1042 l 590 1042 b 588 1043 589 1042 588 1042 b 588 1046 586 1043 586 1044 z m 603 1040 l 607 1040 b 608 1039 607 1039 607 1039 b 603 1036 603 1038 601 1036 b 600 1032 603 1035 603 1033 b 596 1032 597 1032 597 1032 l 599 1036 b 603 1040 599 1038 600 1040 z m 364 1036 b 367 1033 368 1036 368 1035 b 364 1035 364 1033 364 1035 z m 639 1029 b 642 1019 642 1033 642 1024 b 638 1026 640 1019 639 1022 b 639 1029 636 1029 636 1031 z m 611 1028 l 610 1028 b 608 1026 610 1026 610 1026 b 607 1028 608 1026 608 1028 l 606 1028 l 606 1031 b 608 1029 606 1031 607 1029 l 611 1029 z m 571 1025 l 571 1024 l 568 1024 l 567 1028 z m 596 1021 b 597 1022 597 1021 597 1021 b 603 1019 599 1022 600 1021 b 601 1018 603 1019 601 1019 b 599 1015 600 1018 600 1017 b 596 1019 597 1017 596 1018 z m 596 1011 l 599 1011 b 594 1007 599 1008 597 1007 l 592 1013 b 596 1011 594 1013 594 1013 z m 603 999 l 590 999 l 589 1000 l 589 1001 b 596 1004 589 1004 592 1004 l 606 1004 b 603 999 606 1000 604 999 z m 296 999 l 292 1000 l 292 1001 l 297 1000 z m 300 986 l 300 989 b 307 996 300 992 303 996 l 311 996 l 311 986 l 310 985 l 301 985 b 300 986 300 985 300 986 z m 568 985 l 569 982 b 561 982 567 981 564 981 b 568 985 563 982 565 983 z m 538 979 b 539 976 538 978 539 976 l 540 976 b 538 978 538 975 538 976 z m 579 957 b 582 954 579 956 581 954 b 588 951 585 953 586 953 l 582 951 l 579 954 z m 328 900 l 328 901 l 329 900 z m 501 864 l 497 864 l 497 872 b 501 874 499 872 500 874 z m 493 851 b 490 840 493 846 492 843 l 486 844 l 486 853 b 493 851 486 851 489 851 z m 336 844 b 329 828 332 838 329 832 l 329 846 b 332 844 329 846 331 844 z m 503 836 b 501 840 503 839 503 839 l 501 846 l 517 844 b 513 842 515 844 514 843 b 508 836 510 839 508 838 z m 499 844 l 501 839 l 501 836 l 499 840 z m 544 819 b 539 817 542 818 540 817 l 521 817 l 518 819 b 528 829 521 826 524 829 b 540 832 532 829 536 831 l 538 828 b 544 819 538 824 540 822 z m 524 792 b 536 788 528 792 532 790 b 535 785 535 786 535 786 b 532 781 535 783 533 782 b 525 783 529 782 528 783 b 518 786 522 783 519 785 b 524 792 518 790 521 792 z m 408 781 l 411 783 l 413 783 l 411 779 z m 439 765 b 433 765 436 765 435 764 l 426 765 l 425 772 l 431 772 b 436 774 431 772 432 774 b 439 765 438 772 439 769 z m 549 735 l 540 735 b 538 739 539 736 538 738 b 540 743 538 742 539 743 b 547 747 543 744 546 744 b 554 740 551 747 554 744 b 549 735 554 739 551 736 z m 242 693 b 242 671 243 686 243 678 b 233 686 239 671 233 683 b 242 693 233 689 243 696 z m 346 675 b 340 674 344 672 343 672 b 338 672 338 674 338 672 l 338 675 b 339 678 338 676 338 678 z m 246 653 l 246 636 l 240 636 l 240 651 z m 386 636 b 406 646 392 644 399 647 b 408 642 407 644 408 643 b 410 639 408 642 410 640 l 406 628 b 386 636 394 622 390 624 z m 563 642 l 553 642 l 553 644 l 563 644 z m 560 619 l 558 622 b 560 626 558 622 558 624 b 568 619 565 626 568 624 z m 351 397 l 419 621 b 438 533 426 592 432 563 b 447 467 442 511 444 489 l 456 400 z m 394 611 l 390 600 l 388 601 l 392 613 z m 522 606 l 525 603 l 522 601 l 518 604 z m 349 504 b 326 444 340 485 326 442 l 321 429 b 313 417 315 424 313 419 b 303 394 308 411 304 403 b 294 371 301 388 299 379 b 290 367 293 369 290 368 b 283 367 288 365 286 365 b 281 376 282 367 281 371 b 288 393 282 382 285 388 b 296 413 292 400 294 406 b 299 425 296 418 297 422 b 311 450 301 435 301 439 b 324 472 319 460 321 464 b 329 492 324 472 325 479 b 339 522 335 510 340 525 b 343 532 340 528 342 531 b 347 538 346 533 347 536 b 353 547 349 538 350 542 b 360 572 356 554 357 563 b 367 578 361 572 364 575 b 374 583 369 581 371 582 l 381 581 b 367 551 372 564 368 556 b 364 540 367 549 365 544 b 349 521 363 536 356 525 z m 542 554 b 540 553 540 554 540 553 l 540 550 l 532 550 l 532 556 z m 568 540 l 568 538 l 560 540 l 560 543 z m 501 533 l 508 533 b 501 533 508 531 503 529 z m 574 485 l 581 490 b 574 485 581 486 579 485 z m 485 481 l 476 481 l 476 486 b 482 485 476 486 479 485 b 485 481 483 483 485 482 z m 514 472 b 518 481 514 476 515 479 b 535 467 528 479 533 475 l 533 467 l 533 463 l 521 463 b 522 472 517 467 518 469 z m 576 481 b 579 478 576 481 578 478 b 571 475 579 475 575 475 l 571 478 b 574 481 571 479 572 481 z m 553 475 b 551 478 551 476 551 476 b 560 476 557 478 560 478 l 557 472 b 553 475 554 472 554 474 z m 571 460 l 571 467 l 582 467 b 593 461 586 467 590 464 b 571 460 585 457 578 456 z m 533 443 b 540 451 533 447 536 450 b 544 450 542 451 543 451 b 549 449 546 450 547 449 l 549 442 l 540 442 b 533 443 539 443 536 443 z m 489 444 l 478 444 l 478 447 l 489 447 z m 600 442 b 592 433 596 439 593 436 b 581 428 590 431 586 429 b 594 419 586 422 590 419 b 604 413 599 419 601 417 b 599 411 601 413 600 411 l 579 411 b 567 435 571 425 567 431 b 582 447 567 439 565 436 l 596 447 b 600 442 597 447 599 446 z m 267 433 b 263 422 267 431 265 426 b 258 431 260 424 258 426 b 261 443 258 433 260 439 l 267 443 z m 525 439 l 535 439 l 536 436 b 538 431 536 435 538 433 l 535 431 b 532 429 533 429 533 429 l 532 428 l 525 433 z m 557 428 b 551 414 557 428 556 419 l 549 431 l 551 431 b 553 429 551 429 553 429 b 557 428 554 429 556 428 z m 519 422 l 540 422 b 531 415 540 419 535 415 b 521 417 526 415 522 417 b 513 415 518 417 515 417 l 508 422 b 519 422 511 422 515 424 z m 507 401 l 504 403 l 506 407 l 508 407 z m 525 388 b 524 385 524 388 524 386 l 514 388 b 515 390 515 389 515 389 l 518 393 b 526 392 522 393 525 392 b 525 388 526 389 526 389 z m 503 388 l 506 390 b 503 388 507 389 506 388 z m 579 372 b 571 375 578 372 572 375 b 572 376 571 376 571 376 b 576 378 575 376 576 378 b 581 372 579 375 581 374 z m 554 353 l 554 361 b 544 374 551 368 549 372 b 540 376 543 374 540 375 b 563 369 547 378 554 375 b 565 361 563 367 564 364 b 568 353 565 357 567 354 z m 499 361 l 494 361 l 494 367 l 499 367 z m 617 353 l 625 351 l 625 350 l 617 350 z m 531 350 l 531 343 l 525 343 l 525 350 z m 490 340 l 494 340 l 494 338 l 490 338 z m 449 331 l 442 331 l 442 333 l 449 333 z m 478 311 l 475 314 l 469 314 b 479 318 474 317 476 318 b 478 311 479 315 479 313 z m 524 308 l 532 317 b 536 314 532 315 533 314 b 540 308 539 311 540 310 b 531 297 540 306 536 301 b 517 301 526 297 519 300 b 524 308 521 304 522 307 z m 560 272 l 560 269 l 553 269 l 553 272 z m 543 269 l 543 258 b 535 269 538 261 535 264 z m 600 264 b 607 269 604 264 606 265 b 608 257 607 263 607 258 l 614 253 b 618 250 615 253 617 253 b 610 249 613 249 610 247 b 601 247 608 247 606 247 b 589 260 593 247 589 257 z m 293 251 l 278 251 l 278 258 l 293 258 z m 249 224 b 244 222 247 222 246 222 b 226 236 233 222 226 232 b 240 247 226 239 229 247 b 257 240 243 247 254 242 b 260 232 257 238 258 235 b 263 224 260 232 260 229 z m 499 242 l 494 242 l 494 247 l 499 247 z m 646 246 l 651 246 l 651 243 l 646 243 z m 510 242 l 529 242 l 529 238 l 515 238 b 510 242 515 239 514 240 z m 439 236 l 438 239 l 442 240 l 443 238 z m 674 50 b 660 65 669 50 660 61 l 660 68 b 661 72 661 69 661 71 b 651 83 656 75 653 79 b 650 96 651 89 650 93 b 646 100 649 97 647 97 b 643 103 644 100 643 101 b 639 107 640 104 640 106 l 635 111 l 636 111 l 636 113 l 638 113 l 638 132 l 629 132 b 622 131 626 131 625 131 b 606 132 615 131 610 131 b 590 150 621 139 596 147 l 590 163 b 593 168 590 164 592 167 b 594 172 594 169 594 171 b 596 174 594 174 594 174 b 599 176 597 174 599 175 b 590 181 600 179 594 182 b 593 190 592 182 592 185 b 606 197 593 194 597 197 b 615 200 608 197 611 197 b 613 203 615 200 615 201 b 607 207 611 204 610 206 b 607 217 604 211 604 214 b 601 221 601 221 599 222 b 599 225 600 222 599 224 b 625 240 599 233 617 240 b 646 233 626 240 642 236 l 646 222 l 640 226 b 628 219 632 226 628 225 l 628 206 l 632 203 b 642 210 635 204 638 207 l 651 218 b 654 200 657 208 657 201 b 650 194 651 200 650 197 b 654 185 650 192 651 189 b 657 156 661 174 661 164 b 668 143 656 151 660 147 b 661 133 663 139 661 136 b 664 126 661 132 663 131 b 669 119 667 122 668 121 b 675 86 672 106 674 94 b 681 53 676 78 678 67 b 674 50 678 50 676 50 z m 150 217 l 146 219 l 146 222 b 150 217 151 221 153 219 z m 210 194 b 208 193 210 193 210 193 b 206 194 207 193 206 193 b 208 201 206 197 207 200 b 210 194 211 199 213 197 z m 579 181 b 576 176 578 178 576 178 b 572 181 575 178 574 178 b 571 185 571 181 571 183 l 581 185 b 579 181 581 183 581 181 z m 167 179 b 168 181 167 181 168 181 b 171 182 169 181 169 181 b 179 178 176 182 179 181 l 179 171 l 176 169 l 167 174 z m 524 175 l 514 175 l 514 181 l 524 181 z m 540 169 b 549 164 546 168 549 168 l 540 164 z m 171 147 b 167 144 169 146 168 144 b 154 156 160 144 154 154 b 176 168 165 156 172 160 b 182 164 178 167 179 165 b 186 161 183 164 185 163 l 186 156 l 176 153 b 171 147 174 150 171 150 z m 526 147 l 525 157 b 532 154 526 156 528 156 l 540 150 z m 226 119 b 221 121 224 121 221 121 b 215 125 219 122 218 122 b 221 126 217 125 218 125 l 224 126 b 226 128 224 128 225 128 l 229 125 b 226 119 229 122 229 121 z m 160 111 b 151 111 156 110 153 110 b 158 117 151 114 154 117 b 168 111 161 117 167 111 z m 185 106 l 176 111 b 185 117 176 113 179 114 b 190 110 189 115 190 113 b 185 106 189 110 188 108 z m 544 110 b 551 114 547 111 550 113 b 557 106 554 111 557 108 l 542 106 z m 571 40 b 569 38 571 39 571 39 b 554 56 565 40 557 50 l 568 56 b 572 42 568 51 569 47 b 571 40 571 42 571 40 z "},"":{"ha":836,"x_min":0,"x_max":0,"o":"m 229 1047 l 331 1050 b 356 1076 342 1050 350 1060 b 394 1107 361 1092 378 1107 b 563 1039 458 1107 465 1039 b 738 1238 647 1039 704 1097 b 710 1276 746 1264 735 1276 l 608 1272 b 589 1254 600 1272 592 1267 b 550 1211 583 1229 567 1211 b 386 1279 503 1211 481 1279 b 207 1094 293 1279 235 1224 b 229 1047 200 1064 208 1047 z m 368 1224 l 386 1224 l 386 1214 l 368 1214 z m 394 1189 b 415 1199 396 1190 411 1203 b 421 1186 419 1196 422 1190 b 399 1176 417 1179 401 1174 b 394 1189 388 1179 393 1185 z m 438 1194 b 440 1193 438 1194 439 1193 b 443 1192 440 1193 442 1192 l 440 1189 l 436 1189 b 438 1194 435 1192 436 1193 z m 663 1192 l 657 1178 l 649 1190 b 663 1192 654 1193 660 1196 z m 356 1186 l 361 1186 b 363 1185 361 1185 363 1185 b 356 1182 360 1182 358 1182 z m 463 1185 l 467 1186 b 468 1182 468 1185 468 1182 l 463 1182 b 460 1183 461 1183 461 1183 b 463 1185 460 1183 461 1183 z m 307 1165 b 308 1175 307 1171 307 1174 b 319 1182 311 1181 315 1182 b 304 1157 317 1174 311 1165 b 307 1165 306 1160 306 1161 z m 450 1178 l 456 1174 b 449 1169 453 1171 451 1169 l 443 1169 b 442 1171 442 1169 442 1171 b 446 1175 442 1172 443 1174 z m 578 1178 l 588 1178 l 582 1164 l 563 1160 z m 593 1165 b 600 1175 593 1171 597 1175 b 604 1174 603 1175 603 1175 l 606 1174 l 606 1163 l 593 1163 z m 478 1143 b 483 1147 483 1143 483 1144 b 485 1149 483 1147 483 1149 l 488 1153 b 489 1160 488 1156 489 1157 b 492 1167 489 1161 490 1163 b 494 1169 492 1169 493 1169 l 494 1163 b 492 1158 493 1163 492 1161 b 490 1149 492 1154 490 1153 b 488 1142 489 1147 489 1146 b 486 1138 488 1139 486 1138 l 478 1138 l 475 1140 b 478 1143 475 1142 476 1143 z m 646 1163 l 649 1158 l 638 1151 l 635 1156 z m 379 1156 b 376 1157 376 1156 376 1157 l 376 1158 b 379 1156 381 1158 381 1157 z m 503 1157 b 508 1154 507 1157 508 1156 l 503 1154 z m 549 1143 l 564 1143 l 564 1138 l 549 1138 z m 517 1135 l 525 1135 l 525 1125 l 517 1125 z m 299 1121 l 304 1119 l 303 1118 l 299 1119 z m 319 1104 l 318 1103 l 308 1103 b 307 1104 307 1103 307 1104 l 307 1107 b 315 1115 307 1110 310 1115 l 319 1115 z m 610 1115 l 610 1108 l 597 1108 l 597 1115 z m 528 1108 l 550 1104 l 550 1099 l 528 1103 z m 261 1104 l 267 1104 l 267 1094 l 261 1094 z m 768 33 l 664 615 b 631 768 651 682 633 757 b 601 864 622 799 613 833 b 494 960 581 911 549 956 b 414 958 465 963 438 963 b 321 942 382 954 351 947 b 300 925 311 939 304 933 b 169 610 256 821 211 715 b 85 372 139 532 110 453 b -11 44 51 264 18 153 b 15 8 -14 25 -3 8 l 221 4 b 249 25 235 4 244 11 l 279 153 l 489 194 l 503 25 b 531 0 504 8 514 0 l 740 0 b 768 33 758 0 771 15 z m 328 908 l 333 908 l 333 900 l 328 900 z m 497 875 l 501 875 l 501 864 l 497 864 z m 486 853 b 493 851 486 851 489 851 b 490 840 493 846 492 843 l 486 844 z m 336 844 b 329 828 332 838 329 832 l 329 846 b 332 844 329 846 331 844 z m 513 842 b 508 836 510 839 508 838 l 503 836 b 501 840 503 839 503 839 l 501 846 l 517 844 b 513 842 515 844 514 843 z m 499 844 l 501 839 l 501 836 l 499 840 z m 528 829 b 540 832 532 829 536 831 l 538 828 b 544 819 538 824 540 822 b 539 817 542 818 540 817 l 521 817 l 518 819 b 528 829 521 826 524 829 z m 524 792 b 536 788 528 792 532 790 b 535 785 535 786 535 786 b 532 781 535 783 533 782 b 525 783 529 782 528 783 b 518 786 522 783 519 785 b 524 792 518 790 521 792 z m 411 783 l 413 783 l 411 779 l 408 781 z m 431 772 b 436 774 431 772 432 774 b 439 765 438 772 439 769 b 433 765 436 765 435 764 l 426 765 l 425 772 z m 547 747 b 554 740 551 747 554 744 b 549 735 554 739 551 736 l 540 735 b 538 739 539 736 538 738 b 540 743 538 742 539 743 b 547 747 543 744 546 744 z m 242 693 b 242 671 243 686 243 678 b 233 686 239 671 233 683 b 242 693 233 689 243 696 z m 338 675 b 339 678 338 676 338 678 l 346 675 b 340 674 344 672 343 672 b 338 672 338 674 338 672 z m 246 653 l 246 636 l 240 636 l 240 651 z m 406 646 b 408 642 407 644 408 643 b 410 639 408 642 410 640 l 406 628 b 386 636 394 622 390 624 b 406 646 392 644 399 647 z m 563 644 l 563 642 l 553 642 l 553 644 z m 568 619 l 560 619 l 558 622 b 560 626 558 622 558 624 b 568 619 565 626 568 624 z m 351 397 l 419 621 b 438 533 426 592 432 563 b 447 467 442 511 444 489 l 456 400 z m 394 611 l 390 600 l 388 601 l 392 613 z m 522 606 l 525 603 l 522 601 l 518 604 z m 349 504 b 326 444 340 485 326 442 l 321 429 b 313 417 315 424 313 419 b 303 394 308 411 304 403 b 294 371 301 388 299 379 b 290 367 293 369 290 368 b 283 367 288 365 286 365 b 281 376 282 367 281 371 b 288 393 282 382 285 388 b 296 413 292 400 294 406 b 299 425 296 418 297 422 b 311 450 301 435 301 439 b 324 472 319 460 321 464 b 329 492 324 472 325 479 b 339 522 335 510 340 525 b 343 532 340 528 342 531 b 347 538 346 533 347 536 b 353 547 349 538 350 542 b 360 572 356 554 357 563 b 367 578 361 572 364 575 b 374 583 369 581 371 582 l 381 581 b 367 551 372 564 368 556 b 364 540 367 549 365 544 b 349 521 363 536 356 525 z m 532 550 l 532 556 l 542 554 b 540 553 540 554 540 553 l 540 550 z m 560 540 l 560 543 l 568 540 l 568 538 z m 501 533 l 508 533 b 501 533 508 531 503 529 z m 581 490 b 574 485 581 486 579 485 z m 476 486 b 482 485 476 486 479 485 b 485 481 483 483 485 482 l 476 481 z m 535 467 l 533 467 l 533 463 l 521 463 b 522 472 517 467 518 469 l 514 472 b 518 481 514 476 515 479 b 535 467 528 479 533 475 z m 571 478 b 574 481 571 479 572 481 l 576 481 b 579 478 576 481 578 478 b 571 475 579 475 575 475 z m 551 478 b 560 476 557 478 560 478 l 557 472 b 553 475 554 472 554 474 b 551 478 551 476 551 476 z m 571 467 l 582 467 b 593 461 586 467 590 464 b 571 460 585 457 578 456 z m 533 443 b 540 451 533 447 536 450 b 544 450 542 451 543 451 b 549 449 546 450 547 449 l 549 442 l 540 442 b 533 443 539 443 536 443 z m 489 444 l 478 444 l 478 447 l 489 447 z m 600 442 b 592 433 596 439 593 436 b 581 428 590 431 586 429 b 594 419 586 422 590 419 b 604 413 599 419 601 417 b 599 411 601 413 600 411 l 579 411 b 567 435 571 425 567 431 b 582 447 567 439 565 436 l 596 447 b 600 442 597 447 599 446 z m 267 433 b 263 422 267 431 265 426 b 258 431 260 424 258 426 b 261 443 258 433 260 439 l 267 443 z m 538 431 l 535 431 b 532 429 533 429 533 429 l 532 428 l 525 433 l 525 439 l 535 439 l 536 436 b 538 431 536 435 538 433 z m 553 429 b 557 428 554 429 556 428 b 551 414 557 428 556 419 l 549 431 l 551 431 b 553 429 551 429 553 429 z m 519 422 l 540 422 b 531 415 540 419 535 415 b 521 417 526 415 522 417 b 513 415 518 417 515 417 l 508 422 b 519 422 511 422 515 424 z m 507 401 l 504 403 l 506 407 l 508 407 z m 525 388 b 524 385 524 388 524 386 l 514 388 b 515 390 515 389 515 389 l 518 393 b 526 392 522 393 525 392 b 525 388 526 389 526 389 z m 503 388 l 506 390 b 503 388 507 389 506 388 z m 579 372 b 571 375 578 372 572 375 b 572 376 571 376 571 376 b 576 378 575 376 576 378 b 581 372 579 375 581 374 z m 554 353 l 554 361 b 544 374 551 368 549 372 b 540 376 543 374 540 375 b 563 369 547 378 554 375 b 565 361 563 367 564 364 b 568 353 565 357 567 354 z m 499 361 l 494 361 l 494 367 l 499 367 z m 617 353 l 625 351 l 625 350 l 617 350 z m 531 350 l 531 343 l 525 343 l 525 350 z m 490 340 l 494 340 l 494 338 l 490 338 z m 449 331 l 442 331 l 442 333 l 449 333 z m 478 311 l 475 314 l 469 314 b 479 318 474 317 476 318 b 478 311 479 315 479 313 z m 524 308 l 532 317 b 536 314 532 315 533 314 b 540 308 539 311 540 310 b 531 297 540 306 536 301 b 517 301 526 297 519 300 b 524 308 521 304 522 307 z m 560 272 l 560 269 l 553 269 l 553 272 z m 543 269 l 543 258 b 535 269 538 261 535 264 z m 600 264 b 607 269 604 264 606 265 b 608 257 607 263 607 258 l 614 253 b 618 250 615 253 617 253 b 610 249 613 249 610 247 b 601 247 608 247 606 247 b 589 260 593 247 589 257 z m 293 251 l 278 251 l 278 258 l 293 258 z m 249 224 b 244 222 247 222 246 222 b 226 236 233 222 226 232 b 240 247 226 239 229 247 b 257 240 243 247 254 242 b 260 232 257 238 258 235 b 263 224 260 232 260 229 z m 499 242 l 494 242 l 494 247 l 499 247 z m 646 246 l 651 246 l 651 243 l 646 243 z m 510 242 l 529 242 l 529 238 l 515 238 b 510 242 515 239 514 240 z m 439 236 l 438 239 l 442 240 l 443 238 z m 674 50 b 660 65 669 50 660 61 l 660 68 b 661 72 661 69 661 71 b 651 83 656 75 653 79 b 650 96 651 89 650 93 b 646 100 649 97 647 97 b 643 103 644 100 643 101 b 639 107 640 104 640 106 l 635 111 l 636 111 l 636 113 l 638 113 l 638 132 l 629 132 b 622 131 626 131 625 131 b 606 132 615 131 610 131 b 590 150 621 139 596 147 l 590 163 b 593 168 590 164 592 167 b 594 172 594 169 594 171 b 596 174 594 174 594 174 b 599 176 597 174 599 175 b 590 181 600 179 594 182 b 593 190 592 182 592 185 b 606 197 593 194 597 197 b 615 200 608 197 611 197 b 613 203 615 200 615 201 b 607 207 611 204 610 206 b 607 217 604 211 604 214 b 601 221 601 221 599 222 b 599 225 600 222 599 224 b 625 240 599 233 617 240 b 646 233 626 240 642 236 l 646 222 l 640 226 b 628 219 632 226 628 225 l 628 206 l 632 203 b 642 210 635 204 638 207 l 651 218 b 654 200 657 208 657 201 b 650 194 651 200 650 197 b 654 185 650 192 651 189 b 657 156 661 174 661 164 b 668 143 656 151 660 147 b 661 133 663 139 661 136 b 664 126 661 132 663 131 b 669 119 667 122 668 121 b 675 86 672 106 674 94 b 681 53 676 78 678 67 b 674 50 678 50 676 50 z m 150 217 l 146 219 l 146 222 b 150 217 151 221 153 219 z m 210 194 b 208 193 210 193 210 193 b 206 194 207 193 206 193 b 208 201 206 197 207 200 b 210 194 211 199 213 197 z m 579 181 b 576 176 578 178 576 178 b 572 181 575 178 574 178 b 571 185 571 181 571 183 l 581 185 b 579 181 581 183 581 181 z m 167 179 b 168 181 167 181 168 181 b 171 182 169 181 169 181 b 179 178 176 182 179 181 l 179 171 l 176 169 l 167 174 z m 524 175 l 514 175 l 514 181 l 524 181 z m 540 169 b 549 164 546 168 549 168 l 540 164 z m 171 147 b 167 144 169 146 168 144 b 154 156 160 144 154 154 b 176 168 165 156 172 160 b 182 164 178 167 179 165 b 186 161 183 164 185 163 l 186 156 l 176 153 b 171 147 174 150 171 150 z m 526 147 l 525 157 b 532 154 526 156 528 156 l 540 150 z m 226 119 b 221 121 224 121 221 121 b 215 125 219 122 218 122 b 221 126 217 125 218 125 l 224 126 b 226 128 224 128 225 128 l 229 125 b 226 119 229 122 229 121 z m 160 111 b 151 111 156 110 153 110 b 158 117 151 114 154 117 b 168 111 161 117 167 111 z m 185 106 l 176 111 b 185 117 176 113 179 114 b 190 110 189 115 190 113 b 185 106 189 110 188 108 z m 544 110 b 551 114 547 111 550 113 b 557 106 554 111 557 108 l 542 106 z m 571 40 b 569 38 571 39 571 39 b 554 56 565 40 557 50 l 568 56 b 572 42 568 51 569 47 b 571 40 571 42 571 40 z "},"":{"ha":1168,"x_min":0,"x_max":0,"o":"m 1092 968 l 492 942 b 451 917 475 940 461 932 l -12 35 b 17 -4 -18 15 -4 -6 l 165 4 l 165 42 b 164 44 165 43 164 44 b 161 47 161 44 161 46 b 165 65 161 54 163 61 b 171 69 168 67 169 68 b 174 72 172 69 174 71 b 203 93 178 79 188 85 l 203 74 b 199 71 203 75 203 74 b 197 68 197 71 197 69 b 199 61 197 67 197 64 b 192 47 201 56 197 50 b 183 42 188 46 185 44 b 182 19 181 36 181 28 b 181 6 183 15 183 7 l 224 8 b 249 26 236 10 244 15 l 301 138 l 506 156 b 501 29 503 103 501 60 b 531 0 501 11 514 0 l 1060 31 b 1086 58 1078 32 1086 42 l 1086 233 b 1057 261 1086 249 1074 261 l 742 250 l 749 368 l 997 408 b 1021 436 1013 411 1021 421 l 1021 581 b 992 608 1021 596 1007 608 l 992 472 l 986 472 l 986 608 l 756 593 l 765 706 l 1092 746 b 1118 774 1108 747 1117 757 l 1122 939 b 1092 968 1122 956 1110 968 z m 751 942 l 754 942 l 754 938 l 751 938 z m 842 929 b 844 926 842 928 843 926 b 842 929 840 926 839 928 z m 868 906 b 865 900 867 904 865 903 l 865 906 b 857 913 865 908 863 911 b 850 911 854 913 851 911 b 846 906 850 910 849 907 b 850 911 847 907 849 908 b 863 917 853 915 857 917 b 871 911 868 917 871 914 b 868 906 871 910 871 908 z m 1021 911 l 1018 911 l 1018 915 l 1021 915 z m 682 911 l 711 911 l 711 907 l 682 907 z m 782 907 l 764 907 l 763 906 l 753 906 b 760 910 753 907 756 908 l 763 910 l 763 911 l 782 911 z m 736 908 l 740 908 l 740 906 l 736 906 z m 967 900 l 956 900 l 956 906 l 967 906 z m 801 900 b 804 899 806 901 807 901 b 799 893 801 896 799 894 b 801 900 799 899 800 900 z m 893 893 l 888 893 l 888 896 l 893 896 z m 679 868 b 676 864 678 867 676 865 l 671 864 l 671 867 b 669 872 669 869 669 871 l 682 871 b 679 868 682 869 681 869 z m 839 853 l 836 850 l 835 850 b 832 849 835 850 835 849 l 815 849 l 813 851 b 824 863 815 857 819 861 l 826 863 b 831 864 829 863 829 864 l 833 864 b 839 867 835 864 838 865 l 832 860 l 832 858 b 839 853 832 856 835 854 z m 886 851 l 890 851 l 889 847 l 888 849 l 886 849 z m 799 839 b 793 839 797 838 796 838 b 804 847 793 842 797 844 l 807 839 z m 857 828 l 861 836 b 868 828 867 832 868 829 z m 908 825 b 919 833 908 828 913 831 l 922 831 b 925 826 924 829 925 828 z m 828 821 b 825 817 828 819 826 817 l 824 817 l 819 818 l 813 822 b 819 829 813 828 815 829 b 832 825 822 829 826 828 z m 886 814 l 879 814 l 876 821 b 882 822 879 822 881 822 b 888 824 883 822 885 822 b 893 814 892 822 893 818 b 886 814 890 813 888 813 z m 853 806 l 843 806 b 842 808 843 806 842 807 b 844 814 842 811 843 813 l 846 815 l 847 815 b 850 817 849 815 849 817 b 857 811 856 817 857 814 b 853 806 857 807 856 806 z m 1004 808 l 1001 808 l 1001 815 l 1004 815 z m 482 797 l 479 801 l 485 801 b 490 800 486 801 488 800 b 482 797 488 797 485 797 z m 453 756 b 460 754 454 754 457 754 l 460 746 b 453 744 457 746 454 744 l 446 749 b 453 756 446 751 449 754 z m 850 743 l 847 743 l 847 747 l 850 747 z m 492 708 b 483 704 488 707 485 706 l 483 717 b 489 721 488 717 489 718 b 494 717 490 721 492 719 l 499 713 b 492 708 497 711 494 710 z m 401 715 l 407 715 b 413 710 410 714 413 713 b 407 706 413 707 410 706 b 401 707 406 706 404 707 b 399 711 400 708 399 710 b 401 715 399 713 400 714 z m 733 700 b 735 697 733 699 733 697 l 733 696 l 731 696 b 733 700 731 699 732 700 z m 485 682 l 488 679 l 485 678 l 482 679 z m 388 674 b 394 675 389 674 392 675 b 396 672 394 675 396 674 l 399 669 b 388 667 392 667 388 667 b 382 671 383 667 382 668 b 388 674 382 672 385 674 z m 464 647 l 461 644 b 458 650 460 644 458 647 b 464 647 463 650 464 649 z m 404 356 l 543 650 b 518 368 533 565 525 465 z m 728 644 b 732 647 729 646 731 647 b 732 640 733 643 733 642 l 725 642 b 728 644 725 643 726 643 z m 386 644 l 399 644 b 404 643 401 644 403 644 b 399 636 401 642 399 639 l 401 633 b 390 635 396 633 393 635 b 382 643 388 635 385 638 z m 368 625 b 369 629 368 628 369 628 l 375 629 b 381 622 375 626 378 625 l 368 621 z m 736 618 l 735 617 l 729 618 l 729 619 z m 751 594 l 744 594 l 744 601 l 751 601 z m 429 588 l 429 586 l 428 586 b 426 585 428 586 426 586 l 413 585 b 410 589 411 586 410 588 b 418 596 410 592 413 596 b 429 588 421 596 429 594 z m 396 583 b 394 581 396 582 394 581 l 392 582 b 394 583 392 582 393 583 z m 385 567 b 379 568 383 568 381 568 b 368 572 372 568 369 569 b 369 575 368 574 369 575 b 379 578 372 575 375 576 b 388 581 383 579 386 581 b 390 578 389 581 390 579 b 392 576 390 578 390 576 b 413 575 400 576 407 575 b 429 574 417 574 422 574 l 429 571 b 426 567 429 569 429 568 b 419 569 424 567 421 568 l 413 569 b 407 568 413 569 410 569 b 401 567 404 567 403 567 z m 749 567 b 743 565 747 565 744 565 b 732 572 736 565 732 568 b 736 578 732 575 733 576 l 738 579 b 743 578 740 579 742 578 b 749 576 744 576 747 576 z m 856 569 l 856 568 l 854 568 z m 997 564 l 1006 569 b 1017 565 1008 569 1015 567 l 1017 554 l 1011 547 b 1004 549 1010 547 1007 549 b 997 550 1001 550 1000 550 z m 864 568 l 861 567 l 861 568 z m 382 549 b 379 547 381 547 379 547 b 374 546 376 547 375 546 b 369 547 371 546 369 547 b 365 550 368 549 367 550 l 365 558 l 372 558 l 372 553 b 375 554 374 553 375 553 l 378 554 b 385 550 379 554 382 553 b 382 549 383 550 382 549 z m 829 556 l 831 556 b 833 557 831 557 832 557 b 832 547 838 554 836 549 l 825 553 z m 867 549 l 861 551 l 864 557 l 869 557 z m 779 550 b 779 542 785 546 785 543 z m 346 533 b 353 539 347 536 350 538 l 354 538 b 357 535 354 536 356 536 b 356 533 356 535 356 533 b 354 531 356 532 354 532 l 350 531 z m 763 535 b 764 536 763 536 764 536 l 767 538 b 775 535 768 536 771 535 l 775 528 l 772 528 l 771 526 b 764 528 768 526 765 528 l 758 533 b 763 535 761 535 763 535 z m 828 536 b 833 532 831 535 831 533 l 838 529 l 828 529 b 825 535 826 532 825 533 b 828 536 825 535 826 535 z m 742 526 l 738 526 b 725 529 732 526 728 526 b 721 535 722 531 721 532 b 733 531 724 535 732 532 l 742 531 z m 733 531 l 732 531 z m 824 518 b 825 524 825 521 825 521 l 836 524 l 836 518 b 833 514 836 517 836 515 l 822 514 b 824 518 822 514 824 515 z m 342 483 b 335 482 340 482 338 482 b 326 481 332 482 329 481 l 326 492 l 332 492 b 336 489 332 490 335 489 l 342 488 z m 367 478 b 365 475 365 476 365 476 b 356 479 363 478 360 479 b 367 481 360 482 364 482 z m 321 476 b 324 478 321 478 322 478 b 326 479 324 479 325 479 b 331 478 329 479 331 479 l 332 476 l 329 471 b 321 474 326 471 324 471 z m 989 469 b 994 457 992 463 993 458 l 997 447 b 994 442 997 446 996 444 b 989 435 993 440 992 439 z m 358 463 b 360 460 358 461 360 461 l 360 457 l 357 454 b 356 457 357 456 357 456 b 353 458 354 457 353 457 b 358 463 353 461 354 463 z m 667 458 b 669 460 667 460 668 460 l 671 460 l 674 458 b 669 457 671 457 669 457 b 667 458 668 454 667 456 z m 642 431 b 646 439 642 432 643 436 l 653 439 l 654 438 b 660 435 656 436 657 435 b 650 432 657 432 654 432 b 642 431 649 432 646 432 z m 650 428 b 669 425 650 428 663 425 b 657 424 665 424 661 424 b 650 419 654 425 651 424 b 646 425 649 421 647 422 z m 615 418 b 610 417 613 418 611 417 l 606 419 b 610 425 606 421 607 424 b 615 424 613 425 614 424 b 619 422 615 424 617 422 b 615 418 617 421 615 421 z m 933 417 l 950 417 l 950 413 l 933 413 z m 657 393 b 658 403 656 396 657 399 b 646 408 657 404 651 406 b 657 413 649 410 651 411 b 665 415 661 415 664 415 l 671 415 b 676 414 674 414 674 414 b 669 396 671 407 667 401 z m 631 403 l 631 404 b 633 406 632 404 632 404 b 636 404 635 404 635 404 l 638 403 b 631 403 635 400 633 400 z m 690 404 l 694 400 b 685 397 690 399 688 397 b 675 404 679 397 676 397 z m 633 400 b 639 390 638 397 639 393 b 631 388 638 389 635 388 b 629 393 631 388 629 390 b 633 400 626 394 628 397 z m 285 390 b 292 392 289 390 290 390 b 301 379 299 389 301 383 b 299 378 301 379 300 378 b 290 376 297 378 294 376 b 288 381 290 378 289 379 b 285 385 286 381 285 383 z m 675 369 l 667 369 b 660 372 665 371 663 371 b 667 378 661 374 664 376 l 676 382 l 672 386 b 669 389 671 386 669 388 l 678 389 b 682 381 681 388 682 385 b 685 383 683 381 685 382 b 689 386 685 385 686 386 l 696 386 l 696 375 b 675 369 678 368 678 369 z m 636 367 b 646 381 636 371 639 381 b 651 379 649 381 650 379 b 657 375 653 378 654 376 l 657 357 l 653 354 l 649 354 b 636 360 646 354 642 356 z m 626 368 b 617 368 624 367 621 367 b 624 374 617 369 622 374 z m 689 361 l 681 361 l 683 365 l 692 365 b 689 361 692 363 690 361 z m 606 354 b 613 360 606 356 607 358 b 613 354 614 357 614 356 z m 679 357 b 685 350 682 356 685 353 b 676 351 682 350 679 350 z m 331 344 l 326 344 l 326 353 l 336 354 l 339 351 b 342 350 339 350 340 350 b 331 344 338 346 333 344 z m 631 343 b 636 351 631 344 632 347 l 643 351 b 646 347 643 350 644 349 l 643 342 z m 213 339 b 211 336 211 338 211 336 b 207 338 210 336 208 338 b 201 340 206 339 204 339 l 201 344 b 207 347 199 344 200 344 b 211 350 208 347 210 349 b 213 347 211 349 211 347 b 215 343 214 347 215 346 b 213 339 215 342 214 340 z m 651 338 l 651 343 b 658 349 651 347 654 349 l 660 340 z m 676 336 b 667 333 674 336 671 335 l 660 339 b 663 340 661 339 663 340 b 668 342 663 340 665 342 b 681 343 674 342 678 342 l 683 340 b 686 338 685 340 686 339 z m 307 331 l 301 331 l 303 333 l 307 332 z m 274 329 b 281 328 278 328 281 328 b 274 322 281 326 279 325 b 269 325 274 324 272 325 b 265 329 268 326 268 328 z m 664 324 l 657 324 l 657 329 l 668 326 z m 646 321 l 643 326 b 654 324 649 326 651 325 b 646 321 651 321 649 321 z m 635 311 b 638 315 636 313 638 314 l 653 314 b 650 310 653 313 651 310 z m 624 306 l 617 311 l 626 313 b 632 301 626 311 629 307 b 624 306 628 301 625 303 z m 640 293 l 640 299 b 642 301 640 300 640 301 l 646 306 b 646 300 647 304 647 303 b 647 293 644 299 646 296 z m 675 296 l 675 301 l 682 301 b 675 296 682 299 679 296 z m 597 296 b 601 300 597 297 599 299 b 608 299 601 300 604 300 l 607 297 b 606 293 606 296 606 296 z m 644 290 l 644 285 l 640 285 l 640 290 z m 649 285 b 647 288 647 285 647 286 l 651 288 b 658 289 653 288 654 289 l 658 288 b 660 285 658 286 658 285 l 650 282 b 649 285 649 283 649 283 z m 361 279 l 356 279 b 351 281 356 279 354 281 l 353 286 l 364 286 b 361 279 364 283 363 281 z m 297 275 b 289 274 294 274 292 274 b 292 281 289 276 290 279 b 299 278 294 278 297 278 l 306 275 z m 669 269 l 661 269 l 661 275 l 669 275 z m 590 267 l 599 267 b 592 258 599 263 596 260 b 590 267 589 261 589 264 z m 622 256 b 619 257 621 256 621 256 l 618 257 l 618 263 l 621 263 b 622 264 621 263 622 263 l 625 264 l 626 257 b 622 256 625 256 624 256 z m 213 240 l 211 239 b 204 240 208 239 206 239 l 199 240 l 199 247 b 210 247 206 253 218 244 b 214 243 213 246 214 244 b 213 240 214 242 213 242 z m 597 236 b 590 235 596 235 594 235 l 589 240 b 596 243 592 242 594 243 l 600 240 b 597 236 599 238 597 238 z m 624 238 l 631 238 l 629 235 l 624 236 z m 422 233 l 421 235 l 419 235 b 426 235 421 238 424 238 z m 422 224 l 417 224 b 422 228 417 225 421 228 b 422 224 424 226 424 225 z m 615 226 b 615 222 615 224 617 222 l 615 218 b 608 221 613 218 610 219 b 615 226 608 221 611 226 z m 279 218 b 269 217 276 218 274 217 b 261 219 267 217 264 218 b 281 225 261 219 276 225 l 286 225 l 290 219 b 279 218 289 219 285 219 z m 315 224 b 308 225 313 222 310 224 l 319 225 b 315 224 319 225 318 224 z m 122 197 b 113 182 122 197 115 188 b 110 176 111 181 110 179 b 100 164 107 175 104 169 l 96 156 l 88 140 b 63 89 78 124 67 94 b 57 75 58 78 57 74 b 46 61 54 69 51 67 b 42 61 46 60 44 60 b 36 60 39 61 38 61 l 122 222 b 125 210 122 222 122 217 b 122 197 124 204 122 200 z m 788 215 l 799 215 l 799 213 l 788 213 z m 843 211 b 849 215 846 211 849 214 l 851 208 b 850 206 851 208 850 207 b 847 201 850 204 849 203 l 840 201 b 836 207 840 203 839 206 b 843 211 838 207 839 208 z m 925 210 l 926 208 l 925 206 l 922 206 z m 804 206 l 796 206 l 796 208 l 804 208 z m 869 203 b 872 200 871 201 871 200 b 874 199 874 200 874 200 l 868 197 z m 788 196 l 790 196 b 793 197 790 197 792 197 b 790 192 796 194 794 193 l 788 194 z m 836 192 b 835 189 836 190 836 189 b 833 186 835 188 835 186 b 832 185 833 186 833 185 l 829 194 b 836 192 832 194 835 193 z m 863 189 b 864 186 864 188 864 186 b 863 182 863 185 863 183 l 856 182 b 863 189 856 185 858 188 z m 211 164 b 204 163 207 164 206 163 l 204 168 b 211 169 207 168 210 169 z m 674 168 l 668 163 b 665 160 667 161 665 161 l 665 168 z m 693 168 l 701 168 b 700 167 700 168 700 168 l 700 164 b 693 168 696 164 693 165 z m 767 164 l 771 158 l 768 158 l 765 164 z m 910 160 b 908 157 910 160 910 158 l 906 153 b 899 160 901 153 899 156 z m 850 153 l 846 153 l 847 157 l 850 157 z m 806 149 b 804 147 804 149 804 147 l 801 153 l 804 153 l 807 150 b 806 149 807 150 807 149 z m 685 126 l 674 126 l 674 133 l 685 133 z m 557 103 l 543 103 l 543 111 l 561 111 b 557 103 558 110 557 107 z m 1010 111 l 1024 107 l 1024 103 l 1007 106 z m 647 103 l 632 103 l 632 108 l 647 108 z m 750 103 l 750 96 l 739 96 l 739 103 z m 815 97 l 832 97 l 839 90 b 838 85 839 89 839 86 b 835 79 836 82 835 81 l 815 79 b 814 86 815 79 814 82 b 815 97 814 90 814 94 z m 601 96 l 617 96 l 617 90 l 601 90 z m 663 61 b 657 90 663 69 661 81 b 668 94 660 92 665 94 b 663 61 675 88 672 67 z m 524 81 l 540 81 b 524 81 538 78 526 74 z m 582 69 l 579 69 l 579 75 l 567 75 l 567 81 l 579 81 l 579 75 l 582 75 z m 719 67 b 706 56 718 65 713 60 b 696 67 706 58 699 65 b 703 68 699 67 700 68 b 711 71 706 69 708 69 b 726 72 715 72 721 72 b 719 67 725 71 722 69 z m 632 60 b 631 53 632 56 631 53 b 611 56 626 54 619 56 l 611 68 l 635 68 b 632 60 635 67 635 64 z m 886 64 l 896 64 l 896 61 l 886 61 z m 1007 43 l 1013 43 b 1004 39 1010 40 1007 39 b 1007 43 1006 39 1007 40 z m 615 35 l 604 35 l 604 40 l 615 40 z "},"B":{"ha":750,"x_min":0,"x_max":0,"o":"m 611 515 l 575 478 b 663 281 633 428 663 378 b 504 28 663 178 603 67 b 333 0 451 6 390 0 l 14 0 b -14 31 -1 0 -14 13 l 56 890 b 81 915 57 906 65 914 l 347 946 b 514 946 399 953 461 957 b 667 836 586 929 636 892 b 679 633 700 775 693 697 l 679 632 l 678 631 b 611 515 665 585 642 547 z m 574 850 l 576 850 l 579 856 l 575 856 z m 383 831 l 383 833 l 374 842 b 367 838 372 840 369 839 b 361 833 364 836 363 835 b 369 831 364 833 367 832 b 376 828 372 829 375 828 l 381 828 z m 381 786 b 378 793 381 788 381 790 b 378 800 376 796 376 799 l 379 803 b 381 807 381 804 381 806 b 372 797 378 804 375 801 b 371 790 371 793 371 790 b 372 786 371 789 371 788 l 374 783 b 378 785 375 783 376 783 b 381 786 379 785 381 786 z m 417 782 l 417 788 l 414 788 l 414 782 z m 489 763 l 486 763 l 483 757 l 486 756 z m 263 711 l 250 567 b 386 611 307 578 351 590 b 419 656 403 621 414 636 b 414 715 422 669 429 706 b 381 725 404 722 393 725 b 297 715 357 725 321 719 z m 500 663 b 494 658 497 661 496 660 b 497 656 493 657 494 656 b 500 663 499 657 500 658 z m 244 650 l 239 656 b 236 658 238 656 238 657 l 232 656 l 229 656 l 229 653 b 228 651 228 653 228 653 l 228 647 b 231 644 231 646 231 644 b 232 642 231 643 232 642 l 229 642 b 226 639 228 642 226 642 l 228 639 l 229 638 l 233 638 b 228 629 235 636 233 633 b 231 624 229 628 229 625 b 235 619 231 621 232 619 l 243 619 b 246 625 243 621 244 622 b 244 626 246 625 244 625 l 240 631 b 238 636 239 633 238 635 b 246 647 243 639 246 643 b 244 650 246 647 246 649 z m 625 606 l 625 610 b 621 611 622 610 621 611 l 618 611 b 613 607 614 611 613 610 b 618 601 613 603 615 603 b 621 603 618 603 619 603 b 625 606 622 603 622 603 z m 235 601 l 232 599 b 229 597 231 599 231 597 l 226 592 l 242 592 b 240 597 242 592 242 594 b 235 601 238 599 236 599 z m 439 592 l 438 594 l 438 599 l 425 599 b 422 589 425 596 425 592 l 439 589 z m 403 589 b 397 586 406 592 403 590 b 389 585 394 586 392 585 b 408 585 394 581 401 581 b 403 589 404 585 403 586 z m 236 585 l 236 586 l 235 588 l 232 588 l 229 589 b 218 588 228 589 224 589 b 229 578 222 582 225 579 b 238 582 233 579 236 581 l 238 583 b 236 585 236 583 236 583 z m 431 582 l 431 585 b 419 579 424 585 419 581 b 426 578 422 578 424 578 l 432 578 l 432 581 b 431 582 431 581 431 582 z m 456 557 l 447 575 b 439 567 446 572 443 569 b 435 561 436 564 435 561 l 432 558 l 435 556 b 438 554 436 556 436 554 b 439 550 439 553 439 553 b 447 553 442 551 444 553 b 456 557 450 553 453 554 z m 378 572 l 367 574 l 367 569 l 378 567 z m 172 557 l 172 567 b 167 571 172 567 169 568 b 156 563 158 568 156 565 l 164 560 l 167 558 b 172 557 169 558 171 558 z m 372 565 l 369 564 l 367 561 b 365 558 367 560 365 560 b 367 557 365 557 367 557 b 369 556 367 557 368 556 l 372 556 b 372 565 375 558 375 563 z m 150 561 l 144 561 b 139 563 144 561 143 563 l 136 554 b 143 553 139 553 142 553 l 150 553 z m 214 554 b 211 550 213 553 211 551 l 218 546 b 219 553 219 549 219 550 l 219 558 b 214 554 217 556 214 556 z m 560 551 l 578 549 l 583 554 b 579 556 583 554 582 554 l 574 556 b 560 551 569 556 561 553 z m 550 551 l 551 547 l 554 549 l 553 551 z m 444 544 l 438 544 l 438 536 l 444 536 z m 422 536 b 419 525 422 531 421 528 l 432 525 b 422 536 432 529 429 533 z m 561 533 l 561 531 l 567 533 l 565 535 z m 369 485 l 369 494 b 363 496 367 496 365 496 b 357 490 358 496 357 494 b 358 486 357 489 358 488 b 365 485 361 483 364 483 z m 469 482 l 461 482 b 460 481 461 481 461 481 l 460 475 l 467 475 z m 375 376 b 374 382 375 378 375 381 b 365 383 371 383 368 383 b 375 376 367 379 369 376 z m 242 356 l 236 217 b 363 261 299 222 332 238 b 371 371 392 283 417 342 b 296 368 353 381 314 372 l 294 367 b 242 356 275 363 257 358 z m 438 368 l 438 375 l 435 375 l 435 368 z m 129 353 b 125 358 129 354 128 356 l 125 346 b 129 353 128 347 129 350 z m 132 335 b 131 336 132 336 132 336 l 131 339 l 129 339 b 125 332 124 338 122 335 b 119 324 125 329 124 326 l 119 319 b 125 318 122 319 124 319 b 125 324 125 319 126 322 b 131 333 124 328 126 331 b 132 335 131 333 132 333 z m 129 304 b 128 308 129 306 128 308 b 125 313 126 310 125 311 l 119 313 b 119 297 118 308 118 303 l 119 281 b 125 279 121 281 124 281 l 128 281 b 126 282 128 281 128 282 b 122 286 125 283 124 283 b 129 304 126 290 129 303 z m 182 311 b 179 307 179 310 179 308 b 181 303 181 306 181 304 l 182 300 b 182 306 182 303 183 304 z m 125 256 l 125 261 l 119 261 b 122 258 119 261 119 260 b 125 256 122 258 124 258 z m 128 206 b 119 218 128 213 128 211 b 126 222 121 221 122 222 l 125 246 b 124 240 124 244 124 242 l 124 236 b 119 231 124 235 124 233 b 114 228 117 231 114 229 b 117 199 114 215 115 206 b 124 196 119 199 122 197 b 119 194 122 194 119 194 l 115 194 b 114 190 115 193 114 192 l 113 185 b 117 181 113 183 114 182 l 122 175 l 124 176 b 125 178 124 178 124 178 b 122 181 125 179 125 181 b 118 183 121 181 119 182 b 125 186 119 186 122 186 b 126 197 125 190 125 194 b 128 206 128 203 128 204 z m 363 206 l 361 213 b 356 210 358 211 357 210 l 350 207 l 354 203 b 363 206 357 203 360 203 z m 121 164 l 125 164 l 125 172 b 119 174 122 172 121 174 l 115 174 l 114 172 l 114 168 b 121 164 114 168 119 165 z m 176 76 l 200 76 l 200 174 b 194 165 197 171 196 168 b 192 157 194 164 193 161 b 186 131 192 144 189 136 b 185 111 182 125 182 118 b 183 110 183 111 183 111 l 182 108 b 183 103 182 107 182 106 l 183 97 b 175 81 181 94 175 83 l 175 78 b 176 76 176 78 176 76 z m 115 147 l 115 142 l 118 142 l 118 147 z m 115 133 l 115 129 l 118 129 l 118 133 z m 117 104 l 117 110 l 107 110 l 107 104 b 117 104 110 103 113 103 z m 169 86 l 167 86 b 165 88 167 88 167 88 b 157 74 161 76 160 74 b 154 65 156 74 154 71 b 156 57 154 61 154 58 l 157 57 b 160 58 157 57 158 57 b 165 69 164 63 165 67 b 164 75 165 72 165 74 b 169 86 164 78 169 83 z "},"C":{"ha":750,"x_min":0,"x_max":0,"o":"m 650 849 b 454 968 607 922 536 960 b 408 971 439 969 424 971 b 164 867 314 971 229 940 b -14 399 67 761 -14 614 b 204 14 -14 204 72 50 b 300 0 238 4 269 0 b 540 108 389 0 468 36 b 650 268 585 151 621 214 b 653 282 653 272 653 276 b 646 300 653 288 651 294 l 563 388 b 542 396 557 393 549 396 b 518 383 533 396 524 392 b 463 294 499 350 481 321 b 446 271 457 288 451 279 b 426 249 439 263 433 254 b 329 208 396 218 363 204 b 251 399 260 221 251 335 b 418 776 251 544 318 776 b 444 760 429 776 438 771 b 449 736 447 753 449 746 b 440 675 449 718 444 697 b 419 596 433 647 424 610 b 418 586 418 593 418 589 b 446 558 418 571 429 558 l 639 558 b 665 579 653 558 663 565 b 683 690 675 614 683 654 b 650 849 688 750 676 803 z m 467 953 b 478 950 471 951 475 951 b 489 949 481 950 485 950 l 494 944 b 482 943 492 944 488 944 b 472 940 478 942 475 940 b 461 946 469 940 465 943 b 467 953 461 947 463 950 z m 478 919 b 476 918 476 919 476 919 l 476 915 l 458 924 b 454 931 460 926 458 929 b 468 938 457 933 461 936 b 471 933 469 936 471 935 b 471 929 469 932 469 931 b 478 928 472 929 474 928 b 485 929 479 929 482 929 b 492 932 486 929 489 929 b 500 938 493 935 496 936 b 500 943 501 939 501 940 b 501 947 499 944 500 946 b 508 946 503 946 504 946 b 517 943 513 946 515 944 b 508 938 514 940 511 939 b 500 935 506 936 501 935 b 494 928 497 931 499 931 b 481 926 489 928 485 928 b 478 919 476 925 475 924 z m 318 931 b 314 929 318 929 317 929 b 310 931 311 929 310 931 l 310 932 b 307 935 310 933 308 935 b 297 938 306 936 301 938 l 318 938 l 318 935 b 319 932 318 932 319 932 z m 344 938 l 357 938 l 351 932 l 344 932 z m 535 926 l 528 926 l 528 929 l 535 929 z m 357 918 b 351 924 354 919 351 921 b 354 926 351 925 353 926 l 363 926 b 368 919 363 924 364 921 l 363 915 b 357 918 361 915 360 917 z m 447 914 b 456 919 451 918 454 919 b 456 914 457 918 457 915 b 454 910 456 914 454 913 b 447 914 454 911 453 913 z m 360 904 b 353 906 358 904 356 904 b 346 907 349 906 347 907 b 351 911 347 907 349 908 l 357 911 b 360 907 357 910 358 908 z m 346 871 l 343 872 l 344 875 l 349 872 z m 463 840 l 463 844 b 465 846 463 846 463 846 b 463 840 465 843 464 842 z m 457 811 l 446 810 l 446 828 l 457 828 z m 379 800 b 375 793 379 799 376 796 l 367 793 b 371 800 368 794 369 797 b 375 808 371 801 372 804 l 383 808 z m 521 774 b 518 767 521 772 521 769 b 514 760 517 765 515 763 l 508 764 l 510 779 b 521 774 518 779 521 776 z m 547 767 l 563 767 l 563 764 b 561 763 561 764 561 764 l 560 761 l 560 758 l 544 761 z m 542 738 b 554 750 542 739 549 750 b 563 747 557 750 560 749 b 568 744 565 746 567 744 b 572 740 568 743 569 743 l 572 733 l 567 732 b 560 729 568 732 565 731 b 553 726 557 728 554 726 b 542 738 543 726 542 732 z m 249 743 b 251 746 249 744 250 746 b 254 744 253 744 254 744 l 256 743 z m 526 728 l 518 722 l 508 719 b 501 721 507 719 504 719 b 493 724 500 721 497 721 l 493 729 b 499 731 496 731 497 731 b 504 732 501 731 503 731 b 515 739 510 733 511 732 l 514 740 b 526 728 514 740 528 732 z m 574 715 b 571 713 574 715 572 715 l 567 713 l 567 711 b 564 710 565 711 565 710 b 568 703 567 708 568 707 l 563 699 b 553 703 561 700 557 701 b 544 707 549 704 546 706 b 550 721 544 711 546 715 l 554 721 l 556 719 b 564 715 558 717 561 715 b 572 718 565 715 568 717 l 576 718 z m 207 707 l 203 707 l 203 711 l 207 711 z m 174 672 b 171 668 171 671 171 671 b 168 671 168 671 168 672 b 163 672 167 672 165 672 b 160 671 161 672 160 672 l 158 671 b 156 676 157 671 156 674 b 160 685 156 678 157 681 b 167 694 163 688 165 690 b 157 696 164 694 160 694 b 150 700 153 697 150 699 b 158 710 150 703 153 706 b 163 701 157 706 160 703 b 174 685 171 697 174 690 b 176 676 174 682 175 679 b 174 672 174 674 174 672 z m 182 699 b 185 701 183 699 185 699 b 188 703 186 701 186 703 l 192 700 b 194 696 193 699 194 697 z m 201 699 l 203 697 b 201 699 203 697 201 697 z m 121 682 b 132 676 125 682 129 679 l 129 672 b 121 676 126 672 124 674 z m 113 663 l 106 663 b 99 665 104 663 101 663 z m 144 665 b 140 657 144 661 143 658 b 122 660 138 658 129 660 l 122 665 z m 171 654 l 164 654 l 164 657 l 171 657 z m 288 649 l 285 649 l 285 653 l 288 653 z m 581 643 l 579 646 l 581 646 l 583 644 z m 115 636 b 117 632 117 636 117 635 b 111 625 117 629 115 628 b 103 639 104 628 101 632 l 113 639 b 115 636 113 638 113 638 z m 153 615 b 149 617 151 615 149 615 b 143 619 146 618 144 619 b 133 615 140 619 138 618 b 122 613 128 613 124 613 b 121 615 122 613 121 613 b 118 617 119 615 118 617 b 121 619 118 617 118 618 b 124 621 121 619 122 621 l 126 621 l 128 619 l 131 619 b 132 624 132 619 132 621 b 128 631 132 626 131 629 l 135 631 b 158 615 139 631 151 621 z m 100 611 b 93 618 99 611 93 615 b 100 611 99 615 100 614 z m 81 614 l 74 614 l 74 617 l 81 617 z m 167 593 l 163 593 b 160 601 161 596 160 599 b 164 613 160 604 163 610 b 167 593 168 604 168 597 z m 157 601 l 146 603 l 146 606 l 157 604 z m 111 578 b 114 583 111 579 113 581 b 117 590 114 585 115 588 b 122 588 117 589 118 588 l 122 579 l 118 579 b 111 578 115 578 113 578 z m 72 574 l 67 576 b 76 583 67 579 71 582 l 78 582 l 81 582 b 72 574 81 579 78 576 z m 128 568 l 121 568 l 122 574 l 129 574 z m 93 563 l 101 563 b 103 560 101 561 101 561 b 101 557 103 558 103 557 l 100 556 l 93 556 z m 113 521 b 93 525 106 524 99 525 b 92 529 93 525 92 526 l 90 532 l 99 532 b 107 531 101 532 104 532 b 113 528 110 529 111 528 z m 111 507 b 108 510 110 510 110 510 b 107 513 108 510 107 511 b 111 518 107 515 108 518 z m 164 482 b 163 490 164 483 164 486 b 160 499 160 493 160 496 b 164 510 160 503 161 507 b 165 500 165 507 165 504 b 164 482 165 493 165 488 z m 7 424 b 0 417 7 422 4 419 l -3 421 b -4 426 -4 422 -4 424 b -3 431 -4 426 -4 428 l -3 435 l 7 435 z m 540 367 l 540 369 b 542 369 540 368 540 368 l 549 365 b 547 361 549 364 549 363 b 544 357 546 360 544 358 b 540 367 540 361 539 364 z m 32 251 b 28 250 29 251 29 251 b 24 251 26 251 24 251 b 21 253 24 251 22 253 l 21 258 l 28 261 l 38 261 l 42 258 b 32 251 40 257 35 254 z m 140 232 l 138 232 l 138 243 l 140 243 z m 426 63 l 431 60 l 422 43 l 418 44 z m 272 39 b 274 36 272 38 274 38 b 275 32 275 35 275 32 l 264 32 b 272 39 264 33 269 38 z "},"":{"ha":750,"x_min":0,"x_max":0,"o":"m 300 1042 l 440 1044 b 481 1065 457 1044 467 1051 l 647 1233 b 629 1276 667 1253 647 1276 l 410 1269 b 382 1249 400 1269 389 1261 l 274 1078 b 300 1042 263 1060 282 1042 z m 433 1228 l 446 1224 b 444 1215 446 1224 446 1221 b 450 1201 446 1208 447 1204 b 454 1197 451 1201 454 1199 b 435 1210 447 1197 440 1203 b 433 1218 435 1213 435 1215 b 433 1228 435 1222 433 1225 z m 471 1228 l 476 1226 l 475 1219 l 469 1221 z m 508 1224 l 513 1224 l 511 1221 l 507 1221 z m 554 1219 l 561 1218 l 560 1215 l 553 1217 z m 417 1211 b 425 1206 418 1211 424 1207 l 418 1206 b 415 1211 417 1208 415 1210 z m 499 1203 l 503 1201 l 501 1196 l 497 1197 z m 467 1183 b 468 1185 468 1183 468 1185 l 476 1181 b 475 1178 475 1179 475 1179 b 471 1176 475 1178 474 1176 b 464 1179 468 1176 465 1179 b 467 1183 464 1182 464 1182 z m 390 1154 b 403 1157 392 1157 397 1157 b 392 1169 399 1164 394 1168 b 383 1178 388 1169 385 1174 l 389 1178 b 397 1176 390 1178 393 1176 b 408 1174 401 1175 406 1174 b 414 1147 413 1158 415 1151 b 396 1139 414 1143 415 1146 l 383 1142 b 381 1149 382 1143 381 1144 b 390 1154 385 1150 389 1153 z m 488 1178 l 485 1175 b 488 1178 483 1178 485 1178 z m 481 1165 l 482 1163 l 481 1160 l 478 1160 z m 435 1164 l 433 1147 l 431 1147 b 429 1150 431 1149 429 1150 b 425 1151 428 1150 426 1151 b 435 1164 425 1151 429 1160 z m 471 1153 l 474 1146 b 463 1149 471 1146 467 1146 b 443 1153 460 1149 454 1150 b 454 1157 443 1156 450 1158 b 463 1154 458 1157 461 1154 b 471 1153 465 1153 468 1153 z m 443 1144 b 446 1143 443 1144 444 1144 l 449 1144 l 450 1146 l 456 1139 l 454 1133 l 444 1136 l 443 1139 b 443 1144 444 1140 443 1142 z m 432 1128 b 428 1129 431 1128 429 1129 l 431 1136 b 435 1135 432 1136 433 1136 l 438 1135 b 444 1131 439 1132 442 1132 b 436 1125 443 1128 440 1125 b 432 1128 435 1125 433 1125 z m 403 1117 b 392 1119 401 1118 397 1118 b 382 1128 388 1121 385 1125 b 404 1124 392 1131 399 1129 z m 497 1114 l 486 1117 l 488 1119 l 499 1117 z m 450 1092 b 438 1108 442 1094 438 1100 l 439 1108 l 440 1113 l 451 1110 b 449 1100 456 1104 453 1101 b 453 1099 450 1100 451 1100 l 457 1099 b 450 1092 456 1094 453 1092 z m 392 1108 b 400 1107 393 1111 400 1108 b 392 1108 400 1106 393 1108 z m 418 1104 b 418 1101 419 1103 419 1103 b 411 1106 414 1103 411 1104 l 415 1108 b 418 1104 417 1108 417 1107 z m 388 1097 b 396 1100 389 1101 390 1101 z m 342 1090 l 349 1088 l 347 1082 b 343 1085 347 1082 346 1085 b 342 1090 342 1088 340 1089 z m 650 849 b 454 968 607 922 536 960 b 408 971 439 969 424 971 b 164 867 314 971 229 940 b -14 399 67 761 -14 614 b 204 14 -14 204 72 50 b 300 0 238 4 269 0 b 540 108 389 0 468 36 b 650 268 585 151 621 214 b 653 282 653 272 653 276 b 646 300 653 288 651 294 l 563 388 b 542 396 557 393 549 396 b 518 383 533 396 524 392 b 463 294 499 350 481 321 b 446 271 457 288 451 279 b 426 249 439 263 433 254 b 329 208 396 218 363 204 b 251 399 260 221 251 335 b 418 776 251 544 318 776 b 444 760 429 776 438 771 b 449 736 447 753 449 746 b 440 675 449 718 444 697 b 419 596 433 647 424 610 b 418 586 418 593 418 589 b 446 558 418 571 429 558 l 639 558 b 665 579 653 558 663 565 b 683 690 675 614 683 654 b 650 849 688 750 676 803 z m 467 953 b 478 950 471 951 475 951 b 489 949 481 950 485 950 l 494 944 b 482 943 492 944 488 944 b 472 940 478 942 475 940 b 461 946 469 940 465 943 b 467 953 461 947 463 950 z m 478 919 b 476 918 476 919 476 919 l 476 915 l 458 924 b 454 931 460 926 458 929 b 468 938 457 933 461 936 b 471 933 469 936 471 935 b 471 929 469 932 469 931 b 478 928 472 929 474 928 b 485 929 479 929 482 929 b 492 932 486 929 489 929 b 500 938 493 935 496 936 b 500 943 501 939 501 940 b 501 947 499 944 500 946 b 508 946 503 946 504 946 b 517 943 513 946 515 944 b 508 938 514 940 511 939 b 500 935 506 936 501 935 b 494 928 497 931 499 931 b 481 926 489 928 485 928 b 478 919 476 925 475 924 z m 318 931 b 314 929 318 929 317 929 b 310 931 311 929 310 931 l 310 932 b 307 935 310 933 308 935 b 297 938 306 936 301 938 l 318 938 l 318 935 b 319 932 318 932 319 932 z m 344 938 l 357 938 l 351 932 l 344 932 z m 535 926 l 528 926 l 528 929 l 535 929 z m 357 918 b 351 924 354 919 351 921 b 354 926 351 925 353 926 l 363 926 b 368 919 363 924 364 921 l 363 915 b 357 918 361 915 360 917 z m 447 914 b 456 919 451 918 454 919 b 456 914 457 918 457 915 b 454 910 456 914 454 913 b 447 914 454 911 453 913 z m 360 904 b 353 906 358 904 356 904 b 346 907 349 906 347 907 b 351 911 347 907 349 908 l 357 911 b 360 907 357 910 358 908 z m 346 871 l 343 872 l 344 875 l 349 872 z m 463 840 l 463 844 b 465 846 463 846 463 846 b 463 840 465 843 464 842 z m 457 811 l 446 810 l 446 828 l 457 828 z m 379 800 b 375 793 379 799 376 796 l 367 793 b 371 800 368 794 369 797 b 375 808 371 801 372 804 l 383 808 z m 521 774 b 518 767 521 772 521 769 b 514 760 517 765 515 763 l 508 764 l 510 779 b 521 774 518 779 521 776 z m 547 767 l 563 767 l 563 764 b 561 763 561 764 561 764 l 560 761 l 560 758 l 544 761 z m 542 738 b 554 750 542 739 549 750 b 563 747 557 750 560 749 b 568 744 565 746 567 744 b 572 740 568 743 569 743 l 572 733 l 567 732 b 560 729 568 732 565 731 b 553 726 557 728 554 726 b 542 738 543 726 542 732 z m 249 743 b 251 746 249 744 250 746 b 254 744 253 744 254 744 l 256 743 z m 526 728 l 518 722 l 508 719 b 501 721 507 719 504 719 b 493 724 500 721 497 721 l 493 729 b 499 731 496 731 497 731 b 504 732 501 731 503 731 b 515 739 510 733 511 732 l 514 740 b 526 728 514 740 528 732 z m 574 715 b 571 713 574 715 572 715 l 567 713 l 567 711 b 564 710 565 711 565 710 b 568 703 567 708 568 707 l 563 699 b 553 703 561 700 557 701 b 544 707 549 704 546 706 b 550 721 544 711 546 715 l 554 721 l 556 719 b 564 715 558 717 561 715 b 572 718 565 715 568 717 l 576 718 z m 207 707 l 203 707 l 203 711 l 207 711 z m 174 672 b 171 668 171 671 171 671 b 168 671 168 671 168 672 b 163 672 167 672 165 672 b 160 671 161 672 160 672 l 158 671 b 156 676 157 671 156 674 b 160 685 156 678 157 681 b 167 694 163 688 165 690 b 157 696 164 694 160 694 b 150 700 153 697 150 699 b 158 710 150 703 153 706 b 163 701 157 706 160 703 b 174 685 171 697 174 690 b 176 676 174 682 175 679 b 174 672 174 674 174 672 z m 182 699 b 185 701 183 699 185 699 b 188 703 186 701 186 703 l 192 700 b 194 696 193 699 194 697 z m 201 699 l 203 697 b 201 699 203 697 201 697 z m 121 682 b 132 676 125 682 129 679 l 129 672 b 121 676 126 672 124 674 z m 113 663 l 106 663 b 99 665 104 663 101 663 z m 144 665 b 140 657 144 661 143 658 b 122 660 138 658 129 660 l 122 665 z m 171 654 l 164 654 l 164 657 l 171 657 z m 288 649 l 285 649 l 285 653 l 288 653 z m 581 643 l 579 646 l 581 646 l 583 644 z m 115 636 b 117 632 117 636 117 635 b 111 625 117 629 115 628 b 103 639 104 628 101 632 l 113 639 b 115 636 113 638 113 638 z m 153 615 b 149 617 151 615 149 615 b 143 619 146 618 144 619 b 133 615 140 619 138 618 b 122 613 128 613 124 613 b 121 615 122 613 121 613 b 118 617 119 615 118 617 b 121 619 118 617 118 618 b 124 621 121 619 122 621 l 126 621 l 128 619 l 131 619 b 132 624 132 619 132 621 b 128 631 132 626 131 629 l 135 631 b 158 615 139 631 151 621 z m 100 611 b 93 618 99 611 93 615 b 100 611 99 615 100 614 z m 81 614 l 74 614 l 74 617 l 81 617 z m 167 593 l 163 593 b 160 601 161 596 160 599 b 164 613 160 604 163 610 b 167 593 168 604 168 597 z m 157 601 l 146 603 l 146 606 l 157 604 z m 111 578 b 114 583 111 579 113 581 b 117 590 114 585 115 588 b 122 588 117 589 118 588 l 122 579 l 118 579 b 111 578 115 578 113 578 z m 72 574 l 67 576 b 76 583 67 579 71 582 l 78 582 l 81 582 b 72 574 81 579 78 576 z m 128 568 l 121 568 l 122 574 l 129 574 z m 93 563 l 101 563 b 103 560 101 561 101 561 b 101 557 103 558 103 557 l 100 556 l 93 556 z m 113 521 b 93 525 106 524 99 525 b 92 529 93 525 92 526 l 90 532 l 99 532 b 107 531 101 532 104 532 b 113 528 110 529 111 528 z m 111 507 b 108 510 110 510 110 510 b 107 513 108 510 107 511 b 111 518 107 515 108 518 z m 164 482 b 163 490 164 483 164 486 b 160 499 160 493 160 496 b 164 510 160 503 161 507 b 165 500 165 507 165 504 b 164 482 165 493 165 488 z m 7 424 b 0 417 7 422 4 419 l -3 421 b -4 426 -4 422 -4 424 b -3 431 -4 426 -4 428 l -3 435 l 7 435 z m 540 367 l 540 369 b 542 369 540 368 540 368 l 549 365 b 547 361 549 364 549 363 b 544 357 546 360 544 358 b 540 367 540 361 539 364 z m 32 251 b 28 250 29 251 29 251 b 24 251 26 251 24 251 b 21 253 24 251 22 253 l 21 258 l 28 261 l 38 261 l 42 258 b 32 251 40 257 35 254 z m 140 232 l 138 232 l 138 243 l 140 243 z m 426 63 l 431 60 l 422 43 l 418 44 z m 272 39 b 274 36 272 38 274 38 b 275 32 275 35 275 32 l 264 32 b 272 39 264 33 269 38 z "}}}
